# Blender v2.82 (sub 7) OBJ File: ''
# www.blender.org
mtllib arbustos2.mtl
o Bush03.003_Icosphere.002
v 0.089305 0.680436 0.707687
v -0.291018 0.578132 1.045076
v 0.450064 0.531802 1.018350
v -0.078148 0.483862 1.250180
v -0.372357 0.294389 1.154547
v 0.242836 0.162169 1.231002
v 0.465208 0.427579 0.396283
v 0.562284 0.273961 0.630410
v -0.064646 0.287314 1.306818
v 0.504866 0.292613 1.015672
v 0.109039 0.518451 0.235865
v 0.002707 0.309670 0.145741
v -0.393562 0.274772 0.274500
v -0.429204 0.521355 0.511195
v -0.545765 0.238443 0.889420
v -0.255234 -0.083540 1.048710
v 0.018763 -0.195571 0.886895
v -0.485391 0.096320 0.678382
v -0.250614 0.065613 0.318777
v 0.274378 0.046431 0.397699
v 0.460346 0.095947 0.820054
v -0.208002 0.661133 0.614160
v 0.089306 0.680437 -0.776410
v -0.291018 0.578133 -0.439021
v 0.450064 0.531803 -0.465747
v -0.078147 0.483864 -0.233917
v -0.372357 0.294390 -0.329550
v 0.242837 0.162171 -0.253095
v 0.465209 0.427580 -1.087815
v 0.562284 0.273962 -0.853688
v -0.064646 0.287315 -0.177280
v 0.504866 0.292614 -0.468425
v 0.109040 0.518453 -1.248232
v 0.002708 0.309671 -1.338357
v -0.393562 0.274773 -1.209597
v -0.429204 0.521356 -0.972903
v -0.545765 0.238444 -0.594677
v -0.255233 -0.083539 -0.435387
v 0.018764 -0.195570 -0.597203
v -0.485391 0.096321 -0.805715
v -0.250614 0.065614 -1.165321
v 0.274379 0.046432 -1.086399
v 0.460346 0.095948 -0.664043
v -0.208001 0.661134 -0.869938
v 0.089305 0.680437 -0.030185
v -0.291018 0.578133 0.307204
v 0.450064 0.531803 0.280478
v -0.078147 0.483863 0.512308
v -0.372357 0.294389 0.416675
v 0.242837 0.162170 0.493130
v 0.465208 0.427579 -0.341590
v 0.562284 0.273961 -0.107463
v -0.064646 0.287314 0.568945
v 0.504866 0.292614 0.277800
v 0.109040 0.518452 -0.502007
v 0.002707 0.309671 -0.592132
v -0.393562 0.274773 -0.463372
v -0.429204 0.521355 -0.226678
v -0.545765 0.238444 0.151548
v -0.255234 -0.083540 0.310838
v 0.018764 -0.195570 0.149022
v -0.485391 0.096320 -0.059490
v -0.250614 0.065613 -0.419096
v 0.274379 0.046432 -0.340174
v 0.460346 0.095948 0.082182
v -0.208001 0.661134 -0.123713
vt -0.969666 -2.940670
vt -0.062237 -2.214699
vt -1.706193 -2.100818
vt -0.492610 -1.667613
vt 0.148161 -1.802430
vt -1.195097 -1.431571
vt 2.773975 -2.016309
vt 2.954968 -1.362531
vt 2.423852 -1.557898
vt -3.261900 2.802340
vt -3.560528 2.101086
vt -2.971731 2.597019
vt -1.042807 2.345053
vt -0.132694 2.863142
vt -0.882031 2.684593
vt 2.954969 -2.904228
vt 2.488955 -3.205628
vt 2.364501 -3.847501
vt 4.780417 1.465229
vt 4.266682 2.041317
vt 4.096357 0.610530
vt -2.271919 2.594749
vt -2.878803 1.492634
vt -2.271919 1.357891
vt -3.847500 1.479886
vt -3.593452 1.026945
vt 0.148161 -1.275208
vt -0.704029 0.121808
vt -0.545912 -1.410276
vt 0.148161 -0.207911
vt -1.614185 -0.596350
vt -1.562408 4.095767
vt -1.016333 3.296980
vt -0.223431 4.095767
vt 3.812664 1.128357
vt -0.504058 0.569655
vt -1.409828 0.400706
vt 1.910510 -2.376374
vt -1.614185 3.157974
vt 4.847500 2.362530
vt -0.505015 -1.410276
vt 4.198620 0.112362
vt 4.847500 0.356211
vt -0.327828 -3.186133
vt -1.093739 -3.847501
vt 0.148161 -3.356431
vt -1.849669 -3.372120
vt -2.967498 -2.940670
vt -2.060066 -2.214698
vt -3.704023 -2.100818
vt -2.490441 -1.667613
vt -1.849669 -1.802429
vt -3.192929 -1.431571
vt 2.587211 1.943554
vt 2.768205 2.597331
vt 2.237087 2.401963
vt 0.733763 1.887759
vt 0.435133 1.186503
vt 1.023931 1.682434
vt 0.719541 1.887759
vt 1.629652 2.405845
vt 0.880317 2.227299
vt 2.768205 1.055635
vt 2.302187 0.754235
vt 2.177733 0.112362
vt 2.691497 3.950201
vt 2.177761 4.526286
vt 2.007438 3.095500
vt 1.723744 1.680166
vt 1.116860 0.578051
vt 1.723744 0.443306
vt 0.148161 0.565303
vt 0.402209 0.112362
vt 1.910509 -1.732501
vt 1.058318 -0.335484
vt 1.216435 -1.867570
vt 1.910509 -0.665204
vt 0.148161 -1.053645
vt 0.199936 3.638474
vt 0.746015 2.839687
vt 1.538914 3.638474
vt 1.723744 3.613326
vt 1.258288 0.112362
vt 0.352515 -0.056590
vt 1.723744 1.583490
vt 0.148161 2.700681
vt 2.758582 4.847501
vt -2.502844 -1.410278
vt 2.109701 2.597331
vt 2.758581 2.841181
vt -2.325660 -3.186135
vt -3.091570 -3.847501
vt -1.849669 -3.356432
vt -3.847500 -3.372122
vt -2.967498 -0.503448
vt -2.060068 0.222524
vt -3.704025 0.336405
vt -2.490443 0.769610
vt -1.849671 0.634793
vt -3.192931 1.005652
vt 3.631668 1.943553
vt 3.812665 2.597332
vt 3.281545 2.401963
vt -1.028583 2.345053
vt -1.327212 1.643797
vt -0.738414 2.139729
vt -3.276121 2.802340
vt -2.366009 3.320428
vt -3.115345 3.141880
vt 3.812665 1.055636
vt 3.346650 0.754234
vt 3.222196 0.112362
vt 3.922722 -2.494631
vt 3.408989 -1.918545
vt 3.238664 -3.349332
vt -0.038602 2.137462
vt -0.645486 1.035345
vt -0.038602 0.900603
vt -1.614185 1.022598
vt -1.360135 0.569655
vt 1.910509 -3.712434
vt 1.058319 -2.315416
vt 1.216433 -3.847501
vt 1.910509 -2.645138
vt 0.148161 -3.033574
vt -3.795726 4.553055
vt -3.249647 3.754268
vt -2.456748 4.553055
vt 2.954969 -2.831505
vt 1.258290 -1.867570
vt 0.352519 -2.036517
vt 2.768205 1.583490
vt -3.847500 3.615264
vt 3.989808 -1.597332
vt -2.502846 1.026945
vt 3.340925 -3.847501
vt 3.989808 -3.603652
vt -2.325662 -0.748913
vt -3.091573 -1.410278
vt -1.849671 -0.919210
vt -3.847500 -0.934899
vn 0.0712 0.9294 0.3620
vn 0.0712 0.9295 0.3619
vn 0.0711 0.9319 0.3557
vn -0.5186 0.4331 0.7372
vn 0.3592 0.3059 0.8817
vn 0.8810 0.4696 -0.0572
vn -0.4282 0.2229 0.8757
vn 0.5914 0.1266 0.7964
vn -0.3067 0.5046 -0.8071
vn -0.9683 0.0853 -0.2346
vn 0.1071 -0.7233 0.6822
vn -0.7735 -0.6057 0.1866
vn -0.4617 -0.8685 -0.1804
vn -0.4018 -0.8967 -0.1858
vn 0.0316 -0.9023 -0.4298
vn 0.5314 -0.8361 -0.1360
vn 0.5454 -0.7329 0.4068
vn -0.9687 -0.0510 -0.2428
vn -0.7085 -0.5718 -0.4137
vn -0.2583 -0.3658 -0.8941
vn 0.0917 -0.6375 -0.7649
vn 0.7436 -0.3744 -0.5540
vn 0.7129 -0.6602 -0.2365
vn 0.6655 -0.5967 0.4484
vn -0.0251 -0.5624 0.8265
vn -0.4199 -0.3631 0.8318
vn -0.7334 -0.3843 0.5608
vn -0.3545 0.6203 -0.6996
vn 0.5102 -0.2585 -0.8203
vn 0.4388 0.1583 -0.8845
vn 0.9193 -0.3618 0.1545
vn 0.9664 0.2199 0.1334
vn 0.3363 0.2820 0.8985
vn -0.8033 0.4004 0.4409
vn -0.8231 0.5463 0.1550
vn -0.2651 0.8076 -0.5268
vn 0.0402 0.9456 -0.3229
vn 0.3571 0.8879 -0.2899
vn 0.4741 0.8702 -0.1342
vn -0.5513 0.8325 0.0542
vn -0.1159 0.9792 0.1663
vn 0.0711 0.9323 0.3547
vn 0.8810 0.4695 -0.0572
vn 0.4388 0.1584 -0.8845
vn -0.5513 0.8326 0.0542
vn 0.0317 -0.9023 -0.4298
usemtl Dos
s 1
f 1/1/1 2/2/2 3/3/3
f 4/4/4 2/2/4 5/5/4
f 3/3/5 4/4/5 6/6/5
f 7/7/6 3/8/6 8/9/6
f 4/10/7 5/11/7 9/12/7
f 3/13/8 6/14/8 10/15/8
f 11/16/9 12/17/9 13/18/9
f 14/19/10 13/20/10 15/21/10
f 6/22/11 16/23/11 17/24/11
f 15/25/12 18/26/12 16/23/12
f 16/27/13 19/28/13 17/29/13
f 16/27/14 18/30/14 19/28/14
f 19/28/15 20/31/15 17/29/15
f 20/32/16 21/33/16 17/34/16
f 21/33/17 6/14/17 17/34/17
f 15/21/18 13/20/18 18/35/18
f 13/36/19 19/28/19 18/30/19
f 13/36/20 12/37/20 19/28/20
f 12/37/21 20/31/21 19/28/21
f 7/7/22 8/9/22 20/38/22
f 8/39/23 21/33/23 20/32/23
f 10/15/24 6/14/24 21/33/24
f 9/12/25 16/23/25 6/22/25
f 9/12/26 5/11/26 16/23/26
f 5/11/27 15/25/27 16/23/27
f 14/19/28 11/40/28 13/20/28
f 12/17/29 7/7/29 20/38/29
f 12/17/30 11/16/30 7/7/30
f 8/39/31 10/15/31 21/33/31
f 8/39/32 3/13/32 10/15/32
f 6/6/33 4/4/33 9/41/33
f 5/42/34 2/43/34 15/21/34
f 2/43/35 14/19/35 15/21/35
f 22/44/36 11/45/36 14/46/36
f 22/44/37 1/1/37 11/45/37
f 1/1/38 7/47/38 11/45/38
f 1/1/39 3/3/39 7/47/39
f 2/2/40 22/44/40 14/46/40
f 2/2/41 1/1/41 22/44/41
f 3/3/3 2/2/2 4/4/42
f 23/48/1 24/49/2 25/50/3
f 26/51/4 24/49/4 27/52/4
f 25/50/5 26/51/5 28/53/5
f 29/54/43 25/55/43 30/56/43
f 26/57/7 27/58/7 31/59/7
f 25/60/8 28/61/8 32/62/8
f 33/63/9 34/64/9 35/65/9
f 36/66/10 35/67/10 37/68/10
f 28/69/11 38/70/11 39/71/11
f 37/72/12 40/73/12 38/70/12
f 38/74/13 41/75/13 39/76/13
f 38/74/14 40/77/14 41/75/14
f 41/75/15 42/78/15 39/76/15
f 42/79/16 43/80/16 39/81/16
f 43/80/17 28/61/17 39/81/17
f 37/68/18 35/67/18 40/82/18
f 35/83/19 41/75/19 40/77/19
f 35/83/20 34/84/20 41/75/20
f 34/84/21 42/78/21 41/75/21
f 29/54/22 30/56/22 42/85/22
f 30/86/23 43/80/23 42/79/23
f 32/62/24 28/61/24 43/80/24
f 31/59/25 38/70/25 28/69/25
f 31/59/26 27/58/26 38/70/26
f 27/58/27 37/72/27 38/70/27
f 36/66/28 33/87/28 35/67/28
f 34/64/29 29/54/29 42/85/29
f 34/64/44 33/63/44 29/54/44
f 30/86/31 32/62/31 43/80/31
f 30/86/32 25/60/32 32/62/32
f 28/53/33 26/51/33 31/88/33
f 27/89/34 24/90/34 37/68/34
f 24/90/35 36/66/35 37/68/35
f 44/91/36 33/92/36 36/93/36
f 44/91/37 23/48/37 33/92/37
f 23/48/38 29/94/38 33/92/38
f 23/48/39 25/50/39 29/94/39
f 24/49/45 44/91/45 36/93/45
f 24/49/41 23/48/41 44/91/41
f 25/50/3 24/49/2 26/51/42
f 45/95/1 46/96/2 47/97/3
f 48/98/4 46/96/4 49/99/4
f 47/97/5 48/98/5 50/100/5
f 51/101/6 47/102/6 52/103/6
f 48/104/7 49/105/7 53/106/7
f 47/107/8 50/108/8 54/109/8
f 55/110/9 56/111/9 57/112/9
f 58/113/10 57/114/10 59/115/10
f 50/116/11 60/117/11 61/118/11
f 59/119/12 62/120/12 60/117/12
f 60/121/13 63/122/13 61/123/13
f 60/121/14 62/124/14 63/122/14
f 63/122/46 64/125/46 61/123/46
f 64/126/16 65/127/16 61/128/16
f 65/127/17 50/108/17 61/128/17
f 59/115/18 57/114/18 62/129/18
f 57/130/19 63/122/19 62/124/19
f 57/130/20 56/131/20 63/122/20
f 56/131/21 64/125/21 63/122/21
f 51/101/22 52/103/22 64/132/22
f 52/133/23 65/127/23 64/126/23
f 54/109/24 50/108/24 65/127/24
f 53/106/25 60/117/25 50/116/25
f 53/106/26 49/105/26 60/117/26
f 49/105/27 59/119/27 60/117/27
f 58/113/28 55/134/28 57/114/28
f 56/111/29 51/101/29 64/132/29
f 56/111/30 55/110/30 51/101/30
f 52/133/31 54/109/31 65/127/31
f 52/133/32 47/107/32 54/109/32
f 50/100/33 48/98/33 53/135/33
f 49/136/34 46/137/34 59/115/34
f 46/137/35 58/113/35 59/115/35
f 66/138/36 55/139/36 58/140/36
f 66/138/37 45/95/37 55/139/37
f 45/95/38 51/141/38 55/139/38
f 45/95/39 47/97/39 51/141/39
f 46/96/40 66/138/40 58/140/40
f 46/96/41 45/95/41 66/138/41
f 47/97/3 46/96/2 48/98/42
