# Blender v2.82 (sub 7) OBJ File: ''
# www.blender.org
mtllib untitled2.mtl
o Bush01.001_Icosphere.001
v 0.051365 -0.120461 0.132059
v -0.291134 0.006144 0.413834
v 0.036762 -0.096207 -0.236358
v 0.491591 0.048609 0.084552
v 0.413458 0.092501 -0.324406
v 0.515188 0.517783 -0.021932
v -0.550815 0.201959 0.171480
v -0.402285 0.341620 0.413788
v -0.050088 0.091612 -0.491232
v -0.026855 0.330368 -0.651122
v 0.381841 0.396789 0.435366
v 0.197074 0.112791 0.514152
v -0.120481 0.327826 0.594626
v -0.521185 0.059775 -0.200784
v -0.526006 0.314509 -0.338303
v 0.383936 0.470293 -0.347868
v 0.417933 0.616163 -0.132547
v -0.099401 0.659373 -0.430059
v -0.054716 0.810639 -0.003113
v -0.459776 0.609974 0.103580
v -0.221579 0.639967 0.405114
v 0.199523 0.689253 0.272234
vt 0.000000 0.000000
vt 1.000000 0.000000
vt 1.000000 1.000000
vt 0.000000 0.000000
vt 1.000000 0.000000
vt 1.000000 1.000000
vt 0.000000 0.000000
vt 1.000000 1.000000
vt 0.000000 0.000000
vt 1.000000 0.000000
vt 1.000000 1.000000
vt 1.000000 0.000000
vt 1.000000 1.000000
vt 0.000000 0.000000
vt 1.000000 0.000000
vt 1.000000 1.000000
vt 0.000000 0.000000
vt 1.000000 0.000000
vt 1.000000 0.000000
vt 1.000000 1.000000
vt 0.000000 0.000000
vt 1.000000 0.000000
vt 1.000000 1.000000
vt 1.000000 0.000000
vt 1.000000 1.000000
vt 0.000000 0.000000
vt 1.000000 0.000000
vt 0.000000 0.000000
vt 1.000000 1.000000
vt 0.000000 0.000000
vt 1.000000 0.000000
vt 0.000000 0.000000
vt 1.000000 0.000000
vt 1.000000 1.000000
vt 0.000000 0.000000
vt 0.000000 0.000000
vt 1.000000 0.000000
vt 1.000000 1.000000
vt 0.000000 0.000000
vt 1.000000 0.000000
vt 0.000000 0.000000
vt 1.000000 1.000000
vt 0.000000 0.000000
vt 0.000000 0.000000
vt 1.000000 0.000000
vt 1.000000 0.000000
vt 1.000000 1.000000
vt 1.000000 0.000000
vt 0.000000 0.000000
vt 1.000000 0.000000
vt 1.000000 0.000000
vt 0.000000 0.000000
vt 0.000000 0.000000
vt 1.000000 1.000000
vt 1.000000 1.000000
vt 1.000000 1.000000
vt 1.000000 1.000000
vt 1.000000 0.000000
vt 1.000000 1.000000
vn -0.3793 -0.9241 -0.0458
vn 0.9760 -0.0937 -0.1965
vn -0.7547 -0.2500 0.6067
vn 0.2832 -0.5525 -0.7839
vn 0.9587 0.0162 0.2839
vn 0.2921 0.0745 0.9535
vn -0.4707 -0.4260 -0.7726
vn 0.5947 -0.0035 -0.8040
vn 0.2742 0.8971 -0.3465
vn 0.3828 0.7357 -0.5588
vn -0.4817 0.8407 -0.2474
vn -0.3870 0.8963 0.2165
vn 0.0157 0.9202 0.3911
vn 0.3906 0.9195 0.0447
vn 0.5925 0.7857 0.1778
vn 0.3505 0.5744 -0.7398
vn -0.4943 0.4071 -0.7681
vn -0.6317 0.6848 -0.3632
vn -0.8827 0.2619 0.3901
vn -0.7212 0.4521 0.5248
vn 0.1909 0.5539 0.8104
vn 0.1789 0.5620 0.8076
vn 0.6840 0.6308 0.3664
vn -0.4401 -0.4697 -0.7653
vn -0.9760 0.2179 0.0006
vn -0.9969 -0.0512 -0.0598
vn -0.4993 0.3257 0.8029
vn -0.5376 -0.1780 0.8242
vn -0.0830 -0.4544 0.8869
vn 0.7537 -0.3332 0.5665
vn 0.8355 0.3846 -0.3925
vn 0.9240 0.0487 -0.3792
vn 0.2270 -0.7455 -0.6267
vn -0.2613 -0.8174 -0.5134
vn -0.2682 -0.9632 0.0164
vn -0.7036 -0.6807 0.2040
vn 0.0873 -0.8647 0.4946
vn 0.4082 -0.8961 -0.1742
vn 0.3504 -0.9336 -0.0753
vn 0.3672 -0.8496 0.3786
usemtl mat
s 1
f 1/1/1 2/2/1 3/3/1
f 4/4/2 5/5/2 6/6/2
f 7/7/3 2/2/3 8/8/3
f 5/9/4 9/10/4 10/11/4
f 4/4/5 6/12/5 11/13/5
f 12/14/6 11/15/6 13/16/6
f 14/17/7 15/18/7 10/11/7
f 5/9/8 10/19/8 16/20/8
f 17/21/9 18/22/9 19/23/9
f 17/21/10 16/24/10 18/25/10
f 18/26/11 20/27/11 19/23/11
f 19/28/12 20/27/12 21/29/12
f 21/30/13 22/31/13 19/23/13
f 22/32/14 17/33/14 19/23/14
f 22/32/15 6/12/15 17/34/15
f 10/35/16 18/22/16 16/20/16
f 10/35/17 15/18/17 18/25/17
f 15/36/18 20/27/18 18/25/18
f 7/7/19 8/37/19 20/38/19
f 8/39/20 21/40/20 20/38/20
f 13/41/21 22/31/21 21/29/21
f 13/41/22 11/15/22 22/42/22
f 11/43/23 6/12/23 22/42/23
f 9/44/24 14/45/24 10/11/24
f 15/36/25 7/46/25 20/38/25
f 15/36/26 14/45/26 7/47/26
f 8/39/27 13/48/27 21/29/27
f 8/39/28 2/2/28 13/16/28
f 2/49/29 12/50/29 13/16/29
f 12/14/30 4/51/30 11/13/30
f 6/52/31 16/24/31 17/34/31
f 6/52/32 5/5/32 16/20/32
f 3/53/33 9/10/33 5/54/33
f 3/53/34 14/45/34 9/55/34
f 3/53/35 2/2/35 14/56/35
f 2/49/36 7/46/36 14/56/36
f 1/1/37 12/50/37 2/57/37
f 5/9/38 4/51/38 3/3/38
f 4/4/39 1/58/39 3/3/39
f 1/1/40 4/51/40 12/59/40
