# Blender v2.82 (sub 7) OBJ File: ''
# www.blender.org
mtllib colita.mtl
o Cola_Mesh_0322.rip.005
v 0.020479 0.126863 0.068212
v -0.106114 -0.007612 -0.010263
v -0.000312 0.066603 0.088776
v 0.103485 -0.008452 -0.010049
v -0.003146 -0.033699 -0.074984
v 0.148994 0.326875 -0.237357
v 0.094411 0.380315 -0.189387
v 0.177506 0.395569 -0.211945
v 0.214776 0.325277 -0.175663
v 0.164251 0.390046 -0.118532
vt 0.876971 0.088620
vt 0.937061 0.047568
vt 0.876502 0.066577
vt 0.937061 0.047568
vt 0.973103 0.043289
vt 0.977342 0.225118
vt 0.929869 0.223855
vt 0.928295 0.246437
vt 0.929869 0.223855
vt 0.881563 0.224724
vn 0.0847 0.4124 0.9071
vn -0.8509 0.3539 -0.3883
vn 0.0627 0.9831 -0.1720
vn 0.8431 0.3599 -0.3995
vn -0.0036 0.2646 -0.9643
vn -0.0574 -0.3406 -0.9385
vn -0.7598 0.6415 0.1061
vn 0.3922 0.7821 -0.4843
vn 0.9430 -0.1261 0.3080
vn 0.2000 0.6548 0.7289
vn 0.0982 -0.8353 0.5409
vn -0.0507 -0.5090 0.8592
vn -0.6065 -0.6263 0.4898
vn -0.0171 -0.9140 -0.4053
usemtl Tex_0008_0.dds.004
s 1
f 1/1/1 2/2/2 3/3/3
f 4/4/4 1/1/1 3/3/3
f 5/5/5 2/2/2 6/6/6
f 7/7/7 6/6/6 2/2/2
f 7/7/7 8/8/8 6/6/6
f 8/8/8 9/9/9 6/6/6
f 6/6/6 9/9/9 4/4/4
f 4/4/4 5/5/5 6/6/6
f 2/2/2 1/1/1 7/7/7
f 10/10/10 7/7/7 1/1/1
f 7/7/7 10/10/10 8/8/8
f 10/10/10 9/9/9 8/8/8
f 9/9/9 10/10/10 1/1/1
f 1/1/1 4/4/4 9/9/9
f 2/2/11 5/5/12 4/4/13 3/3/14
