# Blender v2.82 (sub 7) OBJ File: ''
# www.blender.org
mtllib traseraDerecha.mtl
o Trasera_Der_Mesh_0322.rip.004
v -0.243604 -0.904244 -0.562005
v -0.110419 -0.904227 -0.301309
v -0.334803 -0.904249 -0.373035
v -0.110419 -0.904227 -0.301309
v -0.243604 -0.904244 -0.562005
v -0.004046 -0.904220 -0.467198
v -0.004046 -0.904220 -0.467198
v -0.032878 -0.692251 -0.452245
v -0.110419 -0.904227 -0.301309
v 0.040666 -0.761091 -0.601561
v -0.073525 -0.595193 -0.514497
v -0.083072 -0.499048 -0.608267
v -0.058450 -0.227442 -0.324124
v -0.041888 -0.378099 -0.293871
v 0.052595 -0.299665 -0.179832
v -0.078308 -0.742938 -0.684745
v -0.170030 -0.522514 -0.667727
v -0.156977 -0.266349 -0.252299
v -0.094004 -0.163477 -0.276970
v 0.074587 -0.086439 -0.220522
v -0.243604 -0.904244 -0.562005
v -0.229744 -0.717055 -0.610984
v -0.361539 -0.772074 -0.490202
v -0.249840 -0.670645 -0.481826
v -0.238280 -0.550542 -0.629280
v -0.078308 -0.742938 -0.684745
v -0.334803 -0.904249 -0.373035
v -0.283064 -0.797506 -0.287317
v -0.032878 -0.692251 -0.452245
v -0.151550 -0.613564 -0.457089
v -0.236002 -0.601595 -0.483906
v -0.200491 -0.300374 -0.152056
v -0.110419 -0.904227 -0.301309
v -0.238280 -0.550542 -0.629280
v -0.073525 -0.595193 -0.514497
v -0.041888 -0.378099 -0.293871
v -0.126397 -0.402122 -0.127964
v -0.101779 -0.353699 0.037976
v -0.226743 -0.184824 -0.016571
v -0.169589 -0.159299 -0.174706
v 0.052595 -0.299665 -0.179832
v 0.137569 -0.177957 0.037526
v 0.094781 -0.163383 0.206260
v -0.138662 -0.219099 0.189086
v -0.111321 0.056542 0.186377
v -0.162965 0.096828 0.023492
v -0.106394 0.142286 -0.149942
v -0.059192 0.146555 -0.169340
v 0.042171 0.025824 -0.262611
v -0.108788 0.215214 -0.002251
v -0.091798 0.190663 -0.125975
v 0.144073 -0.144582 -0.127709
v 0.032063 -0.127055 0.256670
v -0.029077 -0.054779 0.253228
v -0.105912 0.082863 0.182022
v -0.123976 0.188259 0.061028
v -0.083182 0.174054 -0.149752
v 0.137569 -0.177957 0.037526
v 0.086784 -0.041067 -0.226221
v -0.090988 0.052498 0.201032
v -0.104187 0.072016 0.194705
vt 0.724107 0.408990
vt 0.800683 0.509947
vt 0.705136 0.505764
vt 0.800683 0.509947
vt 0.724107 0.408990
vt 0.818456 0.420723
vt 0.322148 0.025438
vt 0.374438 0.130440
vt 0.412670 0.044743
vt 0.323398 0.094372
vt 0.330731 0.172770
vt 0.290589 0.176788
vt 0.296156 0.297961
vt 0.332907 0.272424
vt 0.352773 0.301254
vt 0.278842 0.094730
vt 0.256637 0.159060
vt 0.252376 0.308326
vt 0.305673 0.351584
vt 0.366218 0.399129
vt 0.238039 0.016730
vt 0.234522 0.111775
vt 0.175358 0.070117
vt 0.169245 0.139117
vt 0.226107 0.164280
vt 0.256637 0.159060
vt 0.140226 0.039630
vt 0.138174 0.088097
vt 0.097271 0.162682
vt 0.159240 0.197675
vt 0.185132 0.186685
vt 0.215534 0.330504
vt 0.074525 0.073140
vt 0.234522 0.111775
vt 0.131715 0.200555
vt 0.122995 0.293431
vt 0.169167 0.328846
vt 0.162491 0.383817
vt 0.225548 0.388864
vt 0.270603 0.369993
vt 0.106438 0.333893
vt 0.095426 0.408068
vt 0.117338 0.454569
vt 0.177640 0.436179
vt 0.203703 0.506536
vt 0.255773 0.495726
vt 0.308411 0.491681
vt 0.320476 0.491420
vt 0.343886 0.431587
vt 0.279973 0.527293
vt 0.309160 0.507989
vt 0.386420 0.362519
vt 0.135550 0.469398
vt 0.159692 0.492710
vt 0.208791 0.513804
vt 0.258520 0.528368
vt 0.314477 0.500859
vt 0.405116 0.337364
vt 0.367250 0.415597
vt 0.195878 0.508746
vt 0.000000 0.000000
vn 0.0096 -0.9999 -0.0126
vn 0.8354 -0.5340 -0.1305
vn 0.5782 0.3409 0.7413
vn 0.4486 0.0827 0.8899
vn 0.9703 0.1009 -0.2201
vn 0.9743 0.1273 0.1861
vn 0.8169 0.3399 -0.4660
vn 0.6526 0.3774 -0.6570
vn 0.8722 -0.4668 0.1462
vn 0.8593 -0.5025 -0.0954
vn 0.1853 -0.3577 -0.9153
vn -0.2524 0.5922 -0.7652
vn -0.7025 0.5601 -0.4392
vn -0.3928 0.1311 -0.9102
vn 0.8587 -0.0281 -0.5117
vn -0.3390 -0.5557 -0.7592
vn -0.6804 -0.0535 -0.7309
vn -0.9612 0.1847 -0.2049
vn -0.5654 0.6300 0.5324
vn -0.9023 0.2198 -0.3708
vn 0.1853 -0.3576 -0.9153
vn -0.8414 -0.4303 0.3270
vn -0.2645 0.5070 0.8204
vn 0.4381 -0.5255 0.7294
vn -0.8630 -0.3388 0.3748
vn -0.9882 -0.1047 0.1119
vn -0.0885 -0.8344 0.5441
vn 0.1965 -0.9020 0.3844
vn -0.9772 -0.0794 0.1968
vn -0.9182 0.1516 -0.3661
vn 0.8593 -0.5026 -0.0954
vn 0.8986 -0.3446 0.2718
vn 0.6476 -0.6871 0.3294
vn -0.4486 -0.5716 0.6870
vn -0.8196 0.1319 0.5575
vn -0.9775 0.2108 -0.0084
vn -0.7429 0.2305 -0.6284
vn 0.2610 0.8197 -0.5099
vn 0.3656 0.3744 -0.8521
vn -0.1637 0.9719 0.1693
vn -0.0294 0.9995 0.0112
vn 0.9163 -0.2848 -0.2814
vn 0.2627 0.3052 0.9153
vn 0.4246 0.5083 0.7492
vn 0.1487 0.8018 0.5788
vn -0.3193 0.8987 0.3007
vn 0.2144 0.7947 -0.5678
vn 0.7743 -0.0412 0.6315
vn 0.7385 0.2537 -0.6247
vn 0.4483 0.6372 0.6269
vn 0.8040 0.5662 0.1818
usemtl Tex_0008_0.dds.002
s 1
f 1/1/1 2/2/1 3/3/1
f 4/4/1 5/5/1 6/6/1
f 7/7/2 8/8/3 9/9/4
f 10/10/5 8/8/3 7/7/2
f 10/10/5 11/11/6 8/8/3
f 12/12/7 11/11/6 10/10/5
f 13/13/8 11/11/6 12/12/7
f 13/13/8 14/14/9 11/11/6
f 15/15/10 14/14/9 13/13/8
f 16/16/11 10/10/5 7/7/2
f 12/12/7 10/10/5 16/16/11
f 17/17/12 12/12/7 16/16/11
f 17/17/12 13/13/8 12/12/7
f 18/18/13 13/13/8 17/17/12
f 18/18/13 19/19/14 13/13/8
f 19/19/14 20/20/15 13/13/8
f 13/13/8 20/20/15 15/15/10
f 16/16/11 7/7/2 21/21/16
f 22/22/17 16/16/11 21/21/16
f 23/23/18 22/22/17 21/21/16
f 24/24/19 22/22/17 23/23/18
f 24/24/19 25/25/20 22/22/17
f 25/25/20 26/26/21 22/22/17
f 23/23/18 21/21/16 27/27/22
f 28/28/23 23/23/18 27/27/22
f 28/28/23 24/24/19 23/23/18
f 29/29/3 24/24/19 28/28/23
f 29/29/3 30/30/24 24/24/19
f 30/30/24 31/31/25 24/24/19
f 31/31/25 25/25/20 24/24/19
f 32/32/26 25/25/20 31/31/25
f 32/32/26 18/18/13 25/25/20
f 25/25/20 18/18/13 17/17/12
f 33/33/4 28/28/23 27/27/22
f 29/29/3 28/28/23 33/33/4
f 34/34/20 17/17/12 16/16/11
f 35/35/6 30/30/24 29/29/3
f 36/36/9 30/30/24 35/35/6
f 36/36/9 37/37/27 30/30/24
f 30/30/24 37/37/27 31/31/25
f 37/37/27 32/32/26 31/31/25
f 38/38/28 32/32/26 37/37/27
f 39/39/29 32/32/26 38/38/28
f 39/39/29 40/40/30 32/32/26
f 32/32/26 40/40/30 18/18/13
f 40/40/30 19/19/14 18/18/13
f 36/36/9 38/38/28 37/37/27
f 41/41/31 38/38/28 36/36/9
f 41/41/31 42/42/32 43/43/33 38/38/28
f 44/44/34 39/39/29 38/38/28
f 45/45/35 39/39/29 44/44/34
f 45/45/35 46/46/36 39/39/29
f 46/46/36 40/40/30 39/39/29
f 46/46/36 47/47/37 40/40/30
f 47/47/37 19/19/14 40/40/30
f 47/47/37 48/48/38 49/49/39 19/19/14
f 46/46/36 50/50/40 51/51/41 47/47/37
f 20/20/15 52/52/42 15/15/10
f 53/53/43 54/54/44 44/44/34
f 55/55/45 56/56/46 46/46/36 45/45/35
f 57/57/47 48/48/38 47/47/37
f 43/43/33 53/53/43 44/44/34 38/38/28
f 52/52/42 58/58/48 15/15/10
f 49/49/39 59/59/49 20/20/15 19/19/14
f 54/54/44 60/60/50 45/45/35 44/44/34
f 56/56/46 50/50/40 46/46/36
f 51/51/41 57/57/47 47/47/37
f 48/48/38 57/57/47 51/51/41 50/50/40 56/56/46 55/55/45 61/61/51 60/60/50 54/54/44 53/53/43 43/43/33 42/42/32 58/58/48 52/52/42 20/20/15 59/59/49 49/49/39
