# Blender v2.82 (sub 7) OBJ File: 'albercaTexturizada.blend'
# www.blender.org
mtllib alberca.mtl
o Cylinder.001
v 0.065174 0.004827 0.005368
v 0.065174 -0.004288 0.005368
v 0.068594 0.004827 0.006405
v 0.068594 -0.004288 0.006405
v 0.071746 0.004827 0.008090
v 0.071746 -0.004288 0.008090
v 0.074508 0.004827 0.010357
v 0.074508 -0.004288 0.010357
v 0.076775 0.004827 0.013120
v 0.076775 -0.004288 0.013120
v 0.078460 0.004827 0.016271
v 0.078460 -0.004288 0.016271
v 0.079497 0.004827 0.019691
v 0.079497 -0.004288 0.019691
v 0.079848 0.004827 0.023247
v 0.079848 -0.004288 0.023247
v 0.079497 0.004827 0.026804
v 0.079497 -0.004288 0.026804
v 0.078460 0.004827 0.030223
v 0.078460 -0.004288 0.030223
v 0.076775 0.004827 0.033375
v 0.076775 -0.004288 0.033375
v 0.074508 0.004827 0.036137
v 0.074508 -0.004288 0.036137
v 0.071746 0.004827 0.038405
v 0.071746 -0.004288 0.038405
v 0.068594 0.004827 0.040089
v 0.068594 -0.004288 0.040089
v 0.065174 0.004827 0.041127
v 0.065174 -0.004288 0.041127
v 0.061618 0.004827 0.041477
v 0.061618 -0.004288 0.041477
v 0.058062 0.004827 0.041127
v 0.058062 -0.004288 0.041127
v 0.054642 0.004827 0.040089
v 0.054642 -0.004288 0.040089
v 0.051490 0.004827 0.038405
v 0.051490 -0.004288 0.038405
v 0.048728 0.004827 0.036137
v 0.048728 -0.004288 0.036137
v 0.046733 0.004827 0.033707
v 0.046754 -0.004288 0.033732
v -0.074716 0.004827 0.033739
v -0.074716 0.004827 -0.046861
v -0.074716 -0.004298 -0.046861
v -0.074716 -0.004298 0.033739
v 0.064484 0.004827 -0.046861
v 0.064484 -0.004298 -0.046861
v 0.064484 -0.004298 0.033739
v 0.041191 0.004827 0.036644
v 0.041191 -0.004298 0.036644
v 0.035872 0.004827 0.043127
v 0.035872 -0.004298 0.043127
v 0.029389 0.004827 0.048446
v 0.029389 -0.004298 0.048446
v 0.021993 0.004827 0.052400
v 0.021993 -0.004298 0.052400
v 0.013969 0.004827 0.054834
v 0.013969 -0.004298 0.054834
v 0.005623 0.004827 0.055656
v 0.005623 -0.004298 0.055656
v -0.002722 0.004827 0.054834
v -0.002722 -0.004298 0.054834
v -0.010747 0.004827 0.052400
v -0.010747 -0.004298 0.052400
v -0.018143 0.004827 0.048446
v -0.018143 -0.004298 0.048446
v -0.024625 0.004827 0.043126
v -0.024625 -0.004298 0.043126
v -0.029945 0.004827 0.036644
v -0.029945 -0.004298 0.036644
v 0.064475 -0.004288 0.005309
v 0.064465 -0.004288 0.033713
v 0.046678 -0.004288 0.033640
v 0.042782 0.004827 0.033668
v 0.042796 -0.004298 0.033642
v 0.064470 -0.004288 0.005299
v 0.064480 0.004827 0.005300
v -0.031516 0.004827 0.033705
v -0.031517 -0.004298 0.033703
v -0.031417 0.004827 0.033739
v -0.031579 -0.004298 0.033739
v 0.042717 0.004827 0.033739
v 0.042873 -0.004298 0.033739
v 0.064484 0.004827 0.005315
v 0.064484 -0.004298 0.005312
v 0.046705 0.004827 0.033739
v 0.046682 -0.004298 0.033739
v 0.042718 -0.004298 0.033789
vt 0.219661 0.995850
vt 0.219661 0.504150
vt 0.288290 0.504150
vt 1.515345 0.711694
vt -0.515344 0.288306
vt -0.515344 0.711694
vt 0.388517 0.432140
vt 0.286621 1.067860
vt 0.286557 0.432140
vt 0.625416 1.071075
vt 0.625416 0.428925
vt 0.696123 0.428925
vt 0.974854 1.000000
vt 0.968750 0.500000
vt 0.974935 0.500000
vt 0.679755 -0.237442
vt 0.320245 1.290408
vt 0.679755 1.290408
vt 0.272252 0.883716
vt 0.727748 0.695031
vt 0.727748 0.882601
vt -0.283268 1.093575
vt -0.479084 1.093575
vt -0.479084 0.406425
vt 0.219527 1.029455
vt 0.220281 0.470545
vt 0.293185 0.470545
vt 1.011718 0.748705
vt 2.890180 0.163129
vt 1.011717 0.163129
vt 1.180461 0.504150
vt 1.249089 0.504150
vt 1.249089 0.995850
vt 1.180461 0.995850
vt 1.111832 0.995850
vt 1.111832 0.504150
vt 1.043204 0.995850
vt 0.974575 0.504150
vt 1.043204 0.504150
vt 0.974575 0.995850
vt 0.905946 0.995850
vt 0.837318 0.504150
vt 0.905946 0.504150
vt 0.837318 0.995850
vt 0.768689 0.995850
vt 0.700061 0.504150
vt 0.768689 0.504150
vt 0.700061 0.995850
vt 0.631432 0.995850
vt 0.562804 0.504150
vt 0.631432 0.504150
vt 0.562804 0.995850
vt 0.494175 0.995850
vt 0.425547 0.504150
vt 0.494175 0.504150
vt 0.425547 0.995850
vt 0.356918 0.995850
vt 0.356918 0.504150
vt 0.288290 0.995850
vt 1.515345 0.288306
vt 0.388517 1.067860
vt 0.699768 0.428925
vt 0.699130 1.071075
vt 0.968750 1.000000
vt 0.320245 -0.243172
vt 0.272252 0.687311
vt 1.283267 0.406425
vt 1.479084 0.406425
vt 1.479084 1.093575
vt 1.283267 1.093575
vt 1.087450 1.093575
vt 1.087450 0.406425
vt 0.891634 1.093575
vt 0.695817 0.406425
vt 0.891634 0.406425
vt 0.695817 1.093575
vt 0.500000 1.093575
vt 0.304183 0.406425
vt 0.500000 0.406425
vt 0.304183 1.093575
vt 0.108366 1.093575
vt -0.087451 0.406425
vt 0.108366 0.406425
vt -0.087451 1.093575
vt -0.283268 0.406425
vt 0.544275 0.470545
vt 0.627971 0.470545
vt 0.627971 1.029455
vt 0.544275 1.029455
vt 0.460578 1.029455
vt 0.460578 0.470545
vt 0.376881 1.029455
vt 0.376881 0.470545
vt 0.293185 1.029455
vt -1.890290 0.163129
vt -1.890290 0.748705
vt 2.890290 0.748705
vt 0.889786 0.274551
vt 0.848980 0.171458
vt 0.551639 0.160538
vt 1.710191 0.805972
vt 1.402382 1.538619
vt 1.336527 1.538618
vt 0.126677 0.233531
vt -0.042160 0.374627
vt -0.347482 0.900858
vt 0.794063 0.081096
vt 0.727147 0.006938
vt 0.650802 -0.048165
vt 0.567964 -0.082097
vt 0.481814 -0.093556
vt 0.395664 -0.082097
vt 0.312826 -0.048165
vt 0.236481 0.006938
vt 0.169564 0.081096
vt 0.121729 0.159806
vt 0.119903 0.162810
vt 0.551039 1.089840
vt 0.550914 1.089857
vt 0.567964 1.087589
vt 0.650802 1.053657
vt 0.727147 0.998554
vt 0.794063 0.924396
vt 0.848980 0.834034
vt 0.889786 0.730941
vt 0.914914 0.619080
vt 0.923400 0.502746
vt 0.914914 0.386412
vt -0.696649 -0.538619
vt 1.710191 -0.538619
vt 0.049212 1.538618
vt 1.710190 1.538619
vt -0.696649 1.538618
vt -0.311597 0.795891
vt -0.190148 0.564513
vt 1.347224 0.897788
vt 0.500396 0.117304
vt 1.312389 0.795891
vt 1.190940 0.564513
vt 1.042953 0.374627
vt 0.874115 0.233531
vt 0.690918 0.146646
vt 0.309874 0.146646
vn 0.0979 0.0000 0.9952
vn -1.0000 0.0000 0.0000
vn -0.8819 0.0000 0.4714
vn 0.8819 0.0000 0.4715
vn 0.0980 0.0000 -0.9952
vn 0.0000 0.0000 1.0000
vn -0.7730 0.0000 0.6344
vn 1.0000 0.0000 0.0000
vn 0.2902 0.0000 -0.9570
vn 0.4714 0.0000 -0.8819
vn 0.6344 0.0000 -0.7730
vn 0.7731 0.0000 -0.6343
vn 0.8818 0.0000 -0.4716
vn 0.9570 0.0000 -0.2902
vn 0.9952 0.0000 -0.0982
vn 0.9952 0.0000 0.0982
vn 0.9570 0.0000 0.2902
vn 0.8819 0.0000 0.4714
vn 0.7730 0.0000 0.6344
vn 0.7730 -0.0003 0.6343
vn 0.6344 0.0001 0.7730
vn 0.6346 0.0000 0.7728
vn 0.6345 -0.0003 0.7729
vn 0.7730 -0.0003 0.6344
vn 0.6344 0.0000 0.7730
vn 0.6344 -0.0001 0.7730
vn 0.4712 0.0000 0.8820
vn 0.4710 -0.0002 0.8821
vn 0.2904 0.0000 0.9569
vn 0.4713 -0.0003 0.8820
vn 0.0980 0.0000 0.9952
vn 0.7731 0.0000 0.6343
vn 0.6346 -0.0002 0.7728
vn 0.6343 0.0000 0.7731
vn 0.6345 0.0004 0.7729
vn 0.4715 0.0000 0.8819
vn 0.4715 0.0005 0.8819
vn 0.7731 0.0005 0.6343
vn 0.2903 0.0000 0.9569
vn 0.4712 0.0004 0.8820
vn 0.6347 0.0000 0.7728
vn 0.6346 0.0001 0.7728
vn -0.0980 0.0000 0.9952
vn -0.2902 0.0000 0.9570
vn -0.4715 0.0000 0.8819
vn -0.6344 0.0000 0.7730
vn -0.0979 0.0000 0.9952
vn -0.2904 0.0000 0.9569
vn -0.4712 0.0000 0.8820
vn -0.6346 0.0000 0.7728
vn 0.0000 0.0000 -1.0000
vn -0.0000 -1.0000 0.0000
vn 0.0000 -1.0000 -0.0001
usemtl mat
s off
f 31/1/1 32/2/1 30/3/1
f 44/4/2 46/5/2 43/6/2
f 71/7/3 79/8/3 80/9/3
f 50/10/4 51/11/4 89/12/4
f 78/13/5 2/14/5 77/15/5
f 82/16/6 43/17/6 46/18/6
f 87/19/6 84/20/6 88/21/6
f 68/22/7 70/23/7 71/24/7
f 41/25/7 42/26/7 40/27/7
f 47/28/8 86/29/8 48/30/8
f 4/31/9 2/32/9 1/33/9
f 3/34/10 5/35/10 6/36/10
f 5/35/11 7/37/11 6/36/11
f 4/31/9 1/33/9 3/34/9
f 10/38/12 8/39/12 7/37/12
f 8/39/11 6/36/11 7/37/11
f 6/36/10 4/31/10 3/34/10
f 7/37/12 9/40/12 10/38/12
f 9/40/13 11/41/13 10/38/13
f 14/42/14 12/43/14 11/41/14
f 12/43/13 10/38/13 11/41/13
f 11/41/14 13/44/14 14/42/14
f 13/44/15 15/45/15 14/42/15
f 18/46/16 16/47/16 15/45/16
f 16/47/15 14/42/15 15/45/15
f 15/45/16 17/48/16 18/46/16
f 17/48/17 19/49/17 18/46/17
f 22/50/18 20/51/18 19/49/18
f 20/51/17 18/46/17 19/49/17
f 19/49/18 21/52/18 22/50/18
f 21/52/19 23/53/20 22/50/19
f 26/54/21 24/55/22 23/53/23
f 24/55/19 22/50/19 23/53/24
f 23/53/25 25/56/22 26/54/26
f 25/56/27 27/57/27 26/54/28
f 30/3/29 28/58/29 27/57/29
f 28/58/27 26/54/30 27/57/27
f 27/57/29 29/59/29 30/3/29
f 29/59/31 31/1/31 30/3/31
f 44/4/2 45/60/2 46/5/2
f 71/7/3 70/61/3 79/8/3
f 89/12/4 76/62/4 75/63/4
f 75/63/4 50/10/4 89/12/4
f 78/13/5 1/64/5 2/14/5
f 82/16/6 81/65/6 43/17/6
f 87/19/6 83/66/6 84/20/6
f 53/67/32 51/68/32 50/69/32
f 52/70/33 54/71/34 55/72/35
f 54/71/36 56/73/36 55/72/37
f 53/67/32 50/69/32 52/70/38
f 59/74/39 57/75/39 56/73/39
f 57/75/36 55/72/40 56/73/36
f 55/72/41 53/67/34 52/70/42
f 56/73/39 58/76/39 59/74/39
f 58/76/31 60/77/31 59/74/31
f 63/78/43 61/79/43 60/77/43
f 61/79/31 59/74/31 60/77/31
f 60/77/43 62/80/43 63/78/43
f 62/80/44 64/81/44 63/78/44
f 67/82/45 65/83/45 64/81/45
f 65/83/44 63/78/44 64/81/44
f 64/81/45 66/84/45 67/82/45
f 66/84/46 68/22/46 67/82/46
f 71/24/7 69/85/7 68/22/7
f 69/85/46 67/82/46 68/22/46
f 34/86/47 32/87/47 31/88/47
f 33/89/48 35/90/48 36/91/48
f 35/90/49 37/92/49 36/91/49
f 34/86/43 31/88/43 33/89/43
f 40/27/50 38/93/50 37/92/50
f 38/93/49 36/91/49 37/92/49
f 36/91/48 34/86/48 33/89/48
f 37/92/50 39/94/50 40/27/50
f 39/94/7 41/25/7 40/27/7
f 45/95/51 44/96/51 47/28/51
f 47/28/8 85/97/8 86/29/8
f 48/30/51 45/95/51 47/28/51
usemtl Material
f 20/98/52 22/99/52 73/100/52
f 86/101/52 88/102/52 84/103/52
f 65/104/52 67/105/52 80/106/52
f 22/99/52 24/107/52 73/100/52
f 24/107/52 26/108/52 73/100/52
f 26/108/52 28/109/52 73/100/52
f 28/109/52 30/110/52 73/100/52
f 30/110/52 32/111/52 73/100/52
f 32/111/52 34/112/52 73/100/52
f 34/112/52 36/113/52 73/100/52
f 36/113/52 38/114/52 73/100/52
f 38/114/52 40/115/52 73/100/52
f 40/115/52 42/116/52 73/100/52
f 42/116/52 74/117/52 73/100/52
f 72/118/53 77/119/53 2/120/53
f 73/100/52 72/118/52 4/121/52
f 72/118/52 2/120/52 4/121/52
f 4/121/52 6/122/52 73/100/52
f 6/122/52 8/123/52 73/100/52
f 8/123/52 10/124/52 73/100/52
f 10/124/52 12/125/52 73/100/52
f 12/125/52 14/126/52 73/100/52
f 14/126/52 16/127/52 73/100/52
f 16/127/52 18/128/52 73/100/52
f 18/128/52 20/98/52 73/100/52
f 45/129/52 48/130/52 82/131/52
f 48/130/52 86/101/52 82/131/52
f 86/101/52 49/132/52 88/102/52
f 84/103/52 82/131/52 86/101/52
f 82/131/52 46/133/52 45/129/52
f 71/134/52 80/106/52 69/135/52
f 80/106/52 89/136/52 61/137/52
f 69/135/52 80/106/52 67/105/52
f 89/136/52 51/138/52 53/139/52
f 53/139/52 55/140/52 89/136/52
f 55/140/52 57/141/52 89/136/52
f 57/141/52 59/142/52 89/136/52
f 59/142/52 61/137/52 89/136/52
f 61/137/52 63/143/52 80/106/52
f 63/143/52 65/104/52 80/106/52
