# Blender v2.82 (sub 7) OBJ File: ''
# www.blender.org
mtllib lamp.mtl
o LampPole_01_0_0_node_LampPole_01_0_0
v -0.424264 34.000000 0.000006
v 0.000000 34.000000 0.424270
v -0.424264 35.000000 0.000006
v 0.000000 35.000000 0.424270
v 0.000000 35.000000 -0.424258
v 0.424264 35.000000 0.000006
v 0.000000 34.000000 -0.424258
v 0.424264 34.000000 0.000006
v 0.000000 34.000000 0.424270
v 0.424264 34.000000 0.000006
v 0.000000 35.000000 0.424270
v 0.424264 35.000000 0.000006
v 0.000000 34.000000 -0.424258
v -0.424264 34.000000 0.000006
v 0.000000 35.000000 -0.424258
v -0.424264 35.000000 0.000006
v -1.414210 33.400002 0.000005
v 0.000000 33.400002 1.414215
v -1.414210 34.000000 0.000006
v 0.000000 34.000000 1.414215
v 0.000000 34.000000 -1.414204
v 1.414210 34.000000 0.000006
v 0.000000 33.400002 -1.414204
v 1.414210 33.400002 0.000005
v 0.000000 33.400002 1.414215
v 1.414210 33.400002 0.000005
v 0.000000 34.000000 1.414215
v 1.414210 34.000000 0.000006
v 0.000000 33.400002 -1.414204
v -1.414210 33.400002 0.000005
v 0.000000 34.000000 -1.414204
v -1.414210 34.000000 0.000006
v -1.414210 29.400000 0.000005
v 0.000000 29.400000 1.414215
v -2.027500 33.400002 0.000005
v 0.000000 33.400002 2.027505
v 0.000000 33.400002 -2.027494
v 2.027500 33.400002 0.000005
v 0.000000 29.400000 -1.414205
v 1.414210 29.400000 0.000005
v 0.000000 29.400000 -1.414205
v 1.414210 29.400000 0.000005
v -1.414210 29.400000 0.000005
v 0.000000 29.400000 1.414215
v 0.000000 29.400000 1.414215
v 1.414210 29.400000 0.000005
v 0.000000 33.400002 2.027505
v 2.027500 33.400002 0.000005
v 0.000000 29.400000 -1.414205
v -1.414210 29.400000 0.000005
v 0.000000 33.400002 -2.027494
v -2.027500 33.400002 0.000005
v 0.390999 10.000000 -0.273147
v -0.192033 10.000000 -0.570217
v 0.390999 29.400000 -0.273144
v -0.192033 29.400000 -0.570214
v -0.192033 10.000000 -0.570217
v -0.654726 10.000000 -0.107524
v -0.192033 29.400000 -0.570214
v -0.654726 29.400000 -0.107521
v -0.654726 10.000000 -0.107524
v -0.357656 10.000000 0.475507
v -0.654726 29.400000 -0.107521
v -0.357656 29.400000 0.475510
v -0.357656 10.000000 0.475507
v 0.288632 10.000000 0.373144
v -0.357656 29.400000 0.475510
v 0.288632 29.400000 0.373147
v 0.288632 10.000000 0.373144
v 0.390999 10.000000 -0.273147
v 0.288632 29.400000 0.373147
v 0.390999 29.400000 -0.273144
v -0.948405 0.000000 -0.169855
v -0.502798 -0.000000 0.704693
v -0.948405 10.000000 -0.169853
v -0.502798 10.000000 0.704695
v -0.502798 -0.000000 0.704693
v 0.466636 -0.000000 0.551146
v -0.502798 10.000000 0.704695
v 0.466636 10.000000 0.551148
v 0.466636 -0.000000 0.551146
v 0.620186 0.000000 -0.418291
v 0.466636 10.000000 0.551148
v 0.620186 10.000000 -0.418289
v 0.620186 0.000000 -0.418291
v -0.254365 0.000000 -0.863896
v 0.620186 10.000000 -0.418289
v -0.254365 10.000000 -0.863894
v -0.254365 0.000000 -0.863896
v -0.948405 0.000000 -0.169855
v -0.254365 10.000000 -0.863894
v -0.948405 10.000000 -0.169853
vt 1.513260 0.750000
vt 1.986740 0.750000
vt 1.513260 1.000000
vt 1.986740 1.000000
vt 1.986740 1.000000
vt 1.513260 1.000000
vt 1.986740 0.750000
vt 1.513260 0.750000
vt 1.513260 0.750000
vt 1.986740 0.750000
vt 1.513260 1.000000
vt 1.986740 1.000000
vt 1.513260 0.750000
vt 1.986740 0.750000
vt 1.513260 1.000000
vt 1.986740 1.000000
vt 1.513260 0.750000
vt 1.986740 0.750000
vt 1.513260 1.000000
vt 1.986740 1.000000
vt 1.986740 1.000000
vt 1.513260 1.000000
vt 1.986740 0.750000
vt 1.513260 0.750000
vt 1.513260 0.750000
vt 1.986740 0.750000
vt 1.513260 1.000000
vt 1.986740 1.000000
vt 1.513260 0.750000
vt 1.986740 0.750000
vt 1.513260 1.000000
vt 1.986740 1.000000
vt 1.513260 0.000000
vt 1.986740 0.000000
vt 1.513260 1.000000
vt 1.986740 1.000000
vt 1.986740 1.000000
vt 1.513260 1.000000
vt 1.986740 0.000000
vt 1.513260 0.000000
vt 0.012311 -1.000000
vt 0.500000 -1.000000
vt 0.012311 1.000000
vt 0.500000 1.000000
vt 1.513260 0.000000
vt 1.986740 0.000000
vt 1.513260 1.000000
vt 1.986740 1.000000
vt 1.513260 0.000000
vt 1.986740 0.000000
vt 1.513260 1.000000
vt 1.986740 1.000000
vt 3.017050 -0.875000
vt 3.500000 -0.875000
vt 3.017050 1.000000
vt 3.500000 1.000000
vt 3.017050 -0.875000
vt 3.500000 -0.875000
vt 3.017050 1.000000
vt 3.500000 1.000000
vt 3.017050 -0.875000
vt 3.500000 -0.875000
vt 3.017050 1.000000
vt 3.500000 1.000000
vt 3.017050 -0.875000
vt 3.500000 -0.875000
vt 3.017050 1.000000
vt 3.500000 1.000000
vt 3.017050 -0.875000
vt 3.500000 -0.875000
vt 3.017050 1.000000
vt 3.500000 1.000000
vt 4.000000 -0.875000
vt 4.482950 -0.875000
vt 4.000000 1.000000
vt 4.482950 1.000000
vt 4.000000 -0.875000
vt 4.482950 -0.875000
vt 4.000000 1.000000
vt 4.482950 1.000000
vt 4.000000 -0.875000
vt 4.482950 -0.875000
vt 4.000000 1.000000
vt 4.482950 1.000000
vt 4.000000 -0.875000
vt 4.482950 -0.875000
vt 4.000000 1.000000
vt 4.482950 1.000000
vt 4.000000 -0.875000
vt 4.482950 -0.875000
vt 4.000000 1.000000
vt 4.482950 1.000000
vn -0.7071 -0.0000 0.7071
vn 0.7071 0.0000 -0.7071
vn 0.7071 -0.0000 0.7071
vn -0.7071 0.0000 -0.7071
vn -0.7030 -0.1078 0.7030
vn 0.7030 -0.1078 -0.7030
vn 0.0000 -1.0000 0.0000
vn 0.7030 -0.1078 0.7030
vn -0.7030 -0.1078 -0.7030
vn 0.4540 0.0000 -0.8910
vn -0.8910 0.0000 0.4540
vn 0.1564 0.0000 0.9877
vn 0.9877 0.0000 0.1564
usemtl mt_LampPole_mat
s off
f 1/1/1 2/2/1 3/3/1
f 2/2/1 4/4/1 3/3/1
f 5/5/2 6/6/2 7/7/2
f 6/6/2 8/8/2 7/7/2
f 9/9/3 10/10/3 11/11/3
f 10/10/3 12/12/3 11/11/3
f 13/13/4 14/14/4 15/15/4
f 14/14/4 16/16/4 15/15/4
f 17/17/1 18/18/1 19/19/1
f 18/18/1 20/20/1 19/19/1
f 21/21/2 22/22/2 23/23/2
f 22/22/2 24/24/2 23/23/2
f 25/25/3 26/26/3 27/27/3
f 26/26/3 28/28/3 27/27/3
f 29/29/4 30/30/4 31/31/4
f 30/30/4 32/32/4 31/31/4
f 33/33/5 34/34/5 35/35/5
f 34/34/5 36/36/5 35/35/5
f 37/37/6 38/38/6 39/39/6
f 38/38/6 40/40/6 39/39/6
f 41/41/7 42/42/7 43/43/7
f 42/42/7 44/44/7 43/43/7
f 45/45/8 46/46/8 47/47/8
f 46/46/8 48/48/8 47/47/8
f 49/49/9 50/50/9 51/51/9
f 50/50/9 52/52/9 51/51/9
s 1
f 53/53/10 54/54/10 55/55/10
f 54/54/10 56/56/10 55/55/10
f 57/57/4 58/58/4 59/59/4
f 58/58/4 60/60/4 59/59/4
f 61/61/11 62/62/11 63/63/11
f 62/62/11 64/64/11 63/63/11
f 65/65/12 66/66/12 67/67/12
f 66/66/12 68/68/12 67/67/12
f 69/69/13 70/70/13 71/71/13
f 70/70/13 72/72/13 71/71/13
f 73/73/11 74/74/11 75/75/11
f 74/74/11 76/76/11 75/75/11
f 77/77/12 78/78/12 79/79/12
f 78/78/12 80/80/12 79/79/12
f 81/81/13 82/82/13 83/83/13
f 82/82/13 84/84/13 83/83/13
f 85/85/10 86/86/10 87/87/10
f 86/86/10 88/88/10 87/87/10
f 89/89/4 90/90/4 91/91/4
f 90/90/4 92/92/4 91/91/4
