# Blender v2.82 (sub 7) OBJ File: ''
# www.blender.org
mtllib centro.mtl
o Bird
v 11.545100 8.016001 -3.214699
v 0.000000 7.900102 -7.906299
v 10.149100 14.086900 -1.767098
v 13.931300 14.086898 9.318102
v 16.020901 8.042098 9.403301
v 17.047600 1.967098 9.247800
v 14.737900 5.498100 -3.612599
v 16.907801 1.967101 -3.665000
v 13.186900 1.951302 -14.721800
v 10.738800 6.968202 -12.943299
v 0.000000 7.228804 -22.453197
v -10.738800 6.968202 -12.943299
v -11.545100 8.016001 -3.214699
v -10.149100 14.086900 -1.767098
v -13.931300 14.086898 9.318102
v -16.020901 8.042098 9.403301
v -17.047600 1.967098 9.247800
v -14.737900 5.498100 -3.612599
v -16.907801 1.967101 -3.665000
v -13.186900 1.951302 -14.721800
v -6.961300 6.618504 -23.473898
v -5.990300 1.967104 -24.876400
v 0.000000 11.631007 -45.521000
v 0.000000 -2.436996 -24.430500
v 5.990300 1.967104 -24.876400
v 0.000000 -4.905696 -23.650999
v -12.926700 -4.905698 -13.915101
v -16.290199 -4.905700 -3.376001
v -16.351400 -4.905702 8.769099
v -11.154000 -4.905704 19.669800
v -14.175700 -10.032901 7.436099
v -9.649500 -10.032903 17.379799
v 0.000000 -4.905704 23.896299
v 0.000000 -10.032903 20.056297
v -6.388300 -14.532902 13.520798
v 0.000000 -14.532903 15.298398
v 6.388300 -14.532902 13.520798
v 0.000000 -17.635002 7.661797
v 8.268500 -16.083900 2.133297
v 0.000000 -18.572300 -1.989803
v 7.980500 -15.605498 -10.516803
v 0.000000 -17.241898 -10.694803
v -7.980500 -15.605498 -10.516803
v -8.268500 -16.083900 2.133297
v -14.251300 -10.032900 -2.608202
v -11.390500 -10.032898 -12.385102
v -6.600600 -10.032897 -19.547901
v 0.000000 -14.532897 -16.442001
v 6.600600 -10.032897 -19.547901
v 11.390500 -10.032898 -12.385102
v 14.251300 -10.032900 -2.608202
v 16.290199 -4.905700 -3.376001
v 16.351400 -4.905702 8.769099
v 14.175700 -10.032901 7.436099
v 11.154000 -4.905704 19.669800
v 9.649500 -10.032903 17.379799
v 11.840700 1.967097 21.170500
v 12.926700 -4.905698 -13.915101
v 6.252100 -4.905696 -22.152399
v 0.000000 -10.032896 -21.240501
v -6.252100 -4.905696 -22.152399
v 0.000000 13.812401 -6.155397
v 0.000000 17.111799 -4.119397
v -4.512200 18.761499 -2.862597
v -8.459800 20.411100 1.821103
v -9.680700 20.411098 9.324203
v -6.903500 20.411098 17.016603
v -10.149100 14.086897 20.403301
v -11.626700 8.042096 21.177603
v -11.840700 1.967097 21.170500
v 0.000000 2.838896 25.988300
v 7.021300 8.042096 23.703503
v 11.626700 8.042096 21.177603
v 10.149100 14.086897 20.403301
v 6.961300 6.618504 -23.473898
v 9.078100 13.663096 22.341602
v 8.744100 12.374096 22.956701
v 9.346400 13.415796 21.033302
v 8.330700 15.250696 20.964502
v 8.345800 14.932996 22.391401
v 6.461300 15.937396 21.625101
v 7.026600 15.456097 22.762402
v 4.833200 15.073896 22.628302
v 5.954600 14.812097 23.528902
v 4.400100 13.165796 23.386301
v 5.561000 13.485296 24.014702
v 5.415800 11.330997 23.455202
v 6.352900 12.253196 24.094202
v 7.285200 10.644197 22.794502
v 7.612500 11.692296 23.593903
v 8.913300 11.507796 21.791403
v 7.503700 13.691196 23.577803
v -8.744100 12.374096 22.956701
v -9.078100 13.663096 22.341602
v -8.913300 11.507796 21.791403
v -7.285200 10.644197 22.794502
v -7.612500 11.692296 23.593903
v -6.352900 12.253196 24.094202
v -5.415800 11.330997 23.455202
v -4.400100 13.165796 23.386301
v -5.561000 13.485296 24.014702
v -5.954600 14.812097 23.528902
v -4.833200 15.073896 22.628302
v -6.461300 15.937396 21.625101
v -7.026600 15.456097 22.762402
v -8.345800 14.932996 22.391401
v -8.330700 15.250696 20.964502
v -9.346400 13.415796 21.033302
v -7.503700 13.691196 23.577803
v 0.000000 8.042094 34.390301
v 0.000000 13.215197 24.994902
v -7.021300 8.042096 23.703503
v 6.903500 20.411098 17.016603
v 0.000000 16.791796 23.375603
v 0.000000 20.411097 20.202904
v 8.459800 20.411100 1.821103
v 4.512200 18.761499 -2.862597
v 2.993900 21.625999 -5.715297
v 4.808800 24.765301 -2.108896
v 0.000000 26.500502 -7.305996
v 0.000000 21.013702 -6.774997
v -2.993900 21.625999 -5.715297
v -4.808800 24.765301 -2.108896
v 0.000000 30.153500 -4.739795
v 0.000000 26.739500 0.060804
v 5.700700 23.510399 6.146004
v 9.680700 20.411098 9.324203
v 3.617900 23.745499 13.487304
v 0.000000 23.842499 14.318503
v -3.617900 23.745499 13.487304
v -5.700700 23.510399 6.146004
v 0.000000 24.916597 9.324203
v 0.000000 25.108601 4.301604
vt 0.663800 0.486500
vt 0.662600 0.487600
vt 0.664200 0.379200
vt 0.667100 0.379200
vt 0.667100 0.486300
vt 0.667100 0.757800
vt 0.663700 0.485800
vt 0.663700 0.757800
vt 0.660600 0.621600
vt 0.661600 0.471700
vt 0.659400 0.469900
vt 0.661600 0.471700
vt 0.663800 0.486500
vt 0.664200 0.379200
vt 0.667100 0.379200
vt 0.667100 0.486300
vt 0.667100 0.757800
vt 0.663700 0.485800
vt 0.663700 0.757800
vt 0.660600 0.621600
vt 0.658900 0.485300
vt 0.657600 0.757800
vt 0.656700 0.449800
vt 0.657000 0.757800
vt 0.657600 0.757800
vt 0.657400 0.792600
vt 0.660700 0.792600
vt 0.663800 0.792600
vt 0.667000 0.792600
vt 0.669900 0.792600
vt 0.666600 0.818700
vt 0.669200 0.818700
vt 0.671000 0.792600
vt 0.669900 0.818700
vt 0.667800 0.841500
vt 0.668200 0.841500
vt 0.667800 0.841500
vt 0.666300 0.857200
vt 0.665000 0.849400
vt 0.664000 0.862000
vt 0.661800 0.846900
vt 0.661700 0.855200
vt 0.661800 0.846900
vt 0.665000 0.849400
vt 0.664000 0.818700
vt 0.661100 0.818700
vt 0.659100 0.818700
vt 0.659900 0.841500
vt 0.659100 0.818700
vt 0.661100 0.818700
vt 0.664000 0.818700
vt 0.663800 0.792600
vt 0.667000 0.792600
vt 0.666600 0.818700
vt 0.669900 0.792600
vt 0.669200 0.818700
vt 0.670200 0.757800
vt 0.660700 0.792600
vt 0.658000 0.792600
vt 0.658500 0.818700
vt 0.658000 0.792600
vt 0.663100 0.387700
vt 0.663700 0.312200
vt 0.664300 0.271500
vt 0.665000 0.230800
vt 0.667100 0.236800
vt 0.669100 0.236800
vt 0.670000 0.379200
vt 0.670200 0.486300
vt 0.670200 0.757800
vt 0.671500 0.757800
vt 0.670900 0.486300
vt 0.670200 0.486300
vt 0.670000 0.379200
vt 0.658900 0.485300
vt 0.428100 0.847500
vt 0.298400 0.541600
vt 0.463500 0.847800
vt 0.320300 1.187300
vt 0.294400 1.158600
vt -0.016900 1.329300
vt -0.016900 1.297900
vt -0.348300 1.195400
vt -0.316100 1.171300
vt -0.482300 0.847800
vt -0.448200 0.849000
vt -0.348300 0.519900
vt -0.329100 0.541900
vt -0.016900 0.382100
vt -0.016900 0.415600
vt 0.320300 0.519300
vt -0.016900 0.847800
vt -0.329100 0.541900
vt -0.448200 0.849000
vt -0.348300 0.519900
vt -0.016900 0.382100
vt -0.016900 0.415600
vt 0.298400 0.541600
vt 0.320300 0.519300
vt 0.463500 0.847800
vt 0.428100 0.847500
vt 0.294400 1.158600
vt 0.320300 1.187300
vt -0.016900 1.329300
vt -0.016900 1.297900
vt -0.316100 1.171300
vt -0.348300 1.195400
vt -0.482300 0.847800
vt -0.016900 0.847800
vt 0.916200 0.958000
vt 0.916200 0.423700
vt 0.921800 0.465100
vt 0.916200 0.423700
vt 0.669100 0.236800
vt 0.670600 0.308000
vt 0.670000 0.236800
vt 0.671200 0.379200
vt 0.670900 0.486300
vt 0.665000 0.230800
vt 0.664300 0.271500
vt 0.664600 0.233800
vt 0.664100 0.164600
vt 0.663500 0.182700
vt 0.664300 0.236800
vt 0.664600 0.233800
vt 0.664100 0.164600
vt 0.662700 0.128500
vt 0.664000 0.137200
vt 0.666000 0.188600
vt 0.667100 0.236800
vt 0.668200 0.188600
vt 0.668200 0.188600
vt 0.668200 0.188600
vt 0.666000 0.188600
vt 0.667100 0.166200
vt 0.665300 0.145800
vt 0.910600 0.460100
vn 0.6806 0.6488 -0.3403
vn -0.0000 0.9081 -0.4187
vn 0.5951 0.3877 -0.7039
vn 0.9077 0.4193 0.0144
vn 0.9712 0.2381 0.0063
vn 0.9682 0.1722 0.1816
vn 0.7084 0.7009 -0.0834
vn 0.9704 0.2118 -0.1159
vn 0.7449 0.6226 -0.2398
vn 0.3106 0.9449 -0.1035
vn 0.0000 0.9994 0.0335
vn -0.3106 0.9449 -0.1035
vn -0.6806 0.6488 -0.3403
vn -0.5951 0.3877 -0.7039
vn -0.9077 0.4193 0.0144
vn -0.9712 0.2381 0.0063
vn -0.9682 0.1722 0.1816
vn -0.7084 0.7009 -0.0834
vn -0.9704 0.2118 -0.1159
vn -0.7449 0.6226 -0.2398
vn -0.6357 0.7434 -0.2080
vn -0.7038 -0.2503 -0.6649
vn -0.0000 0.3009 -0.9537
vn 0.0000 -0.5781 -0.8160
vn 0.7038 -0.2503 -0.6649
vn -0.0000 -0.3327 -0.9430
vn -0.8936 -0.2443 -0.3765
vn -0.9644 -0.2388 -0.1135
vn -0.9415 -0.2654 0.2077
vn -0.7081 -0.3071 0.6359
vn -0.8274 -0.5295 0.1873
vn -0.4670 -0.6092 0.6410
vn -0.0000 -0.4068 0.9135
vn 0.0000 -0.6657 0.7462
vn -0.3216 -0.8653 0.3844
vn 0.0000 -0.8417 0.5399
vn 0.3216 -0.8653 0.3844
vn 0.0000 -0.9707 0.2402
vn 0.3169 -0.9466 0.0596
vn 0.0000 -0.9989 -0.0476
vn 0.3183 -0.9364 -0.1477
vn -0.0000 -0.9690 -0.2472
vn -0.3183 -0.9364 -0.1477
vn -0.3169 -0.9466 0.0596
vn -0.8713 -0.4823 -0.0908
vn -0.8049 -0.4973 -0.3237
vn -0.4774 -0.6016 -0.6404
vn 0.2263 -0.7984 -0.5580
vn 0.4774 -0.6016 -0.6404
vn 0.8049 -0.4973 -0.3237
vn 0.8713 -0.4823 -0.0908
vn 0.9644 -0.2388 -0.1135
vn 0.9415 -0.2654 0.2077
vn 0.8274 -0.5295 0.1873
vn 0.7081 -0.3071 0.6359
vn 0.4670 -0.6092 0.6410
vn 0.6017 -0.1249 0.7889
vn 0.8936 -0.2443 -0.3765
vn 0.6104 -0.3262 -0.7218
vn 0.0000 -0.5929 -0.8053
vn -0.6104 -0.3262 -0.7218
vn 0.0000 0.4167 -0.9090
vn 0.0000 0.0146 -0.9999
vn -0.5534 -0.0336 -0.8322
vn -0.8014 0.4907 -0.3421
vn -0.7123 0.6996 0.0571
vn -0.4867 0.7038 0.5175
vn -0.5824 0.4129 0.7003
vn -0.7878 0.1511 0.5971
vn -0.6017 -0.1249 0.7889
vn 0.0000 -0.1811 0.9835
vn 0.4291 0.1103 0.8965
vn 0.7878 0.1511 0.5971
vn 0.5824 0.4129 0.7003
vn 0.6357 0.7434 -0.2080
vn -0.0000 -0.4013 -0.9159
vn 0.8302 0.2290 0.5083
vn 0.7394 -0.1449 0.6575
vn 0.9672 0.1844 0.1748
vn 0.6679 0.7259 0.1645
vn 0.6259 0.5875 0.5129
vn 0.1170 0.9233 0.3658
vn 0.2577 0.7265 0.6370
vn -0.3644 0.6627 0.6542
vn -0.0553 0.5458 0.8361
vn -0.4904 0.0951 0.8663
vn -0.1512 0.1689 0.9740
vn -0.1925 -0.4472 0.8735
vn 0.0582 -0.1865 0.9807
vn 0.3598 -0.6438 0.6753
vn 0.4212 -0.3286 0.8454
vn 0.8398 -0.3840 0.3837
vn 0.4045 0.2371 0.8833
vn -0.7394 -0.1449 0.6575
vn -0.8301 0.2290 0.5083
vn -0.8398 -0.3840 0.3837
vn -0.3598 -0.6438 0.6753
vn -0.4212 -0.3286 0.8454
vn -0.0582 -0.1865 0.9807
vn 0.1925 -0.4472 0.8735
vn 0.4904 0.0951 0.8663
vn 0.1512 0.1689 0.9740
vn 0.0553 0.5458 0.8361
vn 0.3644 0.6627 0.6542
vn -0.1170 0.9233 0.3658
vn -0.2577 0.7265 0.6370
vn -0.6259 0.5875 0.5129
vn -0.6679 0.7259 0.1645
vn -0.9672 0.1844 0.1748
vn -0.4045 0.2371 0.8833
vn 0.0000 0.8760 0.4823
vn 0.5918 0.7061 0.3888
vn -0.5918 0.7061 0.3888
vn 0.4867 0.7038 0.5175
vn -0.0000 0.5695 0.8220
vn -0.0000 0.7952 0.6063
vn 0.0000 0.3621 0.9321
vn -0.4291 0.1103 0.8965
vn 0.8014 0.4907 -0.3421
vn 0.5534 -0.0336 -0.8322
vn 0.6670 -0.0653 -0.7422
vn 0.8070 0.4522 -0.3798
vn -0.0000 0.2619 -0.9651
vn 0.0000 -0.3433 -0.9392
vn -0.6670 -0.0653 -0.7422
vn -0.8070 0.4522 -0.3798
vn 0.0001 0.9991 -0.0426
vn 0.0000 0.9222 0.3868
vn 0.6186 0.7759 0.1236
vn -0.0000 0.9991 -0.0426
vn 0.4875 0.8715 0.0530
vn 0.7123 0.6996 0.0571
vn 0.3192 0.9050 0.2812
vn -0.0000 0.9326 0.3610
vn -0.3192 0.9050 0.2812
vn -0.4875 0.8715 0.0530
vn 0.0000 0.9922 0.1247
vn 0.0000 0.9898 0.1425
vn -0.6186 0.7759 0.1236
vn 0.0000 -0.8502 0.5265
vn 0.6253 -0.6634 0.4109
vn -0.6253 -0.6634 0.4109
usemtl BirdBodyMat00
s 1
f 1/1/1 2/2/2 3/3/3
f 1/1/1 3/3/3 4/4/4
f 5/5/5 1/1/1 4/4/4
f 6/6/6 1/1/1 5/5/5
f 6/6/6 7/7/7 1/1/1
f 7/7/7 6/6/6 8/8/8
f 9/9/9 7/7/7 8/8/8
f 7/7/7 9/9/9 10/10/10
f 10/10/10 1/1/1 7/7/7
f 2/2/2 1/1/1 10/10/10
f 2/2/2 10/10/10 11/11/11
f 12/12/12 2/2/2 11/11/11
f 2/2/2 12/12/12 13/13/13
f 13/13/13 14/14/14 2/2/2
f 15/15/15 14/14/14 13/13/13
f 16/16/16 15/15/15 13/13/13
f 17/17/17 16/16/16 13/13/13
f 17/17/17 13/13/13 18/18/18
f 18/18/18 19/19/19 17/17/17
f 20/20/20 19/19/19 18/18/18
f 18/18/18 12/12/12 20/20/20
f 12/12/12 18/18/18 13/13/13
f 20/20/20 12/12/12 21/21/21
f 21/21/21 22/22/22 20/20/20
f 22/22/22 21/21/21 23/23/23
f 24/24/24 22/22/22 23/23/23
f 24/24/24 23/23/23 25/25/25
f 25/25/25 26/26/26 24/24/24
f 26/26/26 22/22/22 24/24/24
f 27/27/27 20/20/20 22/22/22
f 19/19/19 20/20/20 27/27/27
f 28/28/28 19/19/19 27/27/27
f 17/17/17 19/19/19 28/28/28
f 29/29/29 17/17/17 28/28/28
f 30/30/30 17/17/17 29/29/29
f 30/30/30 29/29/29 31/31/31
f 32/32/32 30/30/30 31/31/31
f 32/32/32 33/33/33 30/30/30
f 34/34/34 33/33/33 32/32/32
f 34/34/34 32/32/32 35/35/35
f 36/36/36 34/34/34 35/35/35
f 36/36/36 37/37/37 34/34/34
f 38/38/38 37/37/37 36/36/36
f 38/38/38 39/39/39 37/37/37
f 40/40/40 39/39/39 38/38/38
f 40/40/40 41/41/41 39/39/39
f 40/40/40 42/42/42 41/41/41
f 40/40/40 43/43/43 42/42/42
f 40/40/40 44/44/44 43/43/43
f 40/40/40 38/38/38 44/44/44
f 38/38/38 35/35/35 44/44/44
f 38/38/38 36/36/36 35/35/35
f 35/35/35 32/32/32 31/31/31
f 35/35/35 31/31/31 44/44/44
f 44/44/44 31/31/31 45/45/45
f 44/44/44 45/45/45 43/43/43
f 43/43/43 45/45/45 46/46/46
f 43/43/43 46/46/46 47/47/47
f 43/43/43 47/47/47 48/48/48
f 43/43/43 48/48/48 42/42/42
f 41/41/41 42/42/42 48/48/48
f 41/41/41 48/48/48 49/49/49
f 41/41/41 49/49/49 50/50/50
f 51/51/51 41/41/41 50/50/50
f 51/51/51 50/50/50 52/52/52
f 51/51/51 52/52/52 53/53/53
f 54/54/54 51/51/51 53/53/53
f 54/54/54 53/53/53 55/55/55
f 56/56/56 54/54/54 55/55/55
f 33/33/33 56/56/56 55/55/55
f 57/57/57 33/33/33 55/55/55
f 55/55/55 6/6/6 57/57/57
f 55/55/55 53/53/53 6/6/6
f 53/53/53 52/52/52 6/6/6
f 52/52/52 8/8/8 6/6/6
f 52/52/52 58/58/58 8/8/8
f 50/50/50 58/58/58 52/52/52
f 50/50/50 49/49/49 58/58/58
f 49/49/49 59/59/59 58/58/58
f 49/49/49 60/60/60 59/59/59
f 49/49/49 48/48/48 60/60/60
f 47/47/47 60/60/60 48/48/48
f 47/47/47 61/61/61 60/60/60
f 27/27/27 61/61/61 47/47/47
f 46/46/46 27/27/27 47/47/47
f 28/28/28 27/27/27 46/46/46
f 45/45/45 28/28/28 46/46/46
f 29/29/29 28/28/28 45/45/45
f 31/31/31 29/29/29 45/45/45
f 2/2/2 62/62/62 3/3/3
f 14/14/14 62/62/62 2/2/2
f 14/14/14 63/63/63 62/62/62
f 14/14/14 64/64/64 63/63/63
f 14/14/14 65/65/65 64/64/64
f 66/66/66 65/65/65 14/14/14
f 15/15/15 66/66/66 14/14/14
f 15/15/15 67/67/67 66/66/66
f 68/68/68 67/67/67 15/15/15
f 68/68/68 15/15/15 16/16/16
f 69/69/69 68/68/68 16/16/16
f 17/17/17 69/69/69 16/16/16
f 17/17/17 70/70/70 69/69/69
f 30/30/30 70/70/70 17/17/17
f 33/33/33 70/70/70 30/30/30
f 71/71/71 70/70/70 33/33/33
f 71/71/71 33/33/33 57/57/57
f 71/71/71 57/57/57 72/72/72
f 72/72/72 57/57/57 73/73/73
f 74/74/74 72/72/72 73/73/73
f 73/73/73 5/5/5 74/74/74
f 6/6/6 5/5/5 73/73/73
f 6/6/6 73/73/73 57/57/57
f 9/9/9 75/75/75 10/10/10
f 75/75/75 9/9/9 25/25/25
f 25/25/25 23/23/23 75/75/75
f 11/11/11 75/75/75 23/23/23
f 11/11/11 10/10/10 75/75/75
f 21/21/21 11/11/11 23/23/23
f 11/11/11 21/21/21 12/12/12
f 58/58/58 9/9/9 8/8/8
f 58/58/58 25/25/25 9/9/9
f 58/58/58 59/59/59 25/25/25
f 59/59/59 26/26/76 25/25/25
f 60/60/60 26/26/76 59/59/59
f 61/61/61 26/26/76 60/60/60
f 61/61/61 22/22/22 26/26/76
f 27/27/27 22/22/22 61/61/61
f 39/39/39 41/41/41 51/51/51
f 39/39/39 51/51/51 54/54/54
f 37/37/37 39/39/39 54/54/54
f 37/37/37 54/54/54 56/56/56
f 37/37/37 56/56/56 34/34/34
f 34/34/34 56/56/56 33/33/33
f 76/76/77 77/77/78 78/78/79
f 76/76/77 78/78/79 79/79/80
f 80/80/81 76/76/77 79/79/80
f 80/80/81 79/79/80 81/81/82
f 82/82/83 80/80/81 81/81/82
f 82/82/83 81/81/82 83/83/84
f 84/84/85 82/82/83 83/83/84
f 84/84/85 83/83/84 85/85/86
f 86/86/87 84/84/85 85/85/86
f 86/86/87 85/85/86 87/87/88
f 88/88/89 86/86/87 87/87/88
f 88/88/89 87/87/88 89/89/90
f 90/90/91 88/88/89 89/89/90
f 77/77/78 90/90/91 89/89/90
f 91/91/92 77/77/78 89/89/90
f 77/77/78 91/91/92 78/78/79
f 76/76/77 92/92/93 77/77/78
f 80/80/81 92/92/93 76/76/77
f 82/82/83 92/92/93 80/80/81
f 84/84/85 92/92/93 82/82/83
f 86/86/87 92/92/93 84/84/85
f 88/88/89 92/92/93 86/86/87
f 90/90/91 92/92/93 88/88/89
f 77/77/78 92/92/93 90/90/91
f 93/93/94 94/94/95 95/95/96
f 93/93/94 95/95/96 96/96/97
f 97/97/98 93/93/94 96/96/97
f 98/98/99 97/97/98 96/96/97
f 99/99/100 98/98/99 96/96/97
f 98/98/99 99/99/100 100/100/101
f 101/101/102 98/98/99 100/100/101
f 102/102/103 101/101/102 100/100/101
f 103/103/104 102/102/103 100/100/101
f 102/102/103 103/103/104 104/104/105
f 105/105/106 102/102/103 104/104/105
f 106/106/107 105/105/106 104/104/105
f 107/107/108 106/106/107 104/104/105
f 106/106/107 107/107/108 108/108/109
f 94/94/95 106/106/107 108/108/109
f 94/94/95 108/108/109 95/95/96
f 94/94/95 93/93/94 109/109/110
f 106/106/107 94/94/95 109/109/110
f 105/105/106 106/106/107 109/109/110
f 102/102/103 105/105/106 109/109/110
f 101/101/102 102/102/103 109/109/110
f 98/98/99 101/101/102 109/109/110
f 97/97/98 98/98/99 109/109/110
f 93/93/94 97/97/98 109/109/110
f 110/110/111 72/111/112 111/112/111
f 110/110/111 111/112/111 112/113/113
f 5/5/5 4/4/4 74/74/74
f 74/74/74 4/4/4 113/114/114
f 114/115/115 74/74/74 113/114/114
f 114/115/115 113/114/114 115/116/116
f 114/115/115 115/116/116 67/67/67
f 114/115/115 67/67/67 68/68/68
f 111/117/117 114/115/115 68/68/68
f 112/118/118 111/117/117 68/68/68
f 112/118/118 68/68/68 69/69/69
f 70/70/70 112/118/118 69/69/69
f 71/71/71 112/118/118 70/70/70
f 116/119/119 117/120/120 118/121/121
f 118/121/121 119/122/122 116/119/119
f 120/123/123 119/122/122 118/121/121
f 120/123/123 118/121/121 121/124/124
f 120/123/123 121/124/124 122/125/125
f 120/123/123 122/125/125 123/126/126
f 124/127/127 120/123/123 123/126/126
f 124/127/127 119/122/122 120/123/123
f 125/128/128 119/122/129 124/127/130
f 126/129/131 119/122/129 125/128/128
f 126/129/131 116/119/119 119/122/129
f 127/130/132 116/119/119 126/129/131
f 3/3/3 116/119/119 127/130/132
f 4/4/4 3/3/3 127/130/132
f 113/114/114 4/4/4 127/130/132
f 113/114/114 127/130/132 128/131/133
f 115/116/116 113/114/114 128/131/133
f 115/116/116 128/131/133 129/132/134
f 115/116/116 129/132/134 130/133/135
f 115/116/116 130/133/135 67/67/67
f 67/67/67 130/133/135 66/66/66
f 130/133/135 131/134/136 66/66/66
f 132/135/137 131/134/136 130/133/135
f 131/134/136 132/135/137 133/136/138
f 131/134/136 133/136/138 125/128/128
f 131/134/136 125/128/128 123/126/139
f 131/134/136 123/126/139 65/65/65
f 66/66/66 131/134/136 65/65/65
f 65/65/65 122/125/125 64/64/64
f 122/125/125 65/65/65 123/126/126
f 122/125/125 121/124/124 64/64/64
f 121/124/124 63/63/63 64/64/64
f 117/120/120 63/63/63 121/124/124
f 3/3/3 63/63/63 117/120/120
f 3/3/3 62/62/62 63/63/63
f 3/3/3 117/120/120 116/119/119
f 118/121/121 117/120/120 121/124/124
f 128/131/133 127/130/132 126/129/131
f 132/135/137 128/131/133 126/129/131
f 126/129/131 133/136/138 132/135/137
f 126/129/131 125/128/128 133/136/138
f 125/128/128 124/127/130 123/126/139
f 71/137/140 72/111/141 110/110/140
f 71/137/140 110/110/140 112/113/142
f 128/131/133 132/135/137 129/132/134
f 130/133/135 129/132/134 132/135/137
f 111/117/117 72/72/72 74/74/74
f 111/117/117 74/74/74 114/115/115
