# Blender v2.82 (sub 7) OBJ File: ''
# www.blender.org
mtllib der.mtl.mtl
o der_Bird.002
v -28.597252 0.008342 -15.449224
v -25.593250 -2.560659 0.612176
v -32.845650 -1.914760 2.315376
v -18.340851 0.008241 -18.197424
v -25.593250 2.577240 0.612176
v -32.845650 1.931340 2.315376
v -25.593250 0.008341 2.495676
v -32.845650 0.008341 4.198876
v -38.853752 0.008341 6.253676
v -36.105553 0.008341 -7.941024
v -18.340851 0.008341 2.013076
v -18.340851 2.886041 0.129676
v -11.088451 0.008341 2.495676
v -11.088451 2.577240 0.612176
v -3.836050 1.904540 2.315376
v -0.576151 0.008341 -7.941024
v -8.084452 0.008342 -15.449224
v -11.088451 -2.560659 0.612176
v -18.340851 -2.869359 0.129676
v -3.836050 0.008341 4.198876
v -0.513151 0.008341 2.434376
v -3.836050 -1.887960 2.315376
v 0.350349 0.008341 -1.534824
vt 0.648500 0.248300
vt 0.638400 0.276400
vt 0.638400 0.208600
vt 0.648500 0.344300
vt 0.658700 0.276400
vt 0.658700 0.208600
vt 0.648500 0.276400
vt 0.648500 0.208600
vt 0.648500 0.152400
vt 0.648500 0.178100
vt 0.648500 0.344300
vt 0.658700 0.344300
vt 0.648500 0.412100
vt 0.658700 0.412100
vt 0.658700 0.480000
vt 0.648500 0.510400
vt 0.648500 0.440200
vt 0.638400 0.412100
vt 0.638400 0.344300
vt 0.648500 0.480000
vt 0.648500 0.511000
vt 0.638400 0.480000
vt 0.648500 0.519100
vn -0.5000 -0.0000 -0.8660
vn 0.0524 -0.9355 0.3495
vn 0.0115 -0.9048 0.4256
vn -0.0000 0.0000 -1.0000
vn 0.0524 0.9355 0.3495
vn 0.0115 0.9048 0.4256
vn 0.1484 -0.0000 0.9889
vn 0.2767 -0.0000 0.9610
vn -0.2077 -0.0000 0.9782
vn -0.8819 0.0000 -0.4715
vn -0.0000 -0.0000 1.0000
vn 0.0000 0.9568 0.2906
vn -0.1484 0.0000 0.9889
vn -0.0524 0.9355 0.3495
vn 0.2807 0.8926 0.3527
vn 0.8965 -0.0000 -0.4431
vn 0.5000 -0.0000 -0.8660
vn -0.0524 -0.9355 0.3495
vn -0.0000 -0.9569 0.2906
vn 0.1345 0.0000 0.9909
vn 0.7503 0.0000 0.6611
vn 0.2807 -0.8926 0.3527
vn 0.9995 0.0000 -0.0308
usemtl BirdBodyMat00
s 1
f 1/1/1 2/2/2 3/3/3
f 1/1/1 4/4/4 2/2/2
f 1/1/1 5/5/5 4/4/4
f 5/5/5 1/1/1 6/6/6
f 7/7/7 5/5/5 6/6/6
f 8/8/8 7/7/7 6/6/6
f 8/8/8 3/3/3 7/7/7
f 8/8/8 9/9/9 3/3/3
f 8/8/8 6/6/6 9/9/9
f 6/6/6 10/10/10 9/9/9
f 1/1/1 10/10/10 6/6/6
f 10/10/10 1/1/1 3/3/3
f 10/10/10 3/3/3 9/9/9
f 3/3/3 2/2/2 7/7/7
f 11/11/11 7/7/7 2/2/2
f 11/11/11 12/12/12 7/7/7
f 12/12/12 11/11/11 13/13/13
f 14/14/14 12/12/12 13/13/13
f 15/15/15 14/14/14 13/13/13
f 16/16/16 14/14/14 15/15/15
f 17/17/17 14/14/14 16/16/16
f 17/17/17 16/16/16 18/18/18
f 17/17/17 18/18/18 19/19/19
f 17/17/17 19/19/19 4/4/4
f 4/4/4 12/12/12 17/17/17
f 5/5/5 12/12/12 4/4/4
f 12/12/12 5/5/5 7/7/7
f 17/17/17 12/12/12 14/14/14
f 20/20/20 21/21/21 15/15/15
f 22/22/22 21/21/21 20/20/20
f 22/22/22 20/20/20 18/18/18
f 16/16/16 22/22/22 18/18/18
f 16/16/16 23/23/23 22/22/22
f 23/23/23 16/16/16 15/15/15
f 23/23/23 15/15/15 21/21/21
f 23/23/23 21/21/21 22/22/22
f 20/20/20 15/15/15 13/13/13
f 20/20/20 13/13/13 18/18/18
f 18/18/18 13/13/13 19/19/19
f 13/13/13 11/11/11 19/19/19
f 19/19/19 11/11/11 2/2/2
f 4/4/4 19/19/19 2/2/2
