# Blender v2.82 (sub 7) OBJ File: 'CrsahAkuAku.blend'
# www.blender.org
mtllib BrazoDerecho.mtl
v 0.539076 -0.688190 -2.558957
v 1.443677 -1.497489 -0.896257
v -3.835924 -4.418189 -2.332557
v -2.576523 -5.129989 -2.461557
v -2.132123 -5.744689 -1.558257
v -2.568624 -5.323688 -0.331757
v -3.836524 -4.618188 -0.222557
v -4.548523 -4.493789 -1.205757
v 1.113577 -1.769187 1.229243
v 0.097077 -0.660487 2.390743
v -0.935923 0.625413 2.428843
v -1.535023 1.525411 1.262643
v -1.152223 -3.233088 -2.397157
v -2.793423 -2.286189 -2.017457
v -0.567124 1.162213 -1.883057
v -0.467723 -3.697988 -1.139257
v -1.165023 -3.309588 0.359943
v -3.664923 -1.889190 -0.224957
v -2.818723 -2.332589 0.755843
vt 0.000000 0.000000
vt 1.000000 0.000000
vt 1.000000 -1.000000
vt 0.000000 -1.000000
vt 0.000000 0.000000
vt 1.000000 -1.000000
vt 0.000000 -1.000000
vt 0.000000 0.000000
vt 1.000000 0.000000
vt 1.000000 -1.000000
vt 0.000000 0.000000
vt 1.000000 0.000000
vt 1.000000 -1.000000
vt 0.000000 -1.000000
vt 0.000000 0.000000
vt 1.000000 -1.000000
vt 0.000000 -1.000000
vt 0.000000 0.000000
vt 1.000000 0.000000
vt 1.000000 -1.000000
vt 1.000000 0.000000
vt 1.000000 -1.000000
vt 0.000000 -1.000000
vt 1.000000 0.000000
vt 1.000000 -1.000000
vt 0.000000 -1.000000
vt 0.000000 0.000000
vt 1.000000 0.000000
vt 1.000000 -1.000000
vt 0.000000 -1.000000
vt 1.000000 0.000000
vt 1.000000 -1.000000
vt 0.000000 -1.000000
vt 0.000000 0.000000
vt 1.000000 0.000000
vt 1.000000 -1.000000
vt 0.000000 -1.000000
vt 0.000000 0.000000
vt 1.000000 0.000000
vt 1.000000 -1.000000
vt 0.000000 -1.000000
vt 1.000000 0.000000
vn 0.3952 0.2083 -0.8947
vn 0.2365 -0.1510 -0.9598
vn -0.5616 0.3925 -0.7284
vn 0.1205 0.8455 -0.5202
vn 0.7264 -0.6479 -0.2294
vn 0.9827 -0.0352 -0.1820
vn 0.8125 -0.2986 0.5006
vn 0.2179 -0.6242 0.7502
vn -0.9013 0.2935 0.3186
vn -0.3605 -0.2245 0.9053
vn 0.1057 0.4846 0.8683
vn 0.0097 0.9530 0.3029
vn 0.4336 -0.0011 0.9011
vn -0.9655 -0.2596 -0.0203
vn -0.5769 -0.5672 0.5877
vn -0.6748 -0.2318 -0.7006
vn 0.0145 -0.6808 -0.7323
vn 0.1886 -0.9759 -0.1098
vn 0.0499 -0.8476 0.5282
usemtl Tex_0008_0_png
s 1
f 1/1/1 13/2/2 14/3/3
f 1/1/1 14/3/3 15/4/4
f 16/5/5 13/2/2 1/6/1
f 16/5/5 1/6/1 2/7/6
f 9/8/7 17/9/8 16/10/5
f 9/8/7 16/10/5 2/7/6
f 18/11/9 19/12/10 11/13/11
f 18/11/9 11/13/11 12/14/12
f 11/15/11 19/12/10 17/16/8
f 11/15/11 17/16/8 10/17/13
f 14/18/3 18/19/9 12/20/12
f 14/18/3 12/20/12 15/4/4
f 18/11/9 8/21/14 7/22/15
f 18/11/9 7/22/15 19/23/10
f 14/18/3 3/24/16 8/25/14
f 14/18/3 8/25/14 18/26/9
f 13/27/2 4/28/17 3/29/16
f 13/27/2 3/29/16 14/30/3
f 16/5/5 5/31/18 4/32/17
f 16/5/5 4/32/17 13/33/2
f 17/34/8 6/35/19 5/36/18
f 17/34/8 5/36/18 16/37/5
f 19/38/10 7/39/15 6/40/19
f 19/38/10 6/40/19 17/41/8
f 9/8/7 10/42/13 17/16/8
f 1/1/1 15/4/4 12/20/12 11/13/11 10/17/13 9/8/7 2/7/6
f 3/24/16 4/32/17 5/36/18 6/40/19 7/22/15 8/25/14
