# Blender v2.82 (sub 7) OBJ File: 'CrsahAkuAku.blend'
# www.blender.org
mtllib CejasAku.mtl
o CejasAku_AkuAku.001
v 6.152094 41.289574 19.041451
v 6.634794 43.961277 18.914150
v 5.639694 43.226578 20.768650
v 5.526394 41.902878 20.872751
v 0.348694 40.660576 19.036652
v 0.280694 42.435875 19.009851
v 0.802294 40.906174 19.819151
v 0.968594 42.050076 19.836250
v -6.387406 43.325275 20.987751
v -7.100006 44.109776 19.102951
v -7.562706 41.194077 18.898151
v -6.778506 41.624374 20.946251
v -0.393405 44.159279 19.330151
v -0.651406 42.100376 19.062551
v -1.261205 43.290878 20.087151
v -1.218806 42.378876 20.108749
vt 0.006600 0.990800
vt 0.025300 0.883900
vt 0.135600 0.908800
vt 0.125000 0.993000
vt 0.127500 0.988800
vt 0.127500 0.911300
vt 0.408800 0.911300
vt 0.408800 0.988800
vt 0.416700 0.996300
vt 0.409900 0.911700
vt 0.505400 0.902900
vt 0.506400 0.964000
vt 0.077900 0.993500
vt 0.415400 0.997300
vt 0.136800 0.909000
vt 0.409300 0.911000
vt 0.416700 0.996300
vt 0.125000 0.993000
vt 0.115100 0.912400
vt 0.011000 0.871100
vt 0.003800 0.992200
vt 0.100600 0.984400
vt 0.408800 0.911300
vt 0.127500 0.911300
vt 0.127500 0.988800
vt 0.408800 0.988800
vt 0.505400 0.902900
vt 0.418700 0.918800
vt 0.450700 0.990800
vt 0.523600 0.994000
vt 0.451600 0.997300
vt 0.101500 0.983600
vt 0.450700 0.990800
vt 0.414900 0.919300
vt 0.132500 0.913400
vt 0.100600 0.984400
vn 0.6339 -0.6615 -0.4008
vn 0.6707 0.6439 -0.3683
vn 0.3501 0.5224 0.7775
vn 0.3985 -0.4106 0.8201
vn -0.6529 -0.6711 -0.3511
vn -0.7732 0.5412 -0.3304
vn -0.3900 -0.5736 0.7204
vn -0.4521 0.3642 0.8142
vn -0.3541 0.4562 0.8164
vn -0.6007 0.7034 -0.3799
vn -0.6847 -0.5815 -0.4394
vn -0.4552 -0.5061 0.7326
vn 0.7408 0.6519 -0.1621
vn 0.6913 -0.5735 -0.4396
vn 0.3396 0.2606 0.9037
vn 0.4502 -0.4727 0.7575
usemtl Material__25
s 1
f 1/1/1 2/2/2 3/3/3
f 1/1/1 3/3/3 4/4/4
f 5/5/5 6/6/6 2/7/2
f 5/5/5 2/7/2 1/8/1
f 7/9/7 8/10/8 6/11/6
f 7/9/7 6/11/6 5/12/5
f 4/4/4 3/3/3 8/10/8
f 4/4/4 8/10/8 7/9/7
f 3/3/3 2/13/2 6/14/6
f 3/3/3 6/14/6 8/10/8
f 4/15/4 7/16/7 5/17/5
f 4/15/4 5/17/5 1/18/1
f 9/19/9 10/20/10 11/21/11
f 9/19/9 11/21/11 12/22/12
f 10/23/10 13/24/13 14/25/14
f 10/23/10 14/25/14 11/26/11
f 13/27/13 15/28/15 16/29/16
f 13/27/13 16/29/16 14/30/14
f 15/28/15 9/19/9 12/22/12
f 15/28/15 12/22/12 16/29/16
f 13/31/13 10/32/10 9/19/9
f 13/31/13 9/19/9 15/28/15
f 14/33/14 16/34/16 12/35/12
f 14/33/14 12/35/12 11/36/11
