# Blender v2.82 (sub 7) OBJ File: 'CrsahAkuAku.blend'
# www.blender.org
mtllib CodoIzq.mtl
v 0.530355 0.324770 1.129326
v 1.233955 0.490271 0.146126
v 0.518155 0.524370 -0.980674
v -0.697845 -0.259229 -1.109674
v -1.105844 -0.898729 -0.206374
v -0.694445 -0.453131 1.020126
v 1.416655 -0.866329 -1.107874
v -0.244845 -1.650730 -1.252074
v -0.822845 -2.341629 -0.118475
v -0.231945 -1.837031 1.385925
v 1.423855 -1.071930 1.480826
v 2.274255 -1.016430 0.261926
v 2.705455 -7.978529 -0.570876
v 3.307355 -7.851429 -0.805175
v 2.744855 -7.795130 0.048024
v 3.254355 -7.450930 0.396825
v 3.861055 -7.418730 0.128825
v 3.891255 -7.634230 -0.575375
vt 0.000000 0.000000
vt 0.000000 0.000000
vt 0.000000 0.000000
vt 0.000000 0.000000
vt 0.000000 0.000000
vt 0.000000 0.000000
vt 0.000000 0.000000
vt 0.000000 0.000000
vt 1.000000 0.000000
vt 1.000000 -1.000000
vt 0.000000 -1.000000
vt 0.000000 0.000000
vt 1.000000 0.000000
vt 1.000000 -1.000000
vt 0.000000 -1.000000
vt 0.000000 0.000000
vt 1.000000 0.000000
vt 1.000000 -1.000000
vt 0.000000 -1.000000
vt 0.000000 0.000000
vt 1.000000 0.000000
vt 1.000000 -1.000000
vt 0.000000 -1.000000
vt 1.000000 0.000000
vt 1.000000 -1.000000
vt 0.000000 -1.000000
vt 0.000000 0.000000
vt 1.000000 0.000000
vt 1.000000 -1.000000
vt 0.000000 -1.000000
vt 0.000000 0.000000
vt 1.000000 -1.000000
vt 0.000000 -1.000000
vt 0.000000 0.000000
vt 1.000000 -1.000000
vt 0.000000 -1.000000
vt 1.000000 -1.000000
vt 1.000000 0.000000
vt 1.000000 -1.000000
vt 0.000000 -1.000000
vt 0.000000 0.000000
vt 1.000000 -1.000000
vt 0.000000 -1.000000
vt 0.000000 0.000000
vt 1.000000 -1.000000
vt 1.000000 0.000000
vt 1.000000 -1.000000
vt 0.000000 -1.000000
vn -0.5210 0.8059 0.2813
vn 0.2910 0.1445 -0.9457
vn -0.6390 -0.2507 -0.7272
vn -0.3597 -0.0799 -0.9296
vn 0.4332 0.3233 -0.8413
vn -0.9398 -0.3411 0.0208
vn -0.9512 -0.2882 -0.1105
vn -0.4700 -0.2553 0.8449
vn -0.9123 -0.1936 0.3608
vn 0.4613 0.2302 0.8569
vn 0.9063 0.4184 -0.0607
vn 0.8231 0.5643 0.0637
vn 0.4191 0.3752 0.8268
vn -0.2134 0.2594 0.9419
vn -0.2608 0.1376 0.9556
vn -0.1849 0.1556 0.9704
vn -0.0313 -0.9988 -0.0370
vn 0.4529 -0.2616 -0.8523
vn 0.2282 -0.9149 0.3331
vn -0.2896 -0.2242 0.9305
vn 0.7914 -0.5746 0.2084
vn 0.5194 -0.7315 -0.4418
usemtl Tex_0022_0_png
s off
f 10/1/1 1/2/1 2/3/1 3/4/1 4/5/1 5/6/1 6/7/1
usemtl Tex_0008_0_png
s 1
f 7/8/2 8/9/3 4/10/4
f 7/8/2 4/10/4 3/11/5
f 8/12/3 9/13/6 5/14/7
f 8/12/3 5/14/7 4/15/4
f 9/16/6 10/17/8 6/18/9
f 9/16/6 6/18/9 5/19/7
f 11/20/10 12/21/11 2/22/12
f 11/20/10 2/22/12 1/23/13
f 10/1/8 11/24/10 1/25/13
f 10/1/14 1/25/15 6/26/16
f 12/27/11 7/28/2 3/29/5
f 12/27/11 3/29/5 2/30/12
f 13/31/17 8/9/3 7/32/2
f 13/31/17 7/32/2 14/33/18
f 15/34/19 9/13/6 8/35/3
f 15/34/19 8/35/3 13/36/17
f 10/1/8 9/13/6 15/37/19
f 11/20/10 16/38/20 17/39/21
f 11/20/10 17/39/21 12/40/11
f 18/41/22 7/28/2 12/42/11
f 18/41/22 12/42/11 17/43/21
f 14/44/18 7/28/2 18/45/22
f 10/1/8 15/46/19 16/47/20
f 10/1/8 16/47/20 11/48/10
f 14/44/18 18/45/22 17/43/21 16/38/20 15/46/19 13/36/17
