# Blender v2.82 (sub 7) OBJ File: 'CrsahAkuAku.blend'
# www.blender.org
mtllib CodoIzq.mtl
o CodoIzq_Mesh_0030.005
v 11.341600 30.212000 -0.076295
v 12.045200 30.377501 -1.059495
v 11.329400 30.411600 -2.186295
v 10.113400 29.628000 -2.315295
v 9.705400 28.988501 -1.411995
v 10.116800 29.434099 -0.185495
v 12.227900 29.020901 -2.313495
v 10.566400 28.236500 -2.457695
v 9.988400 27.545601 -1.324095
v 10.579300 28.050200 0.180305
v 12.235100 28.815300 0.275205
v 13.085500 28.870800 -0.943695
v 13.516700 21.908701 -1.776496
v 14.118600 22.035801 -2.010796
v 13.556100 22.092100 -1.157596
v 14.065600 22.436300 -0.808796
v 14.672300 22.468500 -1.076796
v 14.702500 22.253000 -1.780996
vt 0.000000 0.000000
vt 1.000000 0.000000
vt 1.000000 -1.000000
vt 0.000000 -1.000000
vt 0.000000 0.000000
vt 1.000000 0.000000
vt 1.000000 -1.000000
vt 0.000000 -1.000000
vt 0.000000 0.000000
vt 1.000000 0.000000
vt 1.000000 -1.000000
vt 0.000000 -1.000000
vt 0.000000 0.000000
vt 1.000000 0.000000
vt 1.000000 -1.000000
vt 0.000000 -1.000000
vt 0.000000 0.000000
vt 1.000000 0.000000
vt 1.000000 -1.000000
vt 0.000000 -1.000000
vt 0.000000 0.000000
vt 1.000000 0.000000
vt 1.000000 -1.000000
vt 0.000000 -1.000000
vt 0.000000 0.000000
vt 1.000000 -1.000000
vt 0.000000 -1.000000
vt 0.000000 0.000000
vt 1.000000 -1.000000
vt 0.000000 -1.000000
vt 1.000000 -1.000000
vt 1.000000 0.000000
vt 1.000000 -1.000000
vt 0.000000 -1.000000
vt 0.000000 0.000000
vt 1.000000 -1.000000
vt 0.000000 -1.000000
vt 0.000000 0.000000
vt 1.000000 -1.000000
vt 1.000000 0.000000
vt 1.000000 -1.000000
vt 0.000000 -1.000000
vn 0.2910 0.1445 -0.9457
vn -0.6390 -0.2507 -0.7272
vn -0.3597 -0.0799 -0.9296
vn 0.4332 0.3233 -0.8413
vn -0.9398 -0.3411 0.0208
vn -0.9512 -0.2882 -0.1105
vn -0.4374 -0.1608 0.8848
vn -0.6330 -0.0141 0.7741
vn 0.4613 0.2302 0.8569
vn 0.9063 0.4184 -0.0607
vn 0.8231 0.5643 0.0637
vn 0.2282 0.3340 0.9145
vn -0.7442 0.1205 -0.6570
vn -0.2569 0.3696 -0.8930
vn -0.9507 0.0315 0.3086
vn 0.0226 0.3120 0.9498
vn 0.8097 0.4512 0.3753
vn 0.6499 0.4983 -0.5739
usemtl Tex_0008_0_png
s 1
f 7/1/1 8/2/2 4/3/3
f 7/1/1 4/3/3 3/4/4
f 8/5/2 9/6/5 5/7/6
f 8/5/2 5/7/6 4/8/3
f 9/9/5 10/10/7 6/11/8
f 9/9/5 6/11/8 5/12/6
f 11/13/9 12/14/10 2/15/11
f 11/13/9 2/15/11 1/16/12
f 10/17/7 11/18/9 1/19/12
f 10/17/7 1/19/12 6/20/8
f 12/21/10 7/22/1 3/23/4
f 12/21/10 3/23/4 2/24/11
f 13/25/13 8/2/2 7/26/1
f 13/25/13 7/26/1 14/27/14
f 15/28/15 9/6/5 8/29/2
f 15/28/15 8/29/2 13/30/13
f 10/17/7 9/6/5 15/31/15
f 11/13/9 16/32/16 17/33/17
f 11/13/9 17/33/17 12/34/10
f 18/35/18 7/22/1 12/36/10
f 18/35/18 12/36/10 17/37/17
f 14/38/14 7/22/1 18/39/18
f 10/17/7 15/40/15 16/41/16
f 10/17/7 16/41/16 11/42/9
