# Blender v2.82 (sub 7) OBJ File: 'CrsahAkuAku.blend'
# www.blender.org
mtllib CodoDerecho.mtl
o CodoDerecho_Mesh_0030.002
v -13.069500 21.408199 -1.713597
v -13.681700 21.453600 -2.018596
v -12.287600 28.042000 -2.576596
v -10.707800 27.516500 -2.720896
v -12.956900 21.513700 -0.851596
v -9.966300 27.158800 -1.324096
v -10.585400 27.435699 0.180304
v -12.282800 28.103500 0.275205
v -13.135100 28.291500 -1.102295
v -14.342300 21.597900 -1.027696
v -13.731500 21.605900 -0.457196
v -14.375900 21.519899 -1.714197
v -11.471300 29.749599 -2.186295
v -10.211900 29.037800 -2.315295
v -9.767500 28.423100 -1.411995
v -10.204000 28.844101 -0.185495
v -11.471900 29.549601 -0.076295
v -12.183900 29.674000 -1.059495
vt 0.000000 0.000000
vt 1.000000 0.000000
vt 1.000000 -1.000000
vt 0.000000 -1.000000
vt 0.000000 0.000000
vt 1.000000 0.000000
vt 1.000000 -1.000000
vt 0.000000 -1.000000
vt 0.000000 0.000000
vt 1.000000 0.000000
vt 1.000000 -1.000000
vt 0.000000 0.000000
vt 1.000000 0.000000
vt 1.000000 -1.000000
vt 0.000000 -1.000000
vt 0.000000 0.000000
vt 1.000000 0.000000
vt 1.000000 -1.000000
vt 0.000000 -1.000000
vt 0.000000 0.000000
vt 1.000000 0.000000
vt 1.000000 0.000000
vt 1.000000 -1.000000
vt 0.000000 -1.000000
vt 0.000000 0.000000
vt 1.000000 0.000000
vt 1.000000 -1.000000
vt 0.000000 0.000000
vt 1.000000 0.000000
vt 1.000000 -1.000000
vt 0.000000 0.000000
vt 1.000000 0.000000
vt 1.000000 -1.000000
vt 0.000000 -1.000000
vt 1.000000 0.000000
vt 1.000000 -1.000000
vt 0.000000 -1.000000
vt 1.000000 0.000000
vt 1.000000 -1.000000
vt 0.000000 -1.000000
vt 0.000000 0.000000
vt 1.000000 0.000000
vt 1.000000 -1.000000
vn 0.7256 0.1410 -0.6736
vn 0.1147 0.2486 -0.9618
vn -0.2728 0.1430 -0.9514
vn 0.6616 -0.1981 -0.7233
vn 0.9519 0.0854 0.2942
vn 0.9575 -0.2856 0.0399
vn 0.4669 -0.1142 0.8769
vn -0.5255 0.2406 0.8161
vn -0.9221 0.3804 -0.0710
vn -0.8716 0.4023 0.2801
vn -0.2008 0.4977 0.8438
vn -0.7362 0.3254 -0.5934
vn -0.4016 0.3988 -0.8244
vn 0.4065 0.0703 -0.9110
vn 0.9611 -0.1938 -0.1970
vn 0.5970 0.0481 0.8008
vn -0.3019 0.3308 0.8941
vn -0.8174 0.5760 0.0062
usemtl Tex_0008_0_png
s 1
f 1/1/1 2/2/2 3/3/3
f 1/1/1 3/3/3 4/4/4
f 5/5/5 1/6/1 4/7/4
f 5/5/5 4/7/4 6/8/6
f 7/9/7 5/10/5 6/11/6
f 8/12/8 9/13/9 10/14/10
f 8/12/8 10/14/10 11/15/11
f 12/16/12 10/17/10 9/18/9
f 12/16/12 9/18/9 3/19/3
f 2/20/2 12/21/12 3/3/3
f 7/9/7 8/22/8 11/23/11
f 7/9/7 11/23/11 5/24/5
f 3/25/3 13/26/13 14/27/14
f 3/25/3 14/27/14 4/4/4
f 4/28/4 14/29/14 15/30/15
f 4/28/4 15/30/15 6/8/6
f 6/31/6 15/32/15 16/33/16
f 6/31/6 16/33/16 7/34/7
f 8/12/8 17/35/17 18/36/18
f 8/12/8 18/36/18 9/37/9
f 7/9/7 16/38/16 17/39/17
f 7/9/7 17/39/17 8/40/8
f 9/41/9 18/42/18 13/43/13
f 9/41/9 13/43/13 3/19/3
