# Blender v2.82 (sub 7) OBJ File: 'CrsahAkuAku.blend'
# www.blender.org
mtllib ManoDerecho.mtl
o ManoDerecho_Mesh_0030.003
v -11.700900 17.939699 2.038003
v -12.850700 17.257900 1.916003
v -13.109500 18.204901 1.523803
v -12.418600 18.496401 1.674303
v -12.350600 18.477800 3.094503
v -12.858400 18.884100 2.309603
v -13.229400 17.710199 2.883103
v -13.482700 18.440100 2.135703
v -13.209000 18.441601 1.151803
v -12.628500 18.913900 1.456703
v -13.025900 19.203199 1.981903
v -13.598400 18.782900 1.690503
v -11.167900 17.303801 2.745703
v -11.774000 16.639000 3.510703
v -12.223200 16.452900 2.558903
v -11.900900 17.671600 3.676003
v -12.742900 16.897900 3.691703
v -14.079800 14.379700 1.190902
v -14.838000 13.822300 1.092502
v -15.263700 15.585300 -0.289797
v -14.390800 15.749000 0.350403
v -15.878000 16.012800 0.710703
v -14.395200 14.085400 -0.718998
v -15.147500 13.795000 -1.160798
v -15.050600 15.459000 -1.678398
v -14.351900 15.471600 -0.973397
v -14.959400 14.033500 0.180502
v -15.849500 13.620000 -0.316798
v -16.144899 15.711600 -0.839697
v -14.813300 14.062300 -1.891698
v -14.134200 15.449200 -2.205797
v -15.385000 13.950000 -2.462298
v -15.331200 15.623500 -2.295797
v -13.020100 13.736900 1.274202
v -13.733000 12.200700 1.102702
v -13.031200 13.506699 3.023802
v -14.428200 14.584900 2.214302
v -13.890200 12.295800 2.654302
v -15.305700 13.855500 2.152102
v -14.848400 16.327900 1.292503
v -14.502600 12.143500 -1.455698
v -13.503700 12.956700 -0.608398
v -14.180400 12.551900 0.841202
v -15.092900 11.865500 -0.100098
v -13.824100 13.252900 -2.364798
v -14.484500 12.766901 -3.323598
v -14.725300 14.134400 -2.910498
v -14.249300 14.186100 -2.424298
v -14.635200 12.643600 -1.578998
v -15.199700 12.489600 -2.518898
v -14.656100 15.569501 -2.927597
v -12.024500 12.871800 1.625902
v -11.737200 11.772300 2.286202
v -12.634700 11.578700 1.548402
v -12.108900 12.557099 2.987502
v -12.349400 11.425800 2.726602
v -13.058400 11.697900 -0.451798
v -13.387700 10.827100 -0.087998
v -13.909200 11.153800 -1.021698
v -13.667900 11.459700 0.699002
v -14.120200 10.645200 0.025502
v -13.744600 12.222900 -2.406598
v -14.459300 11.265600 -2.502898
v -14.463200 11.799101 -3.153898
v -14.576200 11.706700 -1.846898
v -14.968000 11.349500 -2.561998
v -13.239300 18.315100 1.016803
v -14.376400 18.711599 0.705303
v -13.644000 17.802000 0.433503
v -14.872700 20.466101 0.250803
v -14.245600 15.762400 0.408603
v -14.809600 16.376400 1.465603
v -13.624500 18.354900 -2.604697
v -13.994300 15.427300 -2.295897
v -14.622200 15.554501 -3.111997
v -14.286600 18.457199 -3.092397
v -12.452300 20.527901 0.189403
v -13.008600 19.334900 2.071503
v -12.478400 18.934200 1.416403
v -13.749700 18.762501 1.723003
v -15.360300 19.794600 -0.295997
v -16.012899 16.040800 0.807503
v -15.565700 19.128799 -1.454997
v -16.309500 15.703700 -0.839497
v -15.444600 15.611200 -2.392997
v -13.598400 18.782900 1.690503
v -13.209000 18.441601 1.151803
v -13.025900 19.203199 1.981903
v -12.628500 18.913900 1.456703
v -13.706600 20.938601 0.749903
v -14.235200 15.450400 -0.988397
v -14.351900 15.471600 -0.973397
v -16.144899 15.711600 -0.839697
v -15.331200 15.623500 -2.295797
v -15.878000 16.012800 0.710703
v -14.390800 15.749000 0.350403
v -13.831300 20.399900 -2.550297
v -14.709100 20.667700 -2.064597
v -14.375900 21.519899 -1.714197
v -13.681700 21.453600 -2.018596
v -14.786700 21.174999 -0.772397
v -14.342300 21.597900 -1.027696
v -13.778100 21.398199 0.130703
v -13.731500 21.605900 -0.457196
v -14.978500 18.609501 -2.658897
v -15.050600 15.459000 -1.678398
v -15.263700 15.585300 -0.289797
v -14.848400 16.327900 1.292503
v -13.644000 17.802000 0.433503
v -12.688800 18.403299 -0.128897
v -12.478400 18.934200 1.416403
v -13.239300 18.315100 1.016803
v -12.276900 19.670300 -0.503497
v -14.235200 15.450400 -0.988397
v -13.056900 18.689501 -1.365597
v -13.994300 15.427300 -2.295897
v -13.624500 18.354900 -2.604697
v -14.245600 15.762400 0.408603
v -12.716000 20.397400 -2.063697
v -14.286600 18.457199 -3.092397
v -12.452300 20.527901 0.189403
v -12.560800 20.885700 -0.678297
v -13.069500 21.408199 -1.713597
v -12.956900 21.513700 -0.851596
v -13.831300 20.399900 -2.550297
v -13.681700 21.453600 -2.018596
v -13.778100 21.398199 0.130703
v -13.731500 21.605900 -0.457196
v -13.706600 20.938601 0.749903
v -13.209000 18.441601 1.151803
v -13.239300 18.315100 1.016803
v -12.478400 18.934200 1.416403
v -12.628500 18.913900 1.456703
vt 0.000000 0.000000
vt 1.000000 0.000000
vt 1.000000 -1.000000
vt 0.000000 -1.000000
vt 0.000000 0.000000
vt 1.000000 0.000000
vt 1.000000 -1.000000
vt 0.000000 -1.000000
vt 0.000000 0.000000
vt 1.000000 0.000000
vt 1.000000 -1.000000
vt 0.000000 -1.000000
vt 0.000000 0.000000
vt 1.000000 0.000000
vt 1.000000 -1.000000
vt 0.000000 -1.000000
vt 0.000000 0.000000
vt 1.000000 0.000000
vt 1.000000 -1.000000
vt 0.000000 -1.000000
vt 1.000000 0.000000
vt 1.000000 -1.000000
vt 0.000000 0.000000
vt 1.000000 0.000000
vt 0.000000 -1.000000
vt 0.000000 0.000000
vt 1.000000 0.000000
vt 1.000000 -1.000000
vt 0.000000 -1.000000
vt 0.000000 0.000000
vt 1.000000 0.000000
vt 1.000000 -1.000000
vt 0.000000 0.000000
vt 1.000000 -1.000000
vt 0.000000 0.000000
vt 1.000000 -1.000000
vt 0.000000 0.000000
vt 1.000000 -1.000000
vt 1.000000 0.000000
vt 1.000000 -1.000000
vt 0.000000 -1.000000
vt 1.000000 0.000000
vt 1.000000 -1.000000
vt 0.000000 -1.000000
vt 1.000000 0.000000
vt 1.000000 -1.000000
vt 0.000000 -1.000000
vt 1.000000 0.000000
vt 1.000000 -1.000000
vt 0.000000 -1.000000
vt 0.000000 0.000000
vt 1.000000 0.000000
vt 1.000000 -1.000000
vt 0.000000 -1.000000
vt 0.000000 0.000000
vt 1.000000 -1.000000
vt 0.000000 -1.000000
vt 0.000000 0.000000
vt 1.000000 0.000000
vt 1.000000 -1.000000
vt 0.000000 -1.000000
vt 0.000000 0.000000
vt 1.000000 -1.000000
vt 0.000000 0.000000
vt 1.000000 0.000000
vt 0.000000 -1.000000
vt 0.000000 0.000000
vt 1.000000 -1.000000
vt 0.000000 -1.000000
vt 0.000000 0.000000
vt 1.000000 -1.000000
vt 0.000000 0.000000
vt 1.000000 0.000000
vt 0.000000 -1.000000
vt 0.000000 0.000000
vt 1.000000 0.000000
vt 1.000000 -1.000000
vt 0.000000 -1.000000
vt 0.000000 0.000000
vt 1.000000 0.000000
vt 1.000000 -1.000000
vt 0.000000 -1.000000
vt 0.000000 0.000000
vt 1.000000 0.000000
vt 1.000000 -1.000000
vt 0.000000 -1.000000
vt 0.000000 0.000000
vt 1.000000 0.000000
vt 1.000000 -1.000000
vt 0.000000 -1.000000
vt 0.000000 0.000000
vt 1.000000 0.000000
vt 1.000000 -1.000000
vt 0.000000 -1.000000
vt 0.000000 0.000000
vt 1.000000 0.000000
vt 1.000000 -1.000000
vt 0.000000 -1.000000
vt 1.000000 0.000000
vt 0.000000 0.000000
vt 1.000000 -1.000000
vt 0.000000 -1.000000
vt 0.000000 0.000000
vt 1.000000 0.000000
vt 0.000000 -1.000000
vt 0.000000 0.000000
vt 1.000000 0.000000
vt 1.000000 -1.000000
vt 0.000000 -1.000000
vt 1.000000 0.000000
vt 1.000000 -1.000000
vt 0.000000 -1.000000
vt 1.000000 0.000000
vt 1.000000 0.000000
vt 0.000000 0.000000
vt 1.000000 0.000000
vt 1.000000 -1.000000
vt 0.000000 -1.000000
vt 0.000000 0.000000
vt 1.000000 0.000000
vt 1.000000 -1.000000
vt 0.000000 -1.000000
vt 0.000000 0.000000
vt 1.000000 0.000000
vt 1.000000 -1.000000
vt 0.000000 -1.000000
vt 0.000000 0.000000
vt 1.000000 0.000000
vt 1.000000 -1.000000
vt 0.000000 -1.000000
vt 0.000000 0.000000
vt 1.000000 0.000000
vt 1.000000 -1.000000
vt 0.000000 -1.000000
vt 1.000000 0.000000
vt 0.000000 0.000000
vt 1.000000 0.000000
vt 1.000000 -1.000000
vt 0.000000 -1.000000
vt 0.000000 0.000000
vt 1.000000 0.000000
vt 1.000000 -1.000000
vt 0.000000 0.000000
vt 1.000000 -1.000000
vt 0.000000 0.000000
vt 1.000000 -1.000000
vt 0.000000 0.000000
vt 1.000000 -1.000000
vt 1.000000 0.000000
vt 1.000000 -1.000000
vt 0.000000 -1.000000
vt 1.000000 0.000000
vt 1.000000 -1.000000
vt 0.000000 -1.000000
vt 1.000000 0.000000
vt 1.000000 -1.000000
vt 0.000000 -1.000000
vt 1.000000 0.000000
vt 1.000000 -1.000000
vt 0.000000 -1.000000
vt 0.000000 0.000000
vt 1.000000 0.000000
vt 1.000000 -1.000000
vt 0.000000 0.000000
vt 1.000000 -1.000000
vt 0.000000 0.000000
vt 1.000000 -1.000000
vt 0.000000 0.000000
vt 1.000000 -1.000000
vt 1.000000 0.000000
vt 1.000000 -1.000000
vt 1.000000 0.000000
vt 1.000000 -1.000000
vt 0.000000 -1.000000
vt 1.000000 0.000000
vt 1.000000 -1.000000
vt 0.000000 -1.000000
vt 1.000000 0.000000
vt 1.000000 -1.000000
vt 0.000000 -1.000000
vt 0.000000 0.000000
vt 1.000000 0.000000
vt 1.000000 -1.000000
vt 0.000000 0.000000
vt 1.000000 -1.000000
vt 0.000000 0.000000
vt 1.000000 -1.000000
vt 0.000000 0.000000
vt 1.000000 -1.000000
vt 1.000000 0.000000
vt 1.000000 -1.000000
vt 0.000000 -1.000000
vt 1.000000 0.000000
vt 1.000000 -1.000000
vt 0.000000 -1.000000
vt 1.000000 0.000000
vt 1.000000 -1.000000
vt 0.000000 -1.000000
vt 1.000000 0.000000
vt 1.000000 -1.000000
vt 0.000000 -1.000000
vt 0.199200 1.424100
vt 0.258000 1.482400
vt 0.309400 1.348800
vt 0.343900 1.740100
vt 0.314100 1.049200
vt 0.114400 1.139400
vt 0.907900 1.391500
vt 0.824800 1.000000
vt 0.979000 1.018700
vt 1.000000 1.406500
vt 0.355500 1.749200
vt 0.000000 1.573900
vt 0.123700 1.515100
vt 0.447100 1.634300
vt 0.238700 1.090100
vt 0.666000 1.518500
vt 0.549800 1.040600
vt 0.843200 1.027000
vt 0.072000 1.492900
vt 0.065800 1.489900
vt 0.173700 1.442700
vt 0.016900 1.554600
vt 0.116100 1.512100
vt 0.249600 1.809500
vt 0.549800 1.041800
vt 0.824800 1.028800
vt 0.257000 1.086000
vt 0.575100 1.006500
vt 0.577900 1.003400
vt 0.325000 1.047200
vt 0.872900 1.738400
vt 0.781200 1.777700
vt 0.726900 1.894100
vt 0.791900 1.881200
vt 0.537100 1.852200
vt 0.580100 1.923900
vt 0.366500 1.885000
vt 0.458100 1.926900
vt 0.918100 1.428900
vt 0.708200 1.004600
vt 0.446000 1.023200
vt 0.147100 1.132300
vt 0.309400 -0.348800
vt 0.415600 -0.437100
vt 0.123700 -0.515100
vt 0.199200 -0.424100
vt 0.486300 -0.623200
vt 0.577900 -0.003400
vt 0.649100 -0.479100
vt 0.824800 0.000000
vt 0.907900 -0.391500
vt 0.314100 -0.049200
vt 0.781000 -0.730000
vt 1.000000 -0.406500
vt 0.355500 -0.749200
vt 0.519300 -0.801700
vt 0.726700 -0.838200
vt 0.542400 -0.877000
vt 0.872900 -0.738400
vt 0.791900 -0.881200
vt 0.366500 -0.885000
vt 0.458100 -0.926900
vt 0.249600 -0.809500
vt 0.000000 0.000000
vt 0.000000 0.000000
vt 0.000000 0.000000
vt 0.000000 0.000000
vn 0.7720 0.2749 -0.5731
vn -0.3351 -0.6154 -0.7134
vn -0.3127 -0.6266 -0.7139
vn 0.8562 0.3358 -0.3926
vn 0.1356 0.8167 0.5609
vn -0.0645 0.7885 0.6117
vn -0.9176 -0.0576 0.3933
vn -0.9622 0.0117 0.2720
vn 0.2545 -0.9633 0.0858
vn 0.7470 -0.4920 0.4472
vn 0.2916 0.0650 0.9543
vn -0.3904 -0.7548 0.5272
vn 0.9135 -0.2772 -0.2977
vn 0.4772 -0.6408 0.6014
vn -0.2068 -0.9462 -0.2488
vn 0.5232 0.4184 0.7425
vn -0.5220 -0.2582 0.8129
vn 0.7925 0.3132 -0.5233
vn -0.3942 -0.4018 -0.8266
vn -0.1726 -0.9110 0.3746
vn 0.4928 -0.8376 0.2357
vn -0.4720 -0.8555 0.2127
vn 0.8914 0.2854 -0.3520
vn -0.2871 -0.1537 -0.9455
vn -0.2507 -0.9614 -0.1131
vn 0.3597 -0.9034 0.2334
vn 0.1002 0.2296 0.9681
vn -0.9632 -0.1629 0.2139
vn -0.4057 -0.9139 -0.0157
vn -0.0899 -0.0754 0.9931
vn 0.3292 -0.9213 0.2068
vn -0.9933 -0.0423 -0.1072
vn -0.5233 -0.8254 -0.2116
vn 0.5580 0.5713 -0.6018
vn -0.3114 -0.5253 -0.7919
vn 0.2729 0.5299 0.8030
vn 0.3423 0.5068 0.7912
vn -0.5646 -0.5373 0.6265
vn -0.8596 -0.1981 0.4710
vn -0.0568 -0.5133 0.8563
vn -0.0440 -0.0997 -0.9940
vn 0.8967 0.4395 -0.0520
vn 0.1095 0.1912 0.9754
vn -0.8555 -0.4580 0.2416
vn 0.9756 0.2022 0.0854
vn 0.0514 0.0590 -0.9969
vn 0.0555 0.1799 -0.9821
vn 0.9875 0.1458 0.0593
vn -0.1514 0.0017 0.9885
vn -0.9887 -0.1348 -0.0649
vn 0.1194 -0.8300 -0.5449
vn 0.7648 0.1914 -0.6151
vn 0.9153 -0.4011 -0.0365
vn 0.0991 -0.8470 -0.5222
vn 0.7444 0.3516 0.5676
vn 0.0657 -0.7100 0.7012
vn 0.9416 -0.0555 -0.3322
vn 0.6660 -0.7444 0.0477
vn 0.0095 -0.7030 -0.7111
vn 0.6149 -0.1453 0.7751
vn -0.3795 -0.8350 0.3984
vn 0.9523 -0.2897 -0.0963
vn 0.4008 -0.9160 -0.0152
vn 0.0028 -0.4678 -0.8838
vn 0.2648 -0.4740 0.8398
vn -0.7731 -0.6292 0.0806
vn -0.0301 -0.7182 0.6951
vn -0.3408 -0.0245 0.9398
vn 0.3276 -0.7947 0.5110
vn -0.6137 0.3766 0.6940
vn -0.1351 -0.0250 0.9905
vn 0.1131 -0.6377 0.7620
vn 0.5385 -0.6047 0.5868
vn 0.3629 0.0385 0.9310
vn 0.3854 -0.7800 0.4931
vn 0.8524 -0.1895 -0.4872
vn 0.5240 -0.8325 -0.1801
vn 0.4749 -0.7675 -0.4307
vn 0.8524 -0.1896 -0.4872
vn 0.3062 -0.0628 -0.9499
vn -0.0121 0.0953 -0.9954
vn 0.7762 0.5263 0.3472
vn 0.5450 -0.2023 0.8137
vn 0.6956 -0.5497 0.4627
vn -0.7441 0.2255 0.6288
vn -0.8280 0.3042 0.4710
vn -0.3408 -0.0244 0.9398
vn -0.4903 -0.3532 0.7968
vn -0.8947 0.2700 0.3558
vn -0.9419 0.2457 -0.2291
vn -0.9658 0.1754 -0.1911
vn -0.7509 0.0726 -0.6564
vn -0.2220 -0.8956 0.3855
vn -0.3169 -0.4725 0.8224
vn 0.1118 -0.9447 0.3082
vn -0.1094 -0.2489 0.9623
vn 0.3624 -0.1076 0.9258
vn 0.2725 -0.6313 0.7261
vn 0.3537 -0.6635 0.6593
vn 0.6956 -0.5497 0.4626
vn 0.5675 -0.4401 0.6959
vn 0.6607 -0.1961 0.7245
vn -0.3170 -0.4725 0.8224
vn 0.0699 -0.0949 0.9930
vn -0.2440 0.6745 0.6968
vn -0.7442 0.2254 0.6288
vn 0.4193 -0.7280 0.5424
vn 0.5955 -0.5993 0.5349
vn -0.1352 -0.0250 0.9905
vn 0.2400 -0.9149 -0.3247
vn 0.0355 -0.9953 0.0897
vn -0.0637 -0.9972 0.0381
vn -0.3800 -0.9200 0.0958
vn 0.0533 -0.9601 0.2744
vn -0.0856 -0.9756 0.2023
vn -0.0582 -0.9902 0.1271
vn 0.5052 -0.8627 0.0213
vn 0.2510 -0.8306 0.4971
vn 0.1109 -0.9663 0.2324
vn 0.0334 -0.9928 0.1147
vn -0.1264 0.3772 -0.9175
vn -0.7492 0.4401 -0.4950
vn -0.7362 0.3254 -0.5934
vn 0.1147 0.2486 -0.9618
vn -0.7346 0.6507 0.1924
vn -0.8716 0.4023 0.2801
vn 0.1628 0.8632 0.4778
vn -0.3226 0.6261 0.7099
vn -0.6414 0.2083 -0.7384
vn -0.5843 -0.7971 -0.1522
vn -0.3144 -0.9348 -0.1650
vn -0.5233 -0.8255 -0.2115
vn -0.1691 -0.5213 -0.8364
vn -0.5176 -0.7919 0.3240
vn -0.3664 -0.9283 0.0638
vn -0.4058 -0.9138 -0.0157
vn -0.1727 -0.9705 -0.1682
vn 0.2439 -0.9656 0.0907
vn -0.6137 0.3765 0.6940
vn -0.1186 -0.9444 0.3066
vn 0.4193 -0.7280 0.5423
vn -0.1223 -0.5429 0.8308
vn -0.1187 -0.9444 0.3065
vn -0.3734 -0.5649 0.7358
vn -0.3192 -0.5865 0.7444
vn -0.0657 -0.9440 0.3233
vn 0.1636 -0.8628 0.4784
vn -0.0657 -0.9440 0.3232
vn 0.5930 -0.6917 0.4122
vn 0.7562 -0.6405 -0.1338
vn -0.0300 -0.7182 0.6952
vn 0.9850 -0.0909 -0.1464
vn 0.7157 -0.6342 0.2924
vn 0.6307 -0.7742 0.0538
vn 0.8473 -0.4562 -0.2721
vn 0.9616 -0.2736 0.0231
vn 0.9599 -0.1464 -0.2392
vn 0.8524 -0.1896 -0.4873
vn 0.7157 -0.6342 0.2923
vn 0.6306 -0.7742 0.0538
vn 0.7618 0.1221 -0.6362
vn -0.0121 0.0952 -0.9954
vn 0.7762 0.5262 0.3472
vn 0.6074 -0.7516 0.2574
vn 0.8743 0.4837 0.0412
vn 0.7256 0.1410 -0.6736
vn 0.8372 0.1837 -0.5151
vn 0.9519 0.0855 0.2942
vn -0.1264 0.3772 -0.9174
vn 0.7256 0.1410 -0.6735
vn 0.1628 0.8633 0.4778
vn 0.8783 0.1924 0.4377
vn 0.6852 0.5180 0.5121
vn -0.2008 0.4977 0.8438
vn 0.3536 -0.6635 0.6593
usemtl Tex_0008_0_png
s 1
f 1/1/1 2/2/2 3/3/3
f 1/1/1 3/3/3 4/4/4
f 5/5/5 1/6/1 4/7/4
f 5/5/5 4/7/4 6/8/6
f 7/9/7 5/10/5 6/11/6
f 7/9/7 6/11/6 8/12/8
f 2/13/2 7/14/7 8/15/8
f 2/13/2 8/15/8 3/16/3
f 4/17/4 3/18/3 9/19/9
f 4/17/4 9/19/9 10/20/10
f 4/17/4 10/21/10 11/22/11
f 4/17/4 11/22/11 6/8/6
f 8/23/8 6/24/6 11/22/11
f 8/23/8 11/22/11 12/25/12
f 3/26/3 8/27/8 12/28/12
f 3/26/3 12/28/12 9/29/9
f 13/30/13 14/31/14 15/32/15
f 16/33/16 14/31/14 13/34/13
f 17/35/17 14/31/14 16/36/16
f 15/37/15 14/31/14 17/38/17
f 13/30/13 15/39/15 2/40/2
f 13/30/13 2/40/2 1/41/1
f 16/33/16 13/42/13 1/43/1
f 16/33/16 1/43/1 5/44/5
f 17/35/17 16/45/16 5/46/5
f 17/35/17 5/46/5 7/47/7
f 15/37/15 17/48/17 7/49/7
f 15/37/15 7/49/7 2/50/2
f 18/51/18 19/52/19 20/53/20
f 18/51/18 20/53/20 21/54/21
f 19/55/19 22/56/22 20/57/20
f 23/58/23 24/59/24 25/60/25
f 23/58/23 25/60/25 26/61/26
f 27/62/27 26/63/26 20/57/20
f 28/64/28 27/65/27 20/53/20
f 28/64/28 20/53/20 29/66/29
f 24/67/24 29/68/29 25/69/25
f 30/70/30 31/71/31 25/69/25
f 32/72/32 30/73/30 25/60/25
f 32/72/32 25/60/25 33/74/33
f 34/75/34 35/76/35 19/77/19
f 34/75/34 19/77/19 18/78/18
f 36/79/36 34/80/34 18/81/18
f 36/79/36 18/81/18 37/82/37
f 38/83/38 36/84/36 37/85/37
f 38/83/38 37/85/37 39/86/39
f 35/87/35 38/88/38 39/89/39
f 35/87/35 39/89/39 19/90/19
f 37/91/37 18/92/18 21/93/21
f 37/91/37 21/93/21 40/94/40
f 39/95/39 37/96/37 40/97/40
f 39/95/39 40/97/40 22/98/22
f 19/55/19 39/99/39 22/56/22
f 41/100/41 24/59/24 23/101/23
f 41/100/41 23/101/23 42/102/42
f 43/103/43 42/104/42 23/101/23
f 43/103/43 23/101/23 27/105/27
f 44/106/44 43/107/43 27/108/27
f 44/106/44 27/108/27 28/109/28
f 41/100/41 44/110/44 28/111/28
f 41/100/41 28/111/28 24/112/24
f 27/62/27 23/113/23 26/63/26
f 24/67/24 28/114/28 29/68/29
f 45/115/45 46/116/46 47/117/47
f 45/115/45 47/117/47 48/118/48
f 49/119/49 45/120/45 48/121/48
f 49/119/49 48/121/48 30/122/30
f 50/123/50 49/124/49 30/125/30
f 50/123/50 30/125/30 32/126/32
f 46/127/46 50/128/50 32/129/32
f 46/127/46 32/129/32 47/130/47
f 48/131/48 47/132/47 51/133/51
f 48/131/48 51/133/51 31/134/31
f 30/70/30 48/135/48 31/71/31
f 47/136/47 32/137/32 33/138/33
f 47/136/47 33/138/33 51/139/51
f 52/140/52 53/141/53 54/142/54
f 55/143/55 53/141/53 52/144/52
f 56/145/56 53/141/53 55/146/55
f 54/147/54 53/141/53 56/148/56
f 52/140/52 54/149/54 35/150/35
f 52/140/52 35/150/35 34/151/34
f 55/143/55 52/152/52 34/153/34
f 55/143/55 34/153/34 36/154/36
f 56/145/56 55/155/55 36/156/36
f 56/145/56 36/156/36 38/157/38
f 54/147/54 56/158/56 38/159/38
f 54/147/54 38/159/38 35/160/35
f 57/161/57 58/162/58 59/163/59
f 60/164/60 58/162/58 57/165/57
f 61/166/61 58/162/58 60/167/60
f 59/168/59 58/162/58 61/169/61
f 57/161/57 59/170/59 41/171/41
f 57/161/57 41/171/41 42/102/42
f 60/164/60 57/172/57 42/173/42
f 60/164/60 42/173/42 43/174/43
f 61/166/61 60/175/60 43/176/43
f 61/166/61 43/176/43 44/177/44
f 59/168/59 61/178/61 44/179/44
f 59/168/59 44/179/44 41/180/41
f 62/181/62 63/182/63 64/183/64
f 65/184/65 63/182/63 62/185/62
f 66/186/66 63/182/63 65/187/65
f 64/188/64 63/182/63 66/189/66
f 62/181/62 64/190/64 46/191/46
f 62/181/62 46/191/46 45/192/45
f 65/184/65 62/193/62 45/194/45
f 65/184/65 45/194/45 49/195/49
f 66/186/66 65/196/65 49/197/49
f 66/186/66 49/197/49 50/198/50
f 64/188/64 66/199/66 50/200/50
f 64/188/64 50/200/50 46/201/46
usemtl Tex_0015_0_png
f 67/202/67 68/203/68 69/204/69
f 70/205/70 68/203/71 67/202/72
f 71/206/73 68/203/74 72/207/75
f 73/208/76 74/209/77 75/210/78
f 73/208/79 75/210/80 76/211/81
f 77/212/82 78/213/83 79/214/84
f 70/205/85 81/215/86 68/203/87
f 72/207/88 68/203/87 81/215/86
f 82/216/89 83/217/90 84/218/91
f 85/219/92 84/218/91 83/217/90
f 86/220/93 80/221/94 67/202/67
f 86/220/93 67/202/67 87/222/95
f 88/223/96 78/213/97 80/221/94
f 88/223/98 80/221/94 86/220/93
f 89/224/99 79/214/100 78/213/97
f 89/224/101 78/213/83 88/223/102
f 80/221/103 78/213/104 90/225/105
f 80/221/103 90/225/105 70/205/106
f 77/212/82 90/225/105 78/213/97
f 71/206/107 69/204/108 68/203/109
f 93/226/110 85/219/111 94/227/112
f 95/228/113 82/216/114 84/218/115
f 92/229/116 91/230/117 71/206/118
f 92/229/119 71/206/107 96/231/120
f 97/232/121 98/233/122 99/234/123
f 97/232/121 99/234/123 100/235/124
f 98/233/122 101/236/125 102/237/126
f 98/233/122 102/237/126 99/234/123
f 101/236/125 103/238/127 104/239/128
f 101/236/125 104/239/128 102/237/126
f 85/219/92 83/217/90 105/240/129
f 106/241/130 93/226/131 94/227/132
f 76/211/81 75/210/133 85/219/92
f 76/211/81 85/219/92 105/240/129
f 82/216/89 81/215/86 83/217/90
f 72/207/88 81/215/86 82/216/89
f 107/242/134 95/228/135 93/226/136
f 107/242/137 92/229/138 96/231/120
f 83/217/90 101/236/125 98/233/122
f 98/233/122 105/240/129 83/217/90
f 90/225/105 103/238/127 101/236/125
f 90/225/105 101/236/125 70/205/139
f 96/231/140 71/206/141 72/207/142
f 96/231/143 72/207/144 108/243/145
f 97/232/121 76/211/81 105/240/129
f 97/232/121 105/240/129 98/233/122
f 108/243/146 72/207/147 82/216/114
f 108/243/148 82/216/114 95/228/113
f 70/205/85 101/236/125 81/215/86
f 83/217/90 81/215/86 101/236/125
usemtl Tex_0016_0_png
f 109/244/149 110/245/150 111/246/100
f 109/244/149 111/246/100 112/247/151
f 110/245/150 113/248/152 111/246/100
f 109/244/153 114/249/154 115/250/155
f 114/249/156 116/251/157 117/252/158
f 114/249/154 117/252/158 115/250/155
f 109/244/159 118/253/141 114/249/160
f 119/254/161 117/252/158 120/255/162
f 121/256/163 111/246/100 113/248/152
f 115/250/155 113/248/152 110/245/150
f 115/250/155 110/245/150 109/244/164
f 115/250/155 117/252/158 119/254/161
f 122/257/165 119/254/161 123/258/166
f 122/257/165 123/258/167 124/259/168
f 119/254/161 125/260/169 126/261/124
f 119/254/161 126/261/124 123/258/170
f 127/262/171 122/257/165 124/259/172
f 127/262/171 124/259/173 128/263/174
f 121/256/163 127/262/171 129/264/105
f 113/248/152 122/257/165 121/256/163
f 113/248/152 115/250/155 119/254/161
f 113/248/152 119/254/161 122/257/165
f 119/254/161 120/255/162 125/260/169
f 121/256/163 122/257/165 127/262/171
usemtl setka_png
f 130/265/95 131/266/67 132/267/100
f 130/265/95 132/267/100 133/268/175
