# Blender v2.82 (sub 7) OBJ File: 'CrsahAkuAku.blend'
# www.blender.org
mtllib PiernaDer.mtl
o PiernaDer_Mesh_0030.007
v -5.354200 14.694700 0.084802
v -4.825200 14.158300 -1.907598
v -3.429800 13.731100 -2.357298
v -1.610500 13.725100 -0.437798
v -2.435800 18.368500 -2.079697
v 0.000000 17.410801 -0.353897
v -3.188600 21.312599 0.257603
v -2.794500 20.938000 -1.352797
v -4.215700 14.692400 1.870502
v -2.755200 14.278100 1.929602
v -1.108700 19.471100 1.794403
v -2.439100 20.983900 1.812203
v -1.610500 13.725100 -0.437798
v -5.354200 14.694700 0.084802
v -3.188600 21.312599 0.257603
v 0.000000 17.410801 -0.353897
v -5.257700 5.648400 -0.066599
v -4.543200 5.704100 0.302801
v -3.926100 5.677500 0.038801
vt 0.365400 1.711400
vt 0.016000 1.650100
vt 0.245200 1.414200
vt 0.510100 1.414600
vt 0.619500 1.441900
vt 0.832100 1.476300
vt 0.523000 1.912000
vt 0.433000 1.886200
vt 0.341800 1.390800
vt 0.569800 1.360000
vt 0.826800 1.746400
vt 0.619100 1.859000
vt 0.164100 1.391000
vt 0.502100 1.897600
vt 0.748400 1.318800
vt 0.999000 1.593100
vt 0.625500 1.682900
vt 0.625800 1.682500
vt 0.624600 1.683200
vn 0.0074 -0.4420 -0.8970
vn 0.2347 -0.7318 -0.6398
vn 0.7774 -0.5137 -0.3631
vn 0.7487 -0.0937 -0.6563
vn -0.6216 0.2632 -0.7378
vn -0.9997 0.0163 0.0202
vn -0.8679 0.4840 -0.1118
vn -0.9186 0.2856 -0.2729
vn -0.2978 0.1973 -0.9340
vn -0.1461 -0.4162 -0.8975
vn -0.6147 0.1733 0.7695
vn 0.2095 -0.0229 0.9775
vn 0.2842 -0.0969 0.9538
vn -0.6021 0.1126 0.7905
vn -0.9608 0.0158 0.2769
vn -0.7453 0.6570 0.1140
vn 0.8119 -0.3596 0.4599
vn 0.7281 -0.6819 -0.0699
vn 0.4569 -0.8877 0.0566
vn 0.4678 -0.6259 0.6240
vn -0.0777 0.9883 -0.1313
vn 0.1268 0.9859 -0.1088
vn 0.1629 0.9534 -0.2541
usemtl Tex_0000_0_png
s 1
f 5/1/1 6/2/2 4/3/3
f 5/1/1 4/3/3 3/4/4
f 2/5/5 1/6/6 7/7/7
f 2/5/5 7/7/7 8/8/8
f 3/4/9 2/5/5 8/8/8
f 3/4/9 8/8/8 5/1/10
usemtl Tex_0001_0_png
f 9/9/11 10/10/12 11/11/13
f 9/9/11 11/11/13 12/12/14
f 14/13/15 9/9/11 12/12/14
f 14/13/15 12/12/14 15/14/16
f 10/10/17 13/15/18 16/16/19
f 10/10/12 16/16/20 11/11/13
usemtl Tex_0005_0_png
f 19/17/21 17/18/22 18/19/23
