# Blender v2.82 (sub 7) OBJ File: 'CrsahAkuAku.blend'
# www.blender.org
mtllib PiernaIzq.mtl
o PiernaIzq_Mesh_0030.009
v 0.000000 17.410801 -0.353897
v 4.825200 14.158300 -1.907298
v 2.794500 20.938000 -1.352797
v 3.188600 21.312599 0.257603
v 5.354200 14.694700 0.085002
v 3.429800 13.731100 -2.357098
v 2.435800 18.368500 -2.079597
v 1.610500 13.725100 -0.437598
v 0.000000 17.410801 -0.353897
v 5.354200 14.694700 0.085002
v 3.188600 21.312599 0.257603
v 2.439100 20.983900 1.812203
v 4.215700 14.692400 1.870702
v 2.755200 14.278100 1.929802
v 1.108700 19.471100 1.794403
v 1.610500 13.725100 -0.437598
vt 0.713300 1.441900
vt 0.416300 1.890400
vt 0.520900 1.912000
vt 0.823700 1.476300
vt 0.510100 1.414600
vt 0.365400 1.711400
vt 0.245200 1.414200
vt 0.016000 1.650100
vt 0.164100 1.391000
vt 0.502100 1.897600
vt 0.619100 1.859000
vt 0.341800 1.390800
vt 0.569800 1.360000
vt 0.826800 1.746400
vt 0.999000 1.593100
vt 0.748400 1.318800
vn 0.6054 0.2582 -0.7529
vn 0.9187 0.2856 -0.2729
vn 0.8679 0.4840 -0.1119
vn 0.9997 0.0163 0.0201
vn 0.2978 0.1972 -0.9340
vn 0.1461 -0.4162 -0.8974
vn -0.0074 -0.4420 -0.8970
vn -0.7487 -0.0938 -0.6563
vn -0.7774 -0.5137 -0.3631
vn -0.2346 -0.7318 -0.6398
vn 0.9608 0.0158 0.2769
vn 0.7453 0.6570 0.1139
vn 0.5951 0.1136 0.7956
vn 0.4486 0.2939 0.8441
vn -0.2095 -0.0228 0.9775
vn -0.2843 -0.0969 0.9538
vn -0.4678 -0.6259 0.6240
vn -0.8119 -0.3596 0.4599
vn -0.4569 -0.8877 0.0566
vn -0.7282 -0.6818 -0.0700
usemtl Tex_0000_0_png
s 1
f 2/1/1 3/2/2 4/3/3
f 2/1/1 4/3/3 5/4/4
f 6/5/5 7/6/6 3/2/2
f 6/5/5 3/2/2 2/1/1
f 7/6/7 6/5/8 8/7/9
f 7/6/7 8/7/9 1/8/10
usemtl Tex_0001_0_png
f 10/9/11 11/10/12 12/11/13
f 10/9/11 12/11/13 13/12/14
f 14/13/15 15/14/16 9/15/17
f 14/13/18 9/15/19 16/16/20
f 13/12/14 12/11/13 15/14/16
f 13/12/14 15/14/16 14/13/15
