# Blender v2.82 (sub 7) OBJ File: 'CrsahAkuAku.blend'
# www.blender.org
mtllib PiernaIzq.mtl
v -1.885505 -2.555676 -0.397202
v 2.939695 -5.808176 -1.950603
v 0.908995 0.971524 -1.396102
v 1.303095 1.346123 0.214298
v 3.468695 -5.271776 0.041697
v 1.544295 -6.235376 -2.400403
v 0.550295 -1.597976 -2.122902
v -0.275005 -6.241377 -0.480903
v -1.885505 -2.555676 -0.397202
v 3.468695 -5.271776 0.041697
v 1.303095 1.346123 0.214298
v 0.553595 1.017423 1.768898
v 2.330195 -5.274077 1.827397
v 0.869695 -5.688377 1.886497
v -0.776805 -0.495377 1.751098
v -0.275005 -6.241377 -0.480903
vt 0.713300 1.441900
vt 0.416300 1.890400
vt 0.520900 1.912000
vt 0.823700 1.476300
vt 0.510100 1.414600
vt 0.365400 1.711400
vt 0.245200 1.414200
vt 0.016000 1.650100
vt 0.999000 1.593100
vt 0.826800 1.746400
vt 0.619100 1.859000
vt 0.502100 1.897600
vt 0.164100 1.391000
vt 0.341800 1.390800
vt 0.569800 1.360000
vt 0.748400 1.318800
vn 0.7147 -0.4791 -0.5096
vn -0.0683 0.6335 -0.7707
vn 0.1317 0.9476 -0.2910
vn 0.7624 -0.3822 -0.1189
vn 0.0195 -0.6868 -0.7266
vn 0.1461 -0.4162 -0.8974
vn -0.0074 -0.4420 -0.8970
vn -0.2599 -0.9554 0.1401
vn -0.2346 -0.7318 -0.6398
vn -0.9610 0.0608 -0.2698
vn -0.5868 0.4412 -0.2417
vn -0.6512 0.7421 0.1585
vn -0.7488 0.3062 0.5879
vn 0.0076 0.8323 0.5543
vn 0.0678 0.7626 0.1321
vn 0.7484 -0.6624 0.0338
vn 0.3699 -0.4221 0.8277
vn -0.1861 -0.6296 0.7543
vn -0.2636 -0.6265 0.2993
vn -0.4678 -0.6259 0.6240
vn -0.4569 -0.8877 0.0566
usemtl Tex_0000_0_png
s 1
f 2/1/1 3/2/2 4/3/3
f 2/1/1 4/3/3 5/4/4
f 6/5/5 7/6/6 3/2/2
f 6/5/5 3/2/2 2/1/1
f 7/6/7 6/5/5 8/7/8
f 7/6/7 8/7/8 1/8/9
f 4/3/3 3/2/2 7/6/10 1/8/11 9/9/12 15/10/13 12/11/14 11/12/15
f 2/1/1 5/4/4 10/13/16 13/14/17 14/15/18 16/16/19 8/7/8 6/5/5
usemtl Tex_0001_0_png
f 10/13/16 11/12/15 12/11/14
f 10/13/16 12/11/14 13/14/17
f 14/15/18 15/10/13 9/9/20
f 14/15/18 9/9/21 16/16/19
f 13/14/17 12/11/14 15/10/13
f 13/14/17 15/10/13 14/15/18
