# Blender v2.82 (sub 7) OBJ File: 'CrsahAkuAku.blend'
# www.blender.org
mtllib RodillaIzq.mtl
v 1.163001 0.155800 -1.792806
v 1.692001 0.692200 0.199495
v -0.232399 -0.271400 -2.242605
v 1.394201 -0.730000 -1.704306
v 1.909701 -0.562800 0.375194
v -0.012999 -1.076400 -2.187006
v -1.559499 -1.341001 -0.051506
v -2.051699 -0.277401 -0.323106
v 1.585001 -2.074800 -2.174306
v 2.386201 -2.146501 -0.043306
v 2.743101 -4.265700 -0.287006
v 1.884601 -4.354500 -2.650106
v 0.337601 -4.510400 -3.197406
v 0.176001 -2.339700 -2.668306
v -1.615799 -4.709301 -0.924806
v -1.610299 -2.407400 -0.562406
v 1.692001 0.692200 0.199495
v 0.553501 0.689899 1.985195
v -0.906999 0.275599 2.044295
v -2.051699 -0.277401 -0.323106
v -0.638199 -0.957901 2.341094
v -1.559499 -1.341001 -0.051506
v -1.610299 -2.407400 -0.562406
v -0.313299 -2.214701 2.125894
v 1.154201 -1.965801 2.006694
v 0.826001 -0.626401 2.251894
v 2.386201 -2.146501 -0.043306
v 1.909701 -0.562800 0.375194
v 1.574201 -4.385101 2.037694
v 2.743101 -4.265700 -0.287006
v -1.615799 -4.709301 -0.924806
v -0.145399 -4.558301 2.160694
v 1.850501 -6.750701 2.080793
v 1.501601 -5.957300 -0.074707
v 1.219301 -6.067601 -1.443406
v 3.131501 -6.640000 -0.481607
v 2.210901 -6.719900 -3.103707
v 0.404701 -6.186000 -1.636407
v 0.522101 -6.869000 -3.699407
v -1.620799 -7.055400 -1.271207
v -0.474999 -6.164501 -0.412707
v 0.291301 -5.993701 0.628294
v 0.092201 -6.907401 2.229793
v -1.615799 -4.709301 -0.924806
v -1.882099 -4.847601 -1.007206
v -0.215099 -4.676101 2.493194
v -0.145399 -4.558301 2.160694
v 0.337601 -4.510400 -3.197406
v 0.329101 -4.622600 -3.575906
v 1.884601 -4.354500 -2.650106
v 2.072001 -4.446500 -2.946806
v 2.743101 -4.265700 -0.287006
v 3.044401 -4.346300 -0.276206
v 1.574201 -4.385101 2.037694
v 1.717601 -4.481501 2.353694
v 0.092201 -6.907401 2.229793
v 1.850501 -6.750701 2.080793
v -1.620799 -7.055400 -1.271207
v 0.522101 -6.869000 -3.699407
v 2.210901 -6.719900 -3.103707
v 3.131501 -6.640000 -0.481607
v 0.013001 -8.382601 -0.745807
v 0.404701 -6.186000 -1.636407
v 0.439101 -8.384701 -1.427507
v 0.291301 -5.993701 0.628294
v -0.474999 -6.164501 -0.412707
v 0.583201 -8.360201 0.011193
v 1.501601 -5.957300 -0.074707
v 1.436801 -8.351801 -0.527707
v 1.219301 -6.067601 -1.443406
v 1.065401 -8.372701 -1.434007
v 3.368401 -12.794400 -1.453608
v 3.424001 -13.803500 -1.477308
v 1.544201 -13.848000 -3.644308
v 1.488601 -12.839000 -3.620608
v -0.451099 -12.951900 -3.363108
v -0.395499 -13.960899 -3.386808
v -1.191599 -14.071800 -0.878708
v 0.165901 -10.382801 1.121893
v -0.807999 -11.891101 -0.740408
v 0.191801 -12.052700 2.286293
v 2.992001 -11.676101 -1.331407
v 2.159201 -10.381201 -1.075407
v 2.092001 -10.066801 0.679193
v 3.380101 -10.760000 2.299693
v 1.334301 -10.846902 3.025693
v 1.032101 -10.162201 1.239393
v 1.894901 -9.985102 6.189693
v 4.194401 -9.848502 5.765793
v -1.227499 -13.052700 -0.890008
v -0.203599 -13.040401 1.757292
v -0.058599 -13.008401 1.848692
v -1.027999 -13.004801 -0.580308
v 0.002701 -13.134602 6.243992
v 0.135101 -13.098302 6.123693
v 6.543201 -12.759202 5.597292
v 4.933601 -12.753201 1.577292
v 4.805201 -12.736401 1.678292
v 6.328401 -12.742501 5.495893
v 3.316301 -12.752200 -1.143708
v 1.547701 -12.793699 -3.179208
v -0.277899 -12.900000 -2.936908
v 1.397801 -11.703500 -3.035907
v 4.747101 -11.682301 1.703093
v 0.059401 -11.723202 6.156192
v 6.252701 -11.367402 5.528292
v -0.429099 -10.326800 -0.734107
v 4.993201 -13.819201 1.551992
v -0.145199 -14.106501 1.731992
v 1.595501 -8.354101 0.047893
v 0.881001 -8.298401 0.417393
v 0.263901 -8.325001 0.153293
v 0.061201 -14.200702 6.219492
v 6.623701 -13.793302 5.584392
v 0.677901 -12.357802 8.991793
v 2.808001 -13.065903 10.991193
v 2.817901 -12.130603 11.082393
v 6.690001 -12.025702 8.358892
v 6.612401 -12.796401 8.444893
v 5.107201 -11.991902 10.544792
v 5.224501 -12.920403 10.461392
v -0.003199 -10.296600 -2.380707
v 1.231101 -10.221500 -2.711407
v -0.209799 -11.797300 -2.815007
v 5.396901 -12.972702 10.858892
v 6.871101 -12.841102 8.722793
v 6.926601 -13.850101 8.698993
v 0.807001 -14.202502 9.353092
v 2.884901 -14.136302 11.397892
v 5.452401 -13.981703 10.835093
v 0.755501 -11.587103 8.905792
v 2.827801 -11.195202 10.679393
v 2.455801 -10.108003 9.244693
v 6.516501 -11.255002 8.272992
v 4.675001 -9.976603 8.853892
v 4.989801 -11.063303 10.133892
v 0.751401 -13.193402 9.376892
v 0.077701 -8.402901 -1.608807
v 1.085201 -8.388201 -1.843407
v 1.855201 -8.351400 -1.013107
v -0.245199 -8.386400 -0.800607
v 2.829401 -13.127302 11.421693
v 0.851501 -13.128503 9.077792
vt 0.747000 1.385300
vt 0.713300 1.441900
vt 0.823700 1.476300
vt 0.874200 1.396000
vt 0.542100 1.363100
vt 0.510100 1.414600
vt 0.316900 1.346200
vt 0.245200 1.414200
vt 0.774800 1.299200
vt 0.926900 1.294600
vt 0.993500 1.159000
vt 0.818400 1.153300
vt 0.593200 1.143400
vt 0.569600 1.282300
vt 0.308700 1.130600
vt 0.309500 1.277900
vt 0.748400 1.318800
vt 0.569800 1.360000
vt 0.341800 1.390800
vt 0.164100 1.391000
vt 0.527800 1.268200
vt 0.671600 1.239700
vt 0.679500 1.160300
vt 0.477100 1.174700
vt 0.248000 1.193200
vt 0.299300 1.292900
vt 0.055700 1.179700
vt 0.130100 1.297600
vt 0.182500 1.024100
vt 0.000000 1.033000
vt 0.680400 1.000000
vt 0.450900 1.011200
vt 0.000000 1.984900
vt 1.000000 1.020200
vt 1.000000 1.984900
vt 0.000000 1.983900
vt 1.000000 1.984900
vt 0.000000 1.984900
vt 0.000000 1.020200
vt 1.000000 1.020200
vt 1.000000 1.984900
vt 0.000000 1.984900
vt 1.000000 1.020200
vt 1.000000 1.984900
vt 0.000000 1.984900
vt 1.000000 1.020200
vt 1.000000 1.984900
vt 0.000000 1.984900
vt 0.000000 1.020200
vt 1.000000 1.020200
vt 1.000000 1.984900
vt 0.000000 2.000000
vt 0.000000 1.850000
vt 1.000000 1.850000
vt 1.000000 2.000000
vt 0.000000 2.000000
vt 0.000000 1.850000
vt 1.000000 1.850000
vt 1.000000 2.000000
vt 0.000000 2.000000
vt 0.000000 1.850000
vt 1.000000 1.850000
vt 1.000000 2.000000
vt 0.000000 2.000000
vt 0.000000 1.850000
vt 1.000000 1.850000
vt 1.000000 2.000000
vt 0.000000 2.000000
vt 0.000000 1.850000
vt 1.000000 1.850000
vt 1.000000 2.000000
vt 0.000000 1.850000
vt 0.000000 1.000000
vt 1.000000 1.000000
vt 1.000000 1.850000
vt 0.000000 1.000000
vt 1.000000 1.000000
vt 0.000000 1.000000
vt 1.000000 1.000000
vt 0.000000 1.000000
vt 1.000000 1.000000
vt 0.000000 1.000000
vt 1.000000 1.000000
vt 0.000000 1.000000
vt 1.000000 1.000000
vt 0.880700 1.021400
vt 0.555000 1.992000
vt 0.665100 1.021400
vt 0.612300 1.992000
vt 1.000000 1.992000
vt 0.592200 1.021400
vt -0.000000 1.992000
vt 0.160400 1.021400
vt 0.142800 1.992000
vt 0.348300 1.021400
vt 0.745600 1.421100
vt 0.745600 1.009300
vt 0.505500 1.009300
vt 0.505500 1.421100
vt 0.745600 1.421100
vt 0.745600 1.009300
vt 0.505500 1.009300
vt 0.879100 1.523000
vt 0.936800 1.537200
vt 0.829800 1.583900
vt 0.966700 1.618200
vt 0.622300 1.658400
vt 0.628400 1.640500
vt 0.618500 1.638500
vt 0.630300 1.643000
vt 0.629500 1.658400
vt 0.623700 1.662200
vt 0.618500 1.653900
vt 0.052900 1.599600
vt 0.199200 1.599600
vt 0.199200 1.753700
vt 0.052900 1.753700
vt 0.616100 1.652900
vt 0.621900 1.661000
vt 0.346900 1.586400
vt 0.405500 1.586400
vt 0.405500 1.900700
vt 0.346900 1.880400
vt 0.246900 1.420200
vt 0.005100 1.420200
vt 0.005100 1.493700
vt 0.246900 1.493700
vt 0.745600 1.421100
vt 0.505500 1.421100
vt 0.505500 1.493800
vt 0.745600 1.493800
vt 0.745600 1.421100
vt 0.505500 1.421100
vt 0.505500 1.493800
vt 0.246900 1.420200
vt 0.005100 1.420200
vt 0.005100 1.493700
vt 0.246900 1.493700
vt 0.505500 1.493800
vt 0.745600 1.493800
vt 0.505500 1.421100
vt 0.505500 1.493800
vt 0.745600 1.493800
vt 0.755800 1.497100
vt 0.997400 1.006000
vt 0.755800 1.006000
vt 0.997400 1.497100
vt 0.997400 1.006000
vt 0.755800 1.006000
vt 0.755800 1.497100
vt 0.755800 1.497100
vt 0.997400 1.497100
vt 0.997400 1.006000
vt 0.755800 1.006000
vt 0.997400 1.497100
vt 0.997400 1.006000
vt 0.755800 1.006000
vt 0.755800 1.497100
vt 0.755800 1.497100
vt 0.997400 1.497100
vt 0.997400 1.006000
vt 0.755800 1.006000
vt 0.755800 1.006000
vt 0.755800 1.497100
vt 0.997400 1.497100
vt 0.997400 1.006000
vt 0.635800 1.642700
vt 0.628300 1.659100
vt 0.505500 1.009300
vt 0.246900 1.004200
vt 0.005100 1.004200
vt 0.620400 1.642900
vt 0.246900 1.004200
vt 0.005100 1.004200
vt 0.288400 1.889400
vt 0.288400 1.586400
vt 0.246900 1.420200
vt 0.246900 1.004200
vt 0.005100 1.004200
vt 0.005100 1.420200
vt 0.199200 1.907700
vt 0.052900 1.907700
vt 0.625500 1.682900
vt 0.465700 1.889400
vt 0.465700 1.586400
vt 0.625800 1.682500
vt 0.624600 1.683200
vt 0.745600 1.009300
vt 0.505500 1.009300
vt 0.745600 1.009300
vt 0.829900 1.668500
vt 0.977700 1.720700
vt 0.785600 1.797800
vt 0.974700 1.860500
vt 0.997400 1.251500
vt 0.755800 1.006000
vt 0.755800 1.251500
vt 0.755800 1.006000
vt 0.997400 1.251500
vt 0.997400 1.006000
vt 0.755800 1.251500
vt 0.997400 1.251500
vt 0.997400 1.006000
vt 0.755800 1.006000
vt 0.253600 1.487800
vt 0.492400 1.487800
vt 0.492400 1.196400
vt 0.253600 1.196400
vt 0.633700 1.659400
vt 0.635100 1.641600
vt 0.745600 1.421100
vt 0.505500 1.493800
vt 0.745600 1.493800
vt 0.634800 1.660300
vt 0.246900 1.420200
vt 0.005100 1.420200
vt 0.005100 1.493700
vt 0.246900 1.493700
vt 0.246900 1.004200
vt 0.005100 1.004200
vt 0.772400 1.894100
vt 0.948600 1.951500
vt 0.808300 1.974600
vt 0.887000 1.987200
vt 0.005100 1.493700
vt 0.596900 1.644100
vt 0.591200 1.648700
vt 0.595800 1.661700
vt 0.599000 1.648000
vt 0.597100 1.663200
vt 0.592900 1.650300
vt 0.504600 1.984900
vt 0.504600 1.733900
vt 0.419700 1.733900
vt 0.419700 1.984900
vt 0.246900 1.493700
vt 0.246900 1.420200
vt 0.246900 1.004200
vt 0.005100 1.004200
vt 0.005100 1.420200
vt 0.492400 1.006800
vt 0.253600 1.006800
vt 0.253600 1.493700
vt 0.492400 1.196400
vt 0.253600 1.196400
vt 0.256300 1.487800
vt 0.495500 1.487800
vt 0.632000 1.682100
vt 0.629300 1.682600
vt 0.492400 1.493700
vt 0.628600 1.682200
vt 0.631200 1.682000
vt 0.997400 1.497100
vt 0.337200 1.984900
vt 0.254800 1.984900
vt 0.337200 1.733900
vt 0.254800 1.733900
vt 0.745600 1.421100
vt 0.745600 1.009300
vt 0.505500 1.009300
vt 0.505500 1.421100
vt 0.997400 1.006000
vt 0.755800 1.251500
vt 0.755800 1.497100
vt 0.997400 1.497100
vt 0.638600 1.758100
vt 0.638600 1.741900
vt 0.644000 1.741900
vt 0.644000 1.758100
vt 0.644000 1.758100
vt 0.638600 1.758100
vt 0.638600 1.741900
vt 0.644000 1.741900
vt 0.755800 1.497100
vt 0.997400 1.497100
vt 0.745600 1.009300
vt 0.505500 1.009300
vt 0.505500 1.421100
vt 0.005100 1.493700
vt 0.246900 1.493700
vt 0.505500 1.493800
vt 0.745600 1.493800
vt 0.755800 1.006000
vt 0.997400 1.006000
vt 0.755800 1.006000
vt 0.997400 1.251500
vt 0.997400 1.006000
vt 0.246900 1.420200
vt 0.005100 1.004200
vt 0.005100 1.420200
vt 0.644000 1.741900
vt 0.644000 1.758100
vt 0.638600 1.758100
vt 0.638600 1.741900
vt 0.005100 1.493700
vt 0.246900 1.493700
vt 0.246900 1.004200
vt 0.755800 1.251500
vn 0.6924 0.2450 -0.6786
vn 0.4265 0.6449 -0.6342
vn 0.2407 0.9593 0.1476
vn 0.9732 0.2266 0.0377
vn -0.3052 0.1155 -0.9453
vn -0.3718 0.3613 -0.8551
vn -0.9511 -0.2029 -0.2330
vn -0.5199 0.3359 -0.4586
vn 0.6669 0.2971 -0.6834
vn 0.9760 0.1964 0.0941
vn 0.7155 0.6899 0.1103
vn 0.5002 0.7219 -0.4782
vn -0.1978 0.6961 -0.6901
vn -0.3019 0.2576 -0.9179
vn -0.8042 0.5749 -0.1510
vn -0.9997 -0.0045 -0.0239
vn -0.4948 0.6705 -0.5529
vn -0.5704 0.5949 0.5664
vn 0.1302 0.8804 0.4559
vn 0.3901 0.7934 0.2198
vn -0.5803 -0.1543 0.7997
vn -0.3610 -0.1078 0.9263
vn 0.5437 0.0170 0.8391
vn 0.5642 0.1643 0.8091
vn 0.3161 0.6641 0.6775
vn 0.7155 0.6898 0.1103
vn -0.8041 0.5750 -0.1510
vn -0.5319 0.5907 0.6068
vn -0.5280 -0.8372 -0.1429
vn -0.3762 -0.8310 -0.4096
vn -0.2857 -0.9583 0.0025
vn -0.2875 -0.9578 0.0016
vn -0.4758 -0.8599 0.1851
vn -0.1147 -0.9502 0.2898
vn -0.1147 -0.9502 0.2897
vn 0.1554 -0.9856 0.0665
vn 0.1438 -0.9284 0.3427
vn 0.2755 -0.9071 0.3181
vn 0.6623 -0.7317 -0.1615
vn 0.5978 -0.7876 -0.1494
vn 0.1685 -0.8902 -0.4233
vn 0.5950 -0.6258 -0.5043
vn -0.0816 -0.9637 -0.2543
vn 0.2991 -0.9118 0.2814
vn 0.2756 -0.9071 0.3181
vn 0.2992 -0.9118 0.2814
vn -0.8041 0.5749 -0.1510
vn -0.8573 0.5144 -0.0210
vn -0.9326 0.2108 0.2929
vn -0.8389 0.5189 0.1641
vn -0.1978 0.6961 -0.6902
vn -0.3461 0.6357 -0.6900
vn 0.4532 0.6652 -0.5934
vn 0.7619 0.6477 -0.0014
vn 0.7072 0.6826 0.1843
vn 0.8760 0.3624 0.3183
vn -0.4198 0.5296 0.7371
vn -0.6598 -0.1707 0.7318
vn 0.0361 -0.0467 0.9983
vn 0.1735 -0.1777 0.9687
vn 0.0359 -0.0469 0.9983
vn -0.0129 -0.1948 0.9808
vn -0.9361 -0.0770 -0.3431
vn -0.7245 -0.4682 0.5059
vn -0.0362 0.0538 -0.9979
vn 0.8029 0.0843 -0.5902
vn 0.9790 0.0207 0.2027
vn 0.4022 -0.0825 0.9118
vn -0.9789 -0.2027 0.0241
vn -0.5605 -0.0961 -0.8226
vn -0.2388 -0.0601 -0.9692
vn -0.5181 -0.5950 0.6144
vn -0.3261 -0.9042 0.2759
vn -0.9789 -0.2028 0.0241
vn 0.1087 -0.2461 0.9631
vn 0.9295 -0.1115 0.3515
vn 0.1665 -0.8098 0.5626
vn 0.9514 -0.0819 0.2967
vn 0.3613 -0.4075 -0.8387
vn -0.2389 -0.0602 -0.9692
vn 0.3612 -0.4075 -0.8387
vn 0.7683 -0.0092 -0.6400
vn 0.5161 -0.4446 -0.7321
vn 0.8944 -0.3856 0.2265
vn 0.9514 -0.0818 0.2967
vn -0.9762 -0.2166 0.0123
vn 0.5949 0.6668 -0.4488
vn 0.8475 0.0594 -0.5274
vn 0.5123 0.0484 -0.8575
vn 0.1075 0.7174 -0.6883
vn -0.6010 0.6843 -0.4130
vn -0.4698 -0.0052 -0.8828
vn -0.9959 -0.0389 -0.0820
vn 0.0545 -0.9982 -0.0268
vn 0.0542 -0.9981 -0.0294
vn 0.0544 -0.9980 -0.0315
vn -0.7018 0.4239 0.5725
vn -0.9805 0.1954 0.0192
vn -0.8955 0.3951 0.2050
vn 0.7536 0.4715 -0.4579
vn 0.8940 0.3211 -0.3126
vn 0.6016 0.7231 0.3394
vn 0.2573 0.9504 -0.1748
vn -0.3197 0.9143 0.2489
vn 0.0007 0.7264 0.6872
vn -0.4598 0.8869 -0.0437
vn 0.2919 0.9471 -0.1334
vn -0.8136 0.5606 0.1541
vn -0.7957 0.5909 0.1331
vn -0.7816 0.6079 0.1399
vn -0.7528 0.6488 0.1111
vn -0.7984 0.5833 0.1493
vn -0.8497 0.5060 0.1484
vn 0.7531 0.6297 -0.1907
vn 0.6607 0.6790 -0.3199
vn 0.6638 0.6880 -0.2934
vn 0.6009 0.6943 -0.3960
vn 0.2569 0.6713 -0.6952
vn -0.5395 0.7432 -0.3957
vn 0.3217 0.2902 -0.9013
vn 0.7572 0.5120 -0.4056
vn -0.9348 0.3496 0.0627
vn 0.8805 0.3916 -0.2671
vn 0.7895 0.5973 -0.1411
vn -0.9821 0.1795 0.0565
vn 0.9134 0.0660 -0.4018
vn -0.9638 -0.0485 0.2621
vn 0.5933 0.7798 0.1999
vn 0.2762 0.3770 0.8841
vn -0.4858 0.7146 0.5033
vn -0.9926 -0.0569 0.1073
vn 0.9787 0.0713 -0.1923
vn 0.0544 -0.9981 -0.0306
vn 0.0566 -0.9981 -0.0250
vn 0.0586 -0.9981 -0.0186
vn 0.0585 -0.9981 -0.0191
vn -0.8478 -0.0134 0.5301
vn -0.3686 0.6399 0.6743
vn -0.2710 0.1202 0.9550
vn 0.9451 0.2782 -0.1717
vn 0.9464 0.0775 0.3135
vn 0.8970 0.3872 0.2130
vn 0.5331 0.2494 0.8085
vn 0.4213 0.5740 0.7022
vn 0.5846 0.7892 0.1882
vn -0.6704 0.2525 -0.6977
vn 0.2396 0.3558 -0.9033
vn -0.6495 0.2063 -0.7319
vn 0.4474 0.6936 0.5646
vn 0.3433 0.9085 0.2384
vn 0.6984 0.7070 0.1114
vn 0.4241 0.7356 0.5283
vn 0.9291 0.0424 0.3673
vn 0.0568 -0.9982 -0.0207
vn 0.0550 -0.9982 -0.0236
vn 0.0550 -0.9982 -0.0235
vn 0.0549 -0.9982 -0.0236
vn -0.8199 0.3932 0.4161
vn -0.1285 0.5985 0.7908
vn -0.2895 0.9041 0.3144
vn 0.8418 0.5070 0.1856
vn 0.2795 0.8905 0.3590
vn 0.4432 0.5923 0.6729
vn -0.9121 -0.0597 0.4056
vn -0.6674 0.5944 0.4486
vn -0.4323 0.6045 -0.6691
vn 0.3525 0.7532 -0.5554
vn 0.5807 0.7972 -0.1652
vn -0.5386 0.8408 -0.0543
vn -0.4418 -0.0454 0.8960
vn -0.1181 0.6753 0.7280
vn 0.4444 0.0033 0.8958
vn -0.6315 0.6998 0.3340
vn -0.4662 0.7350 0.4924
vn -0.4119 0.2584 0.8738
usemtl Tex_0000_0_png
s 1
f 4/1/1 1/2/2 2/3/3
f 4/1/1 2/3/3 5/4/4
f 6/5/5 3/6/6 1/2/2
f 6/5/5 1/2/2 4/1/1
f 7/7/7 8/8/8 3/6/6
f 7/7/7 3/6/6 6/5/5
f 9/9/9 4/1/1 5/4/4
f 9/9/9 5/4/4 10/10/10
f 10/10/10 11/11/11 12/12/12
f 10/10/10 12/12/12 9/9/9
f 9/9/9 12/12/12 13/13/13
f 9/9/9 13/13/13 14/14/14
f 14/14/14 13/13/13 15/15/15
f 14/14/14 15/15/15 16/16/16
f 16/16/16 7/7/7 6/5/5
f 16/16/16 6/5/5 14/14/14
f 14/14/14 6/5/5 4/1/1
f 14/14/14 4/1/1 9/9/9
f 1/2/2 3/6/6 8/8/8 20/17/17 19/18/18 18/19/19 17/20/20 2/3/3
usemtl Tex_0001_0_png
f 21/21/21 22/22/7 23/23/16
f 21/21/21 23/23/16 24/24/22
f 21/21/21 24/24/22 25/25/23
f 21/21/21 25/25/23 26/26/24
f 21/21/21 20/17/17 22/22/7
f 26/26/24 25/25/23 27/27/10
f 26/26/24 27/27/10 28/28/4
f 17/20/20 18/19/19 26/26/24
f 17/20/20 26/26/24 28/28/4
f 25/25/23 29/29/25 30/30/26
f 25/25/23 30/30/26 27/27/10
f 23/23/16 31/31/27 32/32/28
f 23/23/16 32/32/28 24/24/22
f 24/24/22 32/32/28 29/29/25
f 24/24/22 29/29/25 25/25/23
f 26/26/24 18/19/19 19/18/18
f 26/26/24 19/18/18 21/21/21
f 21/21/21 19/18/18 20/17/17
usemtl Tex_0002_0_png
f 33/33/29 35/34/30 36/35/31
f 36/36/32 35/34/33 37/37/34
f 37/38/35 35/39/36 38/40/37
f 37/38/35 38/40/37 39/41/38
f 40/42/39 42/43/40 43/44/41
f 43/45/41 34/46/42 33/47/43
f 39/48/38 38/49/37 41/50/44
f 39/48/45 41/50/46 40/51/39
usemtl Tex_0003_0_png
f 44/52/47 45/53/48 46/54/49
f 44/52/47 46/54/49 47/55/50
f 48/56/51 49/57/52 45/58/48
f 48/56/51 45/58/48 44/59/47
f 50/60/12 51/61/53 49/62/52
f 50/60/12 49/62/52 48/63/51
f 52/64/26 53/65/54 51/66/53
f 52/64/26 51/66/53 50/67/12
f 54/68/55 55/69/56 53/70/54
f 54/68/55 53/70/54 52/71/26
f 46/72/57 56/73/58 57/74/59
f 46/72/60 57/74/61 55/75/62
f 45/53/48 58/76/63 56/77/64
f 45/53/48 56/77/64 46/54/49
f 49/57/52 59/78/65 58/79/63
f 49/57/52 58/79/63 45/58/48
f 51/61/53 60/80/66 59/81/65
f 51/61/53 59/81/65 49/62/52
f 53/65/54 61/82/67 60/83/66
f 53/65/54 60/83/66 51/66/53
f 55/69/56 57/84/68 61/85/67
f 55/69/56 61/85/67 53/70/54
usemtl Tex_0004_0_png
f 62/86/69 63/87/70 64/88/71
f 65/89/72 66/90/73 62/86/74
f 65/89/72 62/86/74 67/91/75
f 68/92/76 65/89/77 67/91/75
f 68/92/76 67/91/75 69/93/78
f 64/88/71 63/87/70 70/94/79
f 64/88/80 70/94/81 71/95/82
f 71/95/82 70/94/83 68/92/84
f 71/95/82 68/92/84 69/93/85
f 62/86/69 66/90/86 63/87/70
usemtl Tex_0005_0_png
f 72/96/87 73/97/88 74/98/89
f 72/96/87 74/98/89 75/99/90
f 76/100/91 77/101/92 78/102/93
f 77/103/94 74/104/94 78/105/95
f 78/105/95 74/104/94 73/106/96
f 79/107/97 80/108/98 81/109/99
f 82/110/100 83/111/101 84/112/102
f 82/110/100 84/112/102 85/113/103
f 86/114/104 85/115/103 84/116/102
f 86/114/104 84/116/102 87/117/105
f 86/118/104 87/119/105 79/107/97
f 86/118/104 79/107/97 81/109/99
f 88/120/106 89/121/107 85/122/103
f 88/120/106 85/122/103 86/123/104
f 90/124/108 91/125/109 92/126/110
f 90/124/108 92/126/110 93/127/111
f 91/128/109 94/129/112 95/130/113
f 91/128/109 95/130/113 92/131/110
f 96/132/114 97/133/115 98/134/116
f 97/135/115 72/136/87 100/137/117
f 97/135/115 100/137/117 98/138/116
f 72/96/87 75/99/90 101/139/118
f 72/96/87 101/139/118 100/140/117
f 76/100/91 90/141/108 93/142/111
f 76/100/91 93/142/111 102/143/119
f 80/144/98 102/145/119 93/146/111
f 82/147/100 100/148/117 101/149/118
f 82/147/100 101/149/118 103/150/120
f 81/151/99 80/152/98 93/153/111
f 81/151/99 93/153/111 92/154/110
f 104/155/121 98/156/116 100/157/117
f 104/155/121 100/157/117 82/158/100
f 105/159/122 81/160/99 92/161/110
f 105/159/122 92/161/110 95/162/113
f 98/163/116 104/164/121 106/165/123
f 98/163/116 106/165/123 99/166/124
f 83/111/101 82/110/100 103/167/120
f 79/107/97 107/168/125 80/108/98
f 96/132/114 108/169/126 97/133/115
f 97/135/115 108/170/126 73/171/88
f 97/135/115 73/171/88 72/136/87
f 82/110/100 85/113/103 104/172/121
f 90/124/108 78/173/93 109/174/127
f 90/124/108 109/174/127 91/125/109
f 81/175/99 105/176/122 88/120/106
f 81/175/99 88/120/106 86/123/104
f 75/177/90 74/178/89 77/179/92
f 75/177/90 77/179/92 76/180/91
f 84/116/102 110/181/128 111/182/129
f 84/116/102 111/182/129 87/117/105
f 107/168/125 79/107/97 112/183/130
f 104/184/121 85/122/103 89/121/107
f 104/184/121 89/121/107 106/185/123
f 83/111/101 110/186/128 84/112/102
f 111/187/129 112/183/130 79/107/97
f 111/187/129 79/107/97 87/119/105
f 91/128/109 109/188/127 113/189/131
f 76/100/91 78/102/93 90/141/108
f 91/128/109 113/189/131 94/129/112
f 96/132/114 114/190/132 108/169/126
f 78/105/95 73/106/96 109/191/133
f 109/191/133 73/106/96 108/192/134
f 109/191/133 108/192/134 113/193/135
f 113/193/135 108/192/134 114/194/136
f 115/195/137 116/196/138 117/197/139
f 99/198/140 118/199/141 119/200/142
f 118/201/141 120/202/143 121/203/144
f 118/201/141 121/203/144 119/204/145
f 122/205/146 123/206/147 103/207/120
f 122/205/146 103/207/120 124/208/148
f 107/168/125 122/209/146 124/210/148
f 107/168/125 124/210/148 80/108/98
f 125/211/149 119/212/150 121/213/144
f 83/111/101 103/167/120 123/214/147
f 126/215/151 96/216/114 99/217/152
f 126/215/151 99/217/124 119/218/145
f 126/215/151 127/219/153 114/220/132
f 126/215/151 114/220/132 96/216/114
f 113/193/135 114/194/136 128/221/154
f 128/221/154 114/194/136 127/222/155
f 128/221/154 127/222/155 129/223/156
f 127/222/155 130/224/157 129/223/156
f 75/177/90 76/180/91 102/225/119
f 131/226/158 132/227/159 133/228/160
f 134/229/161 135/230/162 136/231/163
f 134/232/161 106/233/123 89/234/107
f 134/232/161 89/234/107 135/235/162
f 75/177/90 102/225/119 101/236/118
f 94/237/112 113/238/131 128/239/164
f 94/237/112 128/239/164 137/240/165
f 101/241/118 102/242/119 124/243/148
f 123/244/147 122/245/146 138/246/166
f 123/244/147 138/246/166 139/247/167
f 83/111/101 123/214/147 139/248/167
f 83/111/101 139/248/167 140/249/168
f 101/241/118 124/243/148 103/250/120
f 107/168/125 112/183/130 141/251/169
f 122/209/146 107/168/125 141/251/169
f 122/209/146 141/251/169 138/252/166
f 80/144/98 124/253/148 102/145/119
f 133/254/160 135/235/162 89/234/107
f 131/255/158 133/254/160 88/256/106
f 131/255/158 88/256/106 105/257/122
f 83/111/101 140/249/168 110/186/128
f 133/254/160 89/234/107 88/256/106
f 137/258/165 128/259/164 129/260/170
f 137/258/165 129/260/170 142/261/171
f 141/251/169 110/186/128 140/249/168
f 141/251/169 140/249/168 139/248/167
f 112/183/130 110/186/128 141/251/169
f 141/251/169 139/248/167 138/252/166
f 95/262/113 115/263/137 131/264/158
f 95/262/113 131/264/158 105/265/122
f 131/266/158 115/267/137 117/268/139
f 131/266/158 117/268/139 132/269/159
f 134/270/161 136/271/163 120/272/143
f 134/270/161 120/272/143 118/273/141
f 99/198/124 106/274/123 134/275/161
f 99/198/124 134/275/161 118/199/141
f 125/211/149 130/276/172 127/277/153
f 125/211/149 127/277/153 126/278/151
f 94/237/112 137/240/165 143/279/173
f 94/237/112 143/279/173 95/280/113
f 137/258/165 142/261/171 116/281/174
f 137/258/165 116/281/174 143/282/173
f 125/211/149 126/278/151 119/212/150
f 95/262/113 143/283/173 115/263/137
f 115/195/137 143/284/173 116/196/138
f 121/285/144 117/286/139 116/287/175
f 142/288/171 130/289/172 125/290/149
f 135/230/162 133/228/160 132/227/159
f 135/230/162 132/227/159 136/231/163
f 120/291/143 136/292/163 132/293/159
f 120/291/143 132/293/159 117/294/139
f 142/288/171 125/290/149 121/295/144
f 142/288/171 121/295/144 116/296/138
f 142/288/171 129/297/170 130/289/172
f 121/285/144 120/298/143 117/286/139
