# Blender v2.82 (sub 7) OBJ File: ''
# www.blender.org
mtllib PiernaDer.mtl
o PiernaDer_Mesh_Body_0.005
v -0.004857 -0.834513 0.005622
v -0.015157 -0.834163 0.011319
v -0.015957 -0.845754 0.012420
v -0.036157 -0.833901 0.007016
v -0.036757 -0.844696 0.007610
v -0.026457 -0.833957 0.012017
v -0.016857 -0.010966 -0.049867
v 0.009143 -0.021119 -0.044478
v 0.008143 -0.040874 -0.039206
v 0.025443 -0.043994 -0.018578
v 0.007743 -0.063742 -0.035406
v 0.025843 -0.065083 -0.017194
v -0.015557 -0.060686 -0.040533
v -0.016757 -0.035126 -0.045156
v -0.035557 -0.057204 -0.031163
v -0.038657 -0.029334 -0.034706
v -0.040457 -0.001770 -0.038947
v -0.052057 -0.024863 -0.015145
v -0.033557 0.036588 0.036321
v -0.035657 0.006640 0.030982
v -0.003957 0.029854 0.055381
v -0.011457 -0.000961 0.042349
v -0.036657 -0.023986 0.028149
v -0.046457 -0.052967 0.007501
v -0.033957 -0.053917 0.024710
v -0.013557 -0.057138 0.033739
v -0.013557 -0.029099 0.038094
v 0.009843 -0.061180 0.028974
v 0.010843 -0.036845 0.032862
v 0.012643 -0.015705 0.037277
v 0.020343 0.000553 0.043936
v 0.026343 -0.042637 0.010911
v 0.026543 -0.027322 0.012578
v 0.030743 -0.019797 0.015312
v 0.025943 -0.030415 -0.021096
v 0.025443 -0.043994 -0.018578
v 0.026243 -0.064250 0.009500
v 0.025843 -0.065083 -0.017194
v 0.025143 -0.115462 0.008347
v 0.010243 -0.114098 0.027136
v -0.011957 -0.112241 0.033620
v -0.033157 -0.110703 0.026506
v -0.046457 -0.110353 0.009302
v -0.046557 -0.111041 -0.012192
v -0.046957 -0.054348 -0.013287
v -0.034557 -0.112501 -0.030480
v -0.013857 -0.114078 -0.039367
v 0.008743 -0.115230 -0.033857
v 0.024843 -0.115874 -0.015950
v -0.013857 -0.168459 -0.036892
v -0.034157 -0.167484 -0.028401
v -0.047157 -0.166731 -0.010806
v -0.046857 -0.166441 0.010992
v 0.022643 -0.169663 -0.014481
v 0.007843 -0.169212 -0.031586
v 0.006343 -0.224108 -0.030807
v -0.014657 -0.223254 -0.036114
v -0.034657 -0.222781 -0.027718
v -0.047657 -0.222730 -0.010418
v -0.047157 -0.223241 0.011188
v -0.033357 -0.166790 0.028296
v -0.011857 -0.167739 0.034104
v 0.009443 -0.168804 0.026613
v 0.022843 -0.169564 0.008319
v 0.024843 -0.115874 -0.015950
v 0.022643 -0.169663 -0.014481
v -0.033757 -0.224092 0.028296
v -0.012357 -0.224948 0.033303
v 0.008543 -0.225414 0.025707
v 0.021443 -0.225372 0.007706
v 0.020743 -0.224864 -0.014299
v -0.034057 -0.281511 0.026297
v -0.047857 -0.280455 0.009787
v -0.048657 -0.279643 -0.011721
v -0.035857 -0.279396 -0.029224
v -0.015857 -0.279567 -0.037423
v 0.005143 -0.280221 -0.032117
v 0.019443 -0.281279 -0.015807
v 0.020743 -0.224864 -0.014299
v 0.018143 -0.338894 -0.017304
v 0.004243 -0.338037 -0.033712
v -0.016757 -0.337379 -0.038518
v -0.036557 -0.337106 -0.030120
v -0.048757 -0.337352 -0.012518
v 0.017043 -0.367897 -0.017451
v 0.003243 -0.367235 -0.033358
v 0.002243 -0.396232 -0.032905
v 0.015743 -0.396797 -0.017399
v -0.017957 -0.395569 -0.037111
v -0.017357 -0.366575 -0.037964
v -0.036757 -0.395298 -0.028913
v -0.036757 -0.366204 -0.029766
v -0.048457 -0.395252 -0.012212
v -0.048857 -0.366354 -0.012565
v -0.047657 -0.395676 0.007892
v -0.048057 -0.366772 0.008240
v -0.048257 -0.337967 0.008689
v -0.034257 -0.338830 0.024397
v -0.012857 -0.282274 0.030603
v 0.007543 -0.282438 0.023205
v 0.020343 -0.282090 0.005801
v 0.019443 -0.281279 -0.015807
v 0.019043 -0.339408 0.004001
v 0.018143 -0.338894 -0.017304
v -0.013357 -0.339297 0.028201
v 0.006743 -0.339557 0.021303
v 0.006243 -0.368262 0.020853
v 0.018143 -0.368313 0.003553
v 0.017043 -0.367897 -0.017451
v 0.016943 -0.397116 0.003305
v 0.015743 -0.396797 -0.017399
v -0.013557 -0.367903 0.027651
v -0.034157 -0.367437 0.023746
v -0.013857 -0.396705 0.027502
v -0.033857 -0.396346 0.022899
v 0.005643 -0.397066 0.020505
v -0.014157 -0.425807 0.027456
v 0.005143 -0.426069 0.020358
v 0.016043 -0.425920 0.003056
v 0.014843 -0.425698 -0.017347
v -0.047757 -0.424579 0.007744
v -0.048657 -0.424151 -0.011960
v -0.037257 -0.424196 -0.028660
v -0.018657 -0.424471 -0.037158
v 0.001343 -0.425132 -0.032752
v 0.014843 -0.425698 -0.017347
v -0.033857 -0.425252 0.022251
v -0.031657 -0.025266 0.018960
v -0.040757 -0.016144 -0.012921
v -0.020957 0.017352 0.032289
v -0.022057 -0.007817 0.035909
v -0.044657 -0.066705 0.003121
v -0.048257 -0.056862 -0.026366
v -0.054757 -0.108833 -0.011312
v -0.028257 -0.028982 0.028593
v -0.019857 -0.010359 0.042631
v -0.016057 0.013746 0.043021
v -0.026457 -0.031524 0.035215
v -0.035157 -0.049752 0.020674
v -0.033757 -0.052394 0.027297
v -0.041657 -0.073165 0.019278
v -0.042457 -0.070622 0.012756
v -0.049257 -0.091688 0.005239
v -0.033457 -0.008186 -0.052192
vt 0.008200 -0.805300
vt 0.004600 -0.805500
vt 0.004300 -0.793900
vt 0.014100 -0.806000
vt 0.013800 -0.795000
vt 0.007200 -0.805800
vt 0.934000 -0.445500
vt 0.952900 -0.455500
vt 0.948300 -0.469500
vt 0.966400 -0.477700
vt 0.944100 -0.485100
vt 0.961300 -0.490000
vt 0.927000 -0.480200
vt 0.930300 -0.462300
vt 0.910400 -0.476400
vt 0.912900 -0.456900
vt 0.915900 -0.438300
vt 0.895700 -0.453100
vt 0.859900 -0.409000
vt 0.860100 -0.429500
vt 0.835500 -0.408500
vt 0.839600 -0.432600
vt 0.860600 -0.450700
vt 0.877600 -0.472100
vt 0.860700 -0.472200
vt 0.843100 -0.474300
vt 0.841300 -0.453500
vt 0.824800 -0.478400
vt 0.821300 -0.459600
vt 0.818900 -0.442900
vt 0.815000 -0.428800
vt 0.801500 -0.468400
vt 0.796800 -0.457000
vt 0.794000 -0.450000
vt 0.776900 -0.472300
vt 0.782800 -0.479400
vt 0.806300 -0.484100
vt 0.788800 -0.490800
vt 0.811700 -0.519300
vt 0.828000 -0.516600
vt 0.844400 -0.514300
vt 0.860500 -0.513100
vt 0.876300 -0.512700
vt 0.891900 -0.513400
vt 0.894000 -0.473500
vt 0.907700 -0.514900
vt 0.923600 -0.517000
vt 0.939600 -0.519300
vt 0.956000 -0.521700
vt 0.921600 -0.554000
vt 0.906200 -0.553000
vt 0.891000 -0.552200
vt 0.875800 -0.552000
vt 0.952400 -0.556500
vt 0.937000 -0.555300
vt 0.935500 -0.592400
vt 0.920500 -0.591600
vt 0.905600 -0.591100
vt 0.890700 -0.591000
vt 0.875900 -0.591200
vt 0.860700 -0.552300
vt 0.845400 -0.553200
vt 0.830100 -0.554500
vt 0.814700 -0.556100
vt 0.795500 -0.522300
vt 0.799400 -0.557600
vt 0.861200 -0.591700
vt 0.846300 -0.592400
vt 0.831300 -0.593200
vt 0.816400 -0.593900
vt 0.801500 -0.594700
vt 0.861600 -0.631000
vt 0.876200 -0.630400
vt 0.890800 -0.630200
vt 0.905500 -0.630200
vt 0.920200 -0.630300
vt 0.934900 -0.630800
vt 0.949700 -0.631400
vt 0.950500 -0.593200
vt 0.948900 -0.670800
vt 0.934300 -0.670200
vt 0.919700 -0.669700
vt 0.905200 -0.669500
vt 0.890700 -0.669500
vt 0.948000 -0.690700
vt 0.933600 -0.690000
vt 0.932900 -0.709900
vt 0.947000 -0.710500
vt 0.918700 -0.709400
vt 0.919300 -0.689500
vt 0.904600 -0.709100
vt 0.904900 -0.689300
vt 0.890500 -0.709000
vt 0.890600 -0.689200
vt 0.876600 -0.709200
vt 0.876500 -0.689400
vt 0.876400 -0.669700
vt 0.862000 -0.670200
vt 0.846900 -0.631600
vt 0.832200 -0.632100
vt 0.817400 -0.632600
vt 0.802700 -0.633000
vt 0.818600 -0.671700
vt 0.804000 -0.672200
vt 0.847600 -0.670700
vt 0.833100 -0.671200
vt 0.833700 -0.690800
vt 0.819300 -0.691300
vt 0.805000 -0.691900
vt 0.820200 -0.711000
vt 0.806100 -0.711600
vt 0.848000 -0.690300
vt 0.862300 -0.689900
vt 0.848400 -0.710100
vt 0.862600 -0.709600
vt 0.834300 -0.710500
vt 0.848900 -0.729900
vt 0.834900 -0.730300
vt 0.820900 -0.730700
vt 0.806900 -0.731100
vt 0.876700 -0.729000
vt 0.890300 -0.728900
vt 0.904200 -0.728900
vt 0.918300 -0.729200
vt 0.932300 -0.729600
vt 0.946300 -0.730200
vt 0.862900 -0.729400
vt 0.747400 -0.829800
vt 0.735200 -0.829500
vt 0.748400 -0.813300
vt 0.752200 -0.821900
vt 0.746000 -0.846200
vt 0.734300 -0.845400
vt 0.745100 -0.862800
vt 0.751400 -0.830200
vt 0.755100 -0.822200
vt 0.752900 -0.813600
vt 0.754100 -0.830500
vt 0.750500 -0.838500
vt 0.753200 -0.838800
vt 0.752500 -0.847100
vt 0.749900 -0.846700
vt 0.749500 -0.855000
vt 0.719100 -0.829800
vn 0.4847 0.0495 0.8733
vn -0.4566 0.0742 0.8866
vn -0.2385 -0.1992 -0.9505
vn 0.2906 -0.2604 -0.9207
vn 0.4840 -0.1927 -0.8536
vn 0.7313 -0.1057 -0.6739
vn 0.4905 -0.0756 -0.8682
vn 0.7077 -0.0320 -0.7057
vn -0.1231 -0.1068 -0.9866
vn -0.1463 -0.1837 -0.9720
vn -0.6684 -0.1013 -0.7369
vn -0.6718 -0.1644 -0.7223
vn -0.6209 -0.1608 -0.7672
vn -0.8310 -0.1608 -0.5325
vn -0.5555 -0.1080 0.8245
vn -0.4851 -0.1273 0.8651
vn -0.3381 -0.2624 0.9038
vn -0.2409 -0.2362 0.9414
vn -0.4963 -0.1176 0.8602
vn -0.9216 -0.0330 0.3868
vn -0.6342 -0.0683 0.7702
vn -0.1171 -0.0732 0.9904
vn -0.1498 -0.1533 0.9767
vn 0.5050 -0.0821 0.8592
vn 0.4967 -0.1804 0.8489
vn 0.3801 -0.3573 0.8531
vn 0.1823 -0.4454 0.8766
vn 0.9588 -0.0419 0.2811
vn 0.9093 -0.2949 0.2937
vn 0.7093 -0.5512 0.4393
vn 0.9950 -0.0997 -0.0086
vn 0.9997 -0.0123 -0.0201
vn 0.9470 -0.0302 0.3200
vn 0.9999 -0.0013 -0.0146
vn 0.9474 -0.0304 0.3187
vn 0.5607 -0.0185 0.8278
vn -0.0194 0.0003 0.9998
vn -0.5837 0.0174 0.8118
vn -0.9454 0.0134 0.3257
vn -0.9582 -0.0082 -0.2860
vn -0.9315 -0.0718 -0.3566
vn -0.6421 -0.0269 -0.7661
vn -0.0835 -0.0321 -0.9960
vn 0.5136 -0.0297 -0.8575
vn 0.7377 -0.0312 -0.6744
vn -0.0781 -0.0289 -0.9965
vn -0.6202 -0.0141 -0.7843
vn -0.9525 0.0045 -0.3046
vn -0.9425 0.0126 0.3339
vn 0.7536 -0.0352 -0.6564
vn 0.5221 -0.0350 -0.8522
vn 0.5235 -0.0080 -0.8520
vn -0.0738 0.0063 -0.9973
vn -0.6154 0.0148 -0.7881
vn -0.9531 0.0146 -0.3023
vn -0.9402 0.0056 0.3405
vn -0.5540 0.0116 0.8324
vn 0.0364 -0.0046 0.9993
vn 0.5933 -0.0218 0.8047
vn 0.9509 -0.0327 0.3077
vn 0.9995 -0.0310 -0.0114
vn 0.9993 -0.0342 -0.0115
vn -0.5370 -0.0116 0.8435
vn 0.0593 -0.0296 0.9978
vn 0.6019 -0.0349 0.7978
vn 0.9551 -0.0306 0.2946
vn 0.9991 -0.0269 -0.0336
vn -0.5129 -0.0268 0.8580
vn -0.9348 -0.0023 0.3553
vn -0.9562 0.0155 -0.2923
vn -0.6166 0.0261 -0.7869
vn -0.0709 0.0223 -0.9972
vn 0.5218 0.0091 -0.8530
vn 0.7521 -0.0002 -0.6590
vn 0.7535 -0.0146 -0.6572
vn 0.7614 -0.0106 -0.6481
vn 0.5181 -0.0049 -0.8553
vn -0.0857 0.0030 -0.9963
vn -0.6289 0.0053 -0.7775
vn -0.9576 0.0049 -0.2881
vn 0.7556 -0.0331 -0.6542
vn 0.5104 -0.0317 -0.8593
vn 0.5047 -0.0250 -0.8629
vn 0.7533 -0.0298 -0.6570
vn -0.1005 -0.0113 -0.9949
vn -0.0915 -0.0233 -0.9955
vn -0.6335 -0.0061 -0.7737
vn -0.6282 -0.0133 -0.7779
vn -0.9597 -0.0047 -0.2811
vn -0.9583 -0.0083 -0.2856
vn -0.9242 -0.0073 0.3819
vn -0.9269 -0.0166 0.3750
vn -0.9308 -0.0071 0.3655
vn -0.4917 -0.0256 0.8704
vn 0.0740 -0.0435 0.9963
vn 0.5987 -0.0407 0.8000
vn 0.9564 -0.0292 0.2905
vn 0.9989 -0.0216 -0.0424
vn 0.9597 -0.0318 0.2792
vn 0.9986 -0.0295 -0.0429
vn 0.0749 -0.0307 0.9967
vn 0.5985 -0.0302 0.8005
vn 0.6036 -0.0244 0.7969
vn 0.9627 -0.0359 0.2683
vn 0.9979 -0.0379 -0.0520
vn 0.9651 -0.0380 0.2591
vn 0.9976 -0.0380 -0.0585
vn 0.0731 -0.0143 0.9972
vn -0.4946 -0.0209 0.8689
vn 0.0597 -0.0120 0.9981
vn -0.5019 -0.0212 0.8646
vn 0.6178 -0.0207 0.7860
vn 0.0475 -0.0039 0.9989
vn 0.6279 -0.0148 0.7781
vn 0.9667 -0.0281 0.2543
vn 0.9978 -0.0312 -0.0590
vn -0.9188 -0.0036 0.3948
vn -0.9628 0.0030 -0.2702
vn -0.6439 0.0017 -0.7651
vn -0.1023 0.0002 -0.9948
vn 0.5078 -0.0178 -0.8613
vn 0.7522 -0.0260 -0.6584
vn -0.4995 -0.0121 0.8662
vn 0.9261 -0.1483 -0.3469
vn 0.9754 -0.1805 -0.1265
vn 0.9097 -0.1120 -0.3998
vn 0.9116 -0.1192 -0.3933
vn 0.9539 -0.1776 -0.2417
vn 0.9816 -0.1644 -0.0966
vn 0.9714 -0.1795 -0.1557
vn 0.9193 -0.1595 -0.3599
vn 0.9224 -0.1467 -0.3573
vn 0.8914 -0.1024 -0.4414
vn 0.9293 -0.1917 -0.3157
vn 0.9283 -0.1959 -0.3162
vn 0.9299 -0.2288 -0.2879
vn 0.9416 -0.2478 -0.2280
vn 0.9377 -0.2197 -0.2693
vn 0.9695 -0.1915 -0.1532
vn 0.9657 -0.2223 0.1345
vn 0.3953 0.8395 -0.3728
usemtl Rick_Color.png.003
s 1
f 1/1/1 2/2/1 3/3/1
f 4/4/2 5/5/2 6/6/2
f 7/7/3 8/8/4 9/9/5
f 9/9/5 8/8/4 10/10/6
f 11/11/7 9/9/5 10/10/6
f 12/12/8 11/11/7 10/10/6
f 11/11/7 13/13/9 9/9/5
f 14/14/10 7/7/3 9/9/5
f 13/13/9 14/14/10 9/9/5
f 13/13/9 15/15/11 14/14/10
f 15/15/11 16/16/12 14/14/10
f 16/16/12 17/17/13 14/14/10
f 17/17/13 7/7/3 14/14/10
f 16/16/12 18/18/14 17/17/13
f 19/19/15 20/20/16 21/21/17
f 20/20/16 22/22/18 21/21/17
f 22/22/18 20/20/16 23/23/19
f 24/24/20 25/25/21 23/23/19
f 25/25/21 26/26/22 23/23/19
f 27/27/23 22/22/18 23/23/19
f 26/26/22 27/27/23 23/23/19
f 26/26/22 28/28/24 27/27/23
f 28/28/24 29/29/25 27/27/23
f 30/30/26 22/22/18 27/27/23
f 21/21/17 22/22/18 30/30/26
f 29/29/25 30/30/26 27/27/23
f 31/31/27 21/21/17 30/30/26
f 29/29/25 32/32/28 30/30/26
f 32/32/28 33/33/29 30/30/26
f 34/34/30 31/31/27 30/30/26
f 33/33/29 34/34/30 30/30/26
f 33/33/29 35/35/31 34/34/30
f 36/36/32 35/35/31 33/33/29
f 32/32/28 36/36/32 33/33/29
f 32/32/28 29/29/25 37/37/33
f 32/32/28 37/37/33 36/36/32
f 29/29/25 28/28/24 37/37/33
f 37/37/33 38/38/34 36/36/32
f 38/38/34 37/37/33 39/39/35
f 37/37/33 28/28/24 40/40/36
f 39/39/35 37/37/33 40/40/36
f 28/28/24 26/26/22 41/41/37
f 40/40/36 28/28/24 41/41/37
f 42/42/38 25/25/21 24/24/20
f 26/26/22 25/25/21 42/42/38
f 41/41/37 26/26/22 42/42/38
f 43/43/39 42/42/38 24/24/20
f 44/44/40 43/43/39 24/24/20
f 45/45/41 18/18/14 16/16/12
f 45/45/41 44/44/40 24/24/20
f 15/15/11 45/45/41 16/16/12
f 15/15/11 46/46/42 45/45/41
f 46/46/42 44/44/40 45/45/41
f 15/15/11 13/13/9 47/47/43
f 46/46/42 15/15/11 47/47/43
f 47/47/43 13/13/9 48/48/44
f 13/13/9 11/11/7 48/48/44
f 11/11/7 12/12/8 49/49/45
f 48/48/44 11/11/7 49/49/45
f 47/47/43 50/50/46 46/46/42
f 46/46/42 51/51/47 44/44/40
f 50/50/46 51/51/47 46/46/42
f 51/51/47 52/52/48 44/44/40
f 52/52/48 53/53/49 44/44/40
f 53/53/49 43/43/39 44/44/40
f 42/42/38 43/43/39 53/53/49
f 48/48/44 49/49/45 54/54/50
f 55/55/51 48/48/44 54/54/50
f 50/50/46 47/47/43 55/55/51
f 47/47/43 48/48/44 55/55/51
f 55/55/51 56/56/52 50/50/46
f 56/56/52 57/57/53 50/50/46
f 50/50/46 57/57/53 51/51/47
f 57/57/53 58/58/54 51/51/47
f 59/59/55 52/52/48 51/51/47
f 58/58/54 59/59/55 51/51/47
f 53/53/49 52/52/48 59/59/55
f 60/60/56 53/53/49 59/59/55
f 61/61/57 42/42/38 53/53/49
f 61/61/57 53/53/49 60/60/56
f 41/41/37 42/42/38 61/61/57
f 40/40/36 41/41/37 62/62/58
f 62/62/58 41/41/37 61/61/57
f 63/63/59 40/40/36 62/62/58
f 39/39/35 40/40/36 63/63/59
f 64/64/60 39/39/35 63/63/59
f 65/65/61 39/39/35 64/64/60
f 65/65/61 38/38/34 39/39/35
f 66/66/62 65/65/61 64/64/60
f 67/67/63 61/61/57 60/60/56
f 62/62/58 61/61/57 67/67/63
f 68/68/64 62/62/58 67/67/63
f 63/63/59 62/62/58 68/68/64
f 64/64/60 63/63/59 69/69/65
f 69/69/65 63/63/59 68/68/64
f 66/66/62 64/64/60 70/70/66
f 70/70/66 64/64/60 69/69/65
f 71/71/67 66/66/62 70/70/66
f 68/68/64 67/67/63 72/72/68
f 67/67/63 60/60/56 73/73/69
f 72/72/68 67/67/63 73/73/69
f 60/60/56 59/59/55 74/74/70
f 73/73/69 60/60/56 74/74/70
f 74/74/70 59/59/55 75/75/71
f 59/59/55 58/58/54 75/75/71
f 75/75/71 58/58/54 57/57/53
f 76/76/72 75/75/71 57/57/53
f 77/77/73 76/76/72 57/57/53
f 56/56/52 77/77/73 57/57/53
f 78/78/74 77/77/73 56/56/52
f 55/55/51 54/54/50 79/79/75
f 79/79/75 78/78/74 56/56/52
f 56/56/52 55/55/51 79/79/75
f 78/78/74 80/80/76 77/77/73
f 80/80/76 81/81/77 77/77/73
f 81/81/77 82/82/78 77/77/73
f 75/75/71 76/76/72 82/82/78
f 82/82/78 76/76/72 77/77/73
f 83/83/79 75/75/71 82/82/78
f 74/74/70 75/75/71 83/83/79
f 84/84/80 74/74/70 83/83/79
f 73/73/69 74/74/70 84/84/80
f 81/81/77 80/80/76 85/85/81
f 86/86/82 81/81/77 85/85/81
f 82/82/78 81/81/77 86/86/82
f 87/87/83 86/86/82 85/85/81
f 88/88/84 87/87/83 85/85/81
f 87/87/83 89/89/85 86/86/82
f 90/90/86 82/82/78 86/86/82
f 89/89/85 90/90/86 86/86/82
f 83/83/79 82/82/78 90/90/86
f 89/89/85 91/91/87 90/90/86
f 91/91/87 92/92/88 90/90/86
f 92/92/88 83/83/79 90/90/86
f 84/84/80 83/83/79 92/92/88
f 91/91/87 93/93/89 92/92/88
f 94/94/90 84/84/80 92/92/88
f 93/93/89 94/94/90 92/92/88
f 93/93/89 95/95/91 94/94/90
f 95/95/91 96/96/92 94/94/90
f 72/72/68 73/73/69 97/97/93
f 97/97/93 84/84/80 94/94/90
f 96/96/92 97/97/93 94/94/90
f 97/97/93 73/73/69 84/84/80
f 98/98/94 97/97/93 96/96/92
f 98/98/94 72/72/68 97/97/93
f 99/99/95 68/68/64 72/72/68
f 99/99/95 72/72/68 98/98/94
f 69/69/65 68/68/64 99/99/95
f 100/100/96 69/69/65 99/99/95
f 70/70/66 69/69/65 100/100/96
f 101/101/97 70/70/66 100/100/96
f 71/71/67 70/70/66 101/101/97
f 102/102/98 71/71/67 101/101/97
f 101/101/97 103/103/99 102/102/98
f 103/103/99 104/104/100 102/102/98
f 105/105/101 99/99/95 98/98/94
f 100/100/96 99/99/95 105/105/101
f 103/103/99 101/101/97 106/106/102
f 101/101/97 100/100/96 106/106/102
f 106/106/102 100/100/96 105/105/101
f 106/106/102 107/107/103 103/103/99
f 107/107/103 108/108/104 103/103/99
f 108/108/104 109/109/105 103/103/99
f 109/109/105 104/104/100 103/103/99
f 108/108/104 110/110/106 109/109/105
f 110/110/106 111/111/107 109/109/105
f 107/107/103 106/106/102 112/112/108
f 106/106/102 105/105/101 112/112/108
f 112/112/108 105/105/101 113/113/109
f 105/105/101 98/98/94 113/113/109
f 113/113/109 98/98/94 96/96/92
f 114/114/110 112/112/108 113/113/109
f 115/115/111 114/114/110 113/113/109
f 95/95/91 115/115/111 96/96/92
f 115/115/111 113/113/109 96/96/92
f 114/114/110 116/116/112 112/112/108
f 108/108/104 107/107/103 116/116/112
f 110/110/106 108/108/104 116/116/112
f 116/116/112 107/107/103 112/112/108
f 114/114/110 117/117/113 116/116/112
f 117/117/113 118/118/114 116/116/112
f 111/111/107 110/110/106 119/119/115
f 118/118/114 119/119/115 116/116/112
f 119/119/115 110/110/106 116/116/112
f 120/120/116 111/111/107 119/119/115
f 115/115/111 95/95/91 121/121/117
f 121/121/117 95/95/91 122/122/118
f 95/95/91 93/93/89 122/122/118
f 93/93/89 91/91/87 123/123/119
f 122/122/118 93/93/89 123/123/119
f 123/123/119 91/91/87 124/124/120
f 91/91/87 89/89/85 124/124/120
f 124/124/120 89/89/85 125/125/121
f 89/89/85 87/87/83 125/125/121
f 125/125/121 87/87/83 126/126/122
f 87/87/83 88/88/84 126/126/122
f 127/127/123 115/115/111 121/121/117
f 114/114/110 115/115/111 127/127/123
f 117/117/113 114/114/110 127/127/123
f 128/128/124 129/129/125 130/130/126
f 131/131/127 128/128/124 130/130/126
f 129/129/125 128/128/124 132/132/128
f 133/133/129 129/129/125 132/132/128
f 132/132/128 134/134/130 133/133/129
f 131/131/127 135/135/131 128/128/124
f 135/135/131 131/131/127 136/136/132
f 137/137/133 131/131/127 130/130/126
f 135/135/131 138/138/134 139/139/135
f 138/138/134 140/140/136 139/139/135
f 132/132/128 128/128/124 139/139/135
f 128/128/124 135/135/131 139/139/135
f 139/139/135 140/140/136 141/141/137
f 142/142/138 132/132/128 139/139/135
f 142/142/138 139/139/135 141/141/137
f 132/132/128 142/142/138 143/143/139
f 134/134/130 132/132/128 143/143/139
f 129/129/125 133/133/129 144/144/140
f 8/8/141 7/7/141 17/17/141 20/20/141 19/19/141 21/21/141 31/31/141 34/34/141 35/35/141 10/10/141
