# Blender v2.82 (sub 7) OBJ File: ''
# www.blender.org
mtllib BrazoDere.mtl
o BrazoDere
v 2.224423 -7.778130 0.413642
v 2.836622 -7.732729 0.718642
v 1.442522 -1.144329 1.276640
v -0.137277 -1.669828 1.420940
v 2.111822 -7.672628 -0.448358
v -0.878777 -2.027529 0.024140
v -0.259678 -1.750630 -1.480260
v 1.437722 -1.082829 -1.575160
v 2.290023 -0.894829 -0.197660
v 3.497223 -7.588428 -0.272258
v 2.886422 -7.580429 -0.842758
v 3.530823 -7.666430 0.414242
v 0.626223 0.563271 0.886340
v -0.633178 -0.148529 1.015340
v -1.077577 -0.763229 0.112040
v -0.641077 -0.342228 -1.114460
v 0.626823 0.363272 -1.223660
v 1.338823 0.487671 -0.240460
vt 0.000000 0.000000
vt 1.000000 0.000000
vt 1.000000 -1.000000
vt 0.000000 -1.000000
vt 0.000000 0.000000
vt 1.000000 0.000000
vt 1.000000 -1.000000
vt 0.000000 -1.000000
vt 0.000000 0.000000
vt 1.000000 0.000000
vt 1.000000 -1.000000
vt 0.000000 0.000000
vt 1.000000 0.000000
vt 1.000000 -1.000000
vt 0.000000 -1.000000
vt 0.000000 0.000000
vt 1.000000 0.000000
vt 1.000000 -1.000000
vt 0.000000 -1.000000
vt 0.000000 0.000000
vt 1.000000 0.000000
vt 1.000000 0.000000
vt 1.000000 -1.000000
vt 0.000000 -1.000000
vt 0.000000 0.000000
vt 1.000000 0.000000
vt 1.000000 -1.000000
vt 0.000000 0.000000
vt 1.000000 0.000000
vt 1.000000 -1.000000
vt 0.000000 0.000000
vt 1.000000 0.000000
vt 1.000000 -1.000000
vt 0.000000 -1.000000
vt 1.000000 0.000000
vt 1.000000 -1.000000
vt 0.000000 -1.000000
vt 1.000000 0.000000
vt 1.000000 -1.000000
vt 0.000000 -1.000000
vt 0.000000 0.000000
vt 1.000000 0.000000
vt 1.000000 -1.000000
vn -0.8429 -0.5221 0.1299
vn 0.3236 -0.8151 0.4806
vn 0.2728 0.1430 0.9514
vn -0.6616 -0.1981 0.7233
vn -0.6274 -0.2777 -0.7275
vn -0.9575 -0.2856 -0.0399
vn -0.4669 -0.1142 -0.8769
vn 0.5255 0.2406 -0.8161
vn 0.9221 0.3804 0.0710
vn 0.6014 -0.7629 -0.2372
vn 0.1997 -0.9560 -0.2151
vn 0.5474 -0.6550 0.5209
vn 0.0098 0.8250 0.5650
vn -0.6066 0.5146 0.6060
vn -0.9830 0.1833 0.0135
vn -0.6663 0.4705 -0.5785
vn -0.1213 0.7291 -0.6736
vn 0.4206 0.8997 -0.1172
usemtl Tex_0008_0_png
s 1
f 1/1/1 2/2/2 3/3/3
f 1/1/1 3/3/3 4/4/4
f 5/5/5 1/6/1 4/7/4
f 5/5/5 4/7/4 6/8/6
f 7/9/7 5/10/5 6/11/6
f 8/12/8 9/13/9 10/14/10
f 8/12/8 10/14/10 11/15/11
f 12/16/12 10/17/10 9/18/9
f 12/16/12 9/18/9 3/19/3
f 2/20/2 12/21/12 3/3/3
f 7/9/7 8/22/8 11/23/11
f 7/9/7 11/23/11 5/24/5
f 3/25/3 13/26/13 14/27/14
f 3/25/3 14/27/14 4/4/4
f 4/28/4 14/29/14 15/30/15
f 4/28/4 15/30/15 6/8/6
f 6/31/6 15/32/15 16/33/16
f 6/31/6 16/33/16 7/34/7
f 8/12/8 17/35/17 18/36/18
f 8/12/8 18/36/18 9/37/9
f 7/9/7 16/38/16 17/39/17
f 7/9/7 17/39/17 8/40/8
f 9/41/9 18/42/18 13/43/13
f 9/41/9 13/43/13 3/19/3
f 1/6/1 5/5/5 11/23/11 10/14/10 12/16/12 2/20/2
f 13/43/13 18/42/18 17/35/17 16/38/16 15/32/15 14/29/14
