# Blender v2.82 (sub 7) OBJ File: ''
# www.blender.org
mtllib CodoIzqu.mtl
o CodoIzqu.001
v 0.528053 -0.541404 2.612563
v -0.468847 1.126896 1.936663
v -2.890747 -1.943905 2.069664
v -1.309047 -2.983206 2.448965
v -0.653347 -3.486506 1.192465
v 1.729953 -1.411705 0.949864
v -1.414147 1.545593 -1.209037
v -0.868247 0.612392 -2.375236
v -1.326247 -3.633806 -0.494335
v -2.918646 -2.563706 -0.889735
v -3.736746 -1.497505 0.279265
v -4.068147 -4.210806 0.276165
v -4.771747 -4.045305 1.259365
v -4.055947 -4.011205 2.386165
v -2.839947 -4.794805 2.515165
v -2.431947 -5.434305 1.611865
v -2.843347 -4.988707 0.385365
v 1.038853 -1.653805 -1.214436
v 0.075053 -0.982205 -1.720836
vt 0.000000 0.000000
vt 1.000000 0.000000
vt 1.000000 -1.000000
vt 0.000000 -1.000000
vt 0.000000 0.000000
vt 1.000000 0.000000
vt 1.000000 -1.000000
vt 0.000000 0.000000
vt 1.000000 -1.000000
vt 0.000000 0.000000
vt 1.000000 -1.000000
vt 0.000000 -1.000000
vt 0.000000 -1.000000
vt 0.000000 0.000000
vt 1.000000 0.000000
vt 1.000000 -1.000000
vt 0.000000 -1.000000
vt 1.000000 0.000000
vt 1.000000 -1.000000
vt 0.000000 -1.000000
vt 0.000000 0.000000
vt 1.000000 0.000000
vt 1.000000 -1.000000
vt 0.000000 -1.000000
vt 1.000000 0.000000
vt 1.000000 -1.000000
vt 0.000000 -1.000000
vt 0.000000 0.000000
vt 1.000000 0.000000
vt 1.000000 -1.000000
vt 0.000000 -1.000000
vt 0.000000 0.000000
vt 1.000000 0.000000
vt 1.000000 -1.000000
vt 0.000000 -1.000000
vt 0.000000 0.000000
vt 1.000000 -1.000000
vt 1.000000 -1.000000
vt 0.000000 -1.000000
vt 1.000000 0.000000
vt 1.000000 -1.000000
vt 1.000000 0.000000
vn 0.6278 0.4522 0.6335
vn 0.1186 0.8593 0.4976
vn -0.5315 0.4370 0.7256
vn 0.2275 -0.1642 0.9598
vn 0.6886 -0.6644 0.2906
vn 0.9783 -0.0907 0.1862
vn -0.3978 0.8751 -0.2758
vn 0.0848 0.4837 -0.8711
vn 0.2744 -0.6450 -0.7132
vn -0.4135 -0.2378 -0.8789
vn -0.8798 0.3602 -0.3100
vn -0.6362 -0.4653 -0.6155
vn -0.9780 -0.2087 -0.0071
vn -0.7020 -0.1795 0.6892
vn 0.0140 -0.6896 0.7240
vn 0.1205 -0.9851 0.1227
vn -0.0671 -0.8769 -0.4760
vn 0.7913 -0.1012 -0.6030
vn 0.5850 0.1483 -0.7974
usemtl Tex_0008_0_png.003
s 1
f 1/1/1 2/2/2 3/3/3
f 1/1/1 3/3/3 4/4/4
f 5/5/5 6/6/6 1/7/1
f 5/5/5 1/7/1 4/4/4
f 3/8/3 2/2/2 7/9/7
f 8/10/8 9/11/9 10/12/10
f 3/8/3 7/9/7 11/13/11
f 11/14/11 10/15/10 12/16/12
f 11/14/11 12/16/12 13/17/13
f 3/8/3 11/18/11 13/19/13
f 3/8/3 13/19/13 14/20/14
f 4/21/4 3/22/3 14/23/14
f 4/21/4 14/23/14 15/24/15
f 5/5/5 4/25/4 15/26/15
f 5/5/5 15/26/15 16/27/16
f 9/28/9 5/29/5 16/30/16
f 9/28/9 16/30/16 17/31/17
f 10/32/10 9/33/9 17/34/17
f 10/32/10 17/34/17 12/35/12
f 18/36/18 9/33/9 19/37/19
f 18/36/18 6/6/6 5/38/5
f 18/36/18 5/38/5 9/39/9
f 11/14/11 7/40/7 8/41/8
f 11/14/11 8/41/8 10/12/10
f 8/10/8 19/42/19 9/11/9
f 12/35/12 17/34/17 16/30/16 15/26/15 14/23/14 13/19/13
f 6/6/6 18/36/18 19/37/19 8/10/8 7/40/7 2/2/2 1/1/1
