# Blender v2.82 (sub 7) OBJ File: ''
# www.blender.org
mtllib CodoDere.mtl
o CodoDere
v -0.539076 -0.688190 2.558957
v 1.152223 -3.233088 2.397157
v 2.793423 -2.286189 2.017457
v 0.567124 1.162213 1.883057
v 0.467723 -3.697988 1.139258
v -1.443677 -1.497489 0.896257
v -1.113577 -1.769187 -1.229243
v 1.165023 -3.309588 -0.359943
v 3.664923 -1.889190 0.224957
v 2.818723 -2.332589 -0.755843
v 0.935923 0.625413 -2.428843
v 1.535023 1.525411 -1.262643
v -0.097077 -0.660487 -2.390743
v 4.548523 -4.493789 1.205757
v 3.836524 -4.618188 0.222557
v 3.835924 -4.418189 2.332557
v 2.576523 -5.129989 2.461558
v 2.132123 -5.744689 1.558258
v 2.568624 -5.323688 0.331758
vt 0.000000 0.000000
vt 1.000000 0.000000
vt 1.000000 -1.000000
vt 0.000000 -1.000000
vt 0.000000 0.000000
vt 1.000000 -1.000000
vt 0.000000 -1.000000
vt 0.000000 0.000000
vt 1.000000 0.000000
vt 1.000000 -1.000000
vt 0.000000 0.000000
vt 1.000000 0.000000
vt 1.000000 -1.000000
vt 0.000000 -1.000000
vt 0.000000 0.000000
vt 1.000000 -1.000000
vt 0.000000 -1.000000
vt 0.000000 0.000000
vt 1.000000 0.000000
vt 1.000000 -1.000000
vt 1.000000 0.000000
vt 1.000000 -1.000000
vt 0.000000 -1.000000
vt 1.000000 0.000000
vt 1.000000 -1.000000
vt 0.000000 -1.000000
vt 0.000000 0.000000
vt 1.000000 0.000000
vt 1.000000 -1.000000
vt 0.000000 -1.000000
vt 1.000000 0.000000
vt 1.000000 -1.000000
vt 0.000000 -1.000000
vt 0.000000 0.000000
vt 1.000000 0.000000
vt 1.000000 -1.000000
vt 0.000000 -1.000000
vt 0.000000 0.000000
vt 1.000000 0.000000
vt 1.000000 -1.000000
vt 0.000000 -1.000000
vt 1.000000 0.000000
vn -0.3952 0.2083 0.8947
vn -0.2365 -0.1510 0.9598
vn 0.5616 0.3925 0.7284
vn -0.1205 0.8455 0.5202
vn -0.7264 -0.6479 0.2294
vn -0.9827 -0.0352 0.1820
vn -0.8125 -0.2986 -0.5006
vn -0.2179 -0.6242 -0.7502
vn 0.9013 0.2935 -0.3186
vn 0.3605 -0.2245 -0.9053
vn -0.1057 0.4846 -0.8683
vn -0.0097 0.9530 -0.3029
vn -0.4336 -0.0011 -0.9011
vn 0.9655 -0.2596 0.0203
vn 0.5769 -0.5672 -0.5877
vn 0.6748 -0.2318 0.7006
vn -0.0145 -0.6808 0.7323
vn -0.1886 -0.9759 0.1098
vn -0.0499 -0.8476 -0.5282
usemtl Tex_0008_0_png.003
s 1
f 1/1/1 2/2/2 3/3/3
f 1/1/1 3/3/3 4/4/4
f 5/5/5 2/2/2 1/6/1
f 5/5/5 1/6/1 6/7/6
f 7/8/7 8/9/8 5/10/5
f 7/8/7 5/10/5 6/7/6
f 9/11/9 10/12/10 11/13/11
f 9/11/9 11/13/11 12/14/12
f 11/15/11 10/12/10 8/16/8
f 11/15/11 8/16/8 13/17/13
f 3/18/3 9/19/9 12/20/12
f 3/18/3 12/20/12 4/4/4
f 9/11/9 14/21/14 15/22/15
f 9/11/9 15/22/15 10/23/10
f 3/18/3 16/24/16 14/25/14
f 3/18/3 14/25/14 9/26/9
f 2/27/2 17/28/17 16/29/16
f 2/27/2 16/29/16 3/30/3
f 5/5/5 18/31/18 17/32/17
f 5/5/5 17/32/17 2/33/2
f 8/34/8 19/35/19 18/36/18
f 8/34/8 18/36/18 5/37/5
f 10/38/10 15/39/15 19/40/19
f 10/38/10 19/40/19 8/41/8
f 7/8/7 13/42/13 8/16/8
f 1/1/1 4/4/4 12/20/12 11/13/11 13/17/13 7/8/7 6/7/6
f 16/24/16 17/32/17 18/36/18 19/40/19 15/22/15 14/25/14
