# Blender v2.82 (sub 7) OBJ File: ''
# www.blender.org
mtllib ManoDerecho.mtl
o ManoDerecho
v -1.943296 -3.580178 -3.338183
v -0.793496 -4.261978 -3.216183
v -0.534697 -3.314976 -2.823983
v -1.225596 -3.023476 -2.974483
v -1.293596 -3.042078 -4.394684
v -0.785796 -2.635777 -3.609783
v -0.414797 -3.809679 -4.183283
v -0.161496 -3.079777 -3.435884
v -0.435197 -3.078276 -2.451983
v -1.015697 -2.605978 -2.756884
v -0.618297 -2.316679 -3.282084
v -0.045796 -2.736978 -2.990685
v -2.476296 -4.216076 -4.045883
v -1.870196 -4.880878 -4.810883
v -1.420997 -5.066978 -3.859083
v -1.743297 -3.848278 -4.976183
v -0.901297 -4.621979 -4.991883
v 0.435603 -7.140177 -2.491082
v 1.193804 -7.697577 -2.392682
v 1.619503 -5.934576 -1.010383
v 0.746604 -5.770876 -1.650583
v 2.233804 -5.507078 -2.010883
v 0.751003 -7.434477 -0.581183
v 1.503304 -7.724876 -0.139382
v 1.406404 -6.060877 0.378217
v 0.707704 -6.048277 -0.326783
v 1.315204 -7.486376 -1.480683
v 2.205303 -7.899878 -0.983382
v 2.500703 -5.808275 -0.460483
v 1.169104 -7.457577 0.591517
v 0.490004 -6.070677 0.905617
v 1.740804 -7.569876 1.162118
v 1.687003 -5.896376 0.995617
v -0.624097 -7.782978 -2.574382
v 0.088803 -9.319178 -2.402883
v -0.612996 -8.013180 -4.323982
v 0.784003 -6.934978 -3.514483
v 0.246003 -9.224079 -3.954482
v 1.661504 -7.664379 -3.452283
v 1.204204 -5.191978 -2.592683
v 0.858403 -9.376375 0.155518
v -0.140496 -8.563177 -0.691782
v 0.536203 -8.967978 -2.141382
v 1.448704 -9.654375 -1.200082
v 0.179903 -8.266977 1.064618
v 0.840303 -8.752977 2.023418
v 1.081103 -7.385477 1.610318
v 0.605103 -7.333776 1.124117
v 0.991003 -8.876276 0.278818
v 1.555504 -9.030275 1.218718
v 1.011904 -5.950376 1.627417
v -1.619697 -8.648077 -2.926082
v -1.906997 -9.747578 -3.586381
v -1.009497 -9.941175 -2.848581
v -1.535296 -8.962778 -4.287682
v -1.294797 -10.094078 -4.026781
v -0.585796 -9.821978 -0.848381
v -0.256496 -10.692778 -1.212181
v 0.265003 -10.366076 -0.278481
v 0.023704 -10.060177 -1.999181
v 0.476004 -10.874678 -1.325681
v 0.100404 -9.296976 1.106418
v 0.815104 -10.254276 1.202718
v 0.819003 -9.720778 1.853719
v 0.932003 -9.813177 0.546718
v 1.323804 -10.170378 1.261819
v -0.404897 -3.204777 -2.316983
v 0.732203 -2.808277 -2.005484
v -0.000196 -3.717877 -1.733683
v 1.228503 -1.053776 -1.550985
v 0.601403 -5.757477 -1.708783
v 1.165403 -5.143477 -2.765783
v -0.019696 -3.164976 1.304516
v 0.350103 -6.092577 0.995717
v 0.978004 -5.965374 1.811817
v 0.642404 -3.062677 1.792216
v -1.191896 -0.991976 -1.489585
v -0.635596 -2.184978 -3.371684
v -1.165796 -2.585677 -2.716583
v 1.716104 -1.725277 -1.004184
v 2.368703 -5.479077 -2.107683
v 1.921503 -2.391077 0.154816
v 2.665303 -5.816175 -0.460683
v 1.800404 -5.908676 1.092817
v -0.045796 -2.736978 -2.990685
v 0.105503 -2.757376 -3.023184
v -0.435197 -3.078276 -2.451983
v -0.618297 -2.316679 -3.282084
v -1.015697 -2.605978 -2.756884
v 0.062404 -0.581276 -2.050085
v 2.500703 -5.808275 -0.460483
v 1.687003 -5.896376 0.995617
v 2.233804 -5.507078 -2.010883
v 0.707704 -6.048277 -0.326783
v 0.591003 -6.069475 -0.311783
v 0.746604 -5.770876 -1.650583
v 0.187103 -1.119976 1.250115
v 1.064903 -0.852177 0.764415
v 0.731704 0.000023 0.414015
v 0.037503 -0.066276 0.718415
v 1.142504 -0.344877 -0.527785
v 0.698104 0.078024 -0.272485
v 0.133904 -0.121678 -1.430885
v 0.087303 0.086023 -0.842985
v 1.334304 -2.910375 1.358716
v 1.406404 -6.060877 0.378217
v 1.619503 -5.934576 -1.010383
v 1.204204 -5.191978 -2.592683
v 0.087303 0.086023 -0.842985
v -0.687297 -0.006176 -0.448585
v -0.574697 -0.111677 0.413415
v 0.037503 -0.066276 0.718415
v -0.000196 -3.717877 -1.733683
v -0.955397 -3.116577 -1.171283
v -1.165796 -2.585677 -2.716583
v -0.404897 -3.204777 -2.316983
v -1.367296 -1.849577 -0.796684
v 0.591003 -6.069475 -0.311783
v -0.587296 -2.830376 0.065417
v 0.350103 -6.092577 0.995717
v -0.019696 -3.164976 1.304516
v 0.601403 -5.757477 -1.708783
v -0.928197 -1.122476 0.763515
v 0.642404 -3.062677 1.792216
v -1.191896 -0.991976 -1.489585
v -1.083397 -0.634176 -0.621885
v 0.187103 -1.119976 1.250115
v 0.133904 -0.121678 -1.430885
v 0.062404 -0.581276 -2.050085
v -0.435197 -3.078276 -2.451983
v -0.404897 -3.204777 -2.316983
v -1.165796 -2.585677 -2.716583
v -1.015697 -2.605978 -2.756884
vt 0.000000 0.000000
vt 1.000000 0.000000
vt 1.000000 -1.000000
vt 0.000000 -1.000000
vt 0.000000 0.000000
vt 1.000000 0.000000
vt 1.000000 -1.000000
vt 0.000000 -1.000000
vt 0.000000 0.000000
vt 1.000000 0.000000
vt 1.000000 -1.000000
vt 0.000000 -1.000000
vt 0.000000 0.000000
vt 1.000000 0.000000
vt 1.000000 -1.000000
vt 0.000000 -1.000000
vt 0.000000 0.000000
vt 1.000000 0.000000
vt 1.000000 -1.000000
vt 0.000000 -1.000000
vt 1.000000 0.000000
vt 1.000000 -1.000000
vt 0.000000 0.000000
vt 1.000000 0.000000
vt 0.000000 -1.000000
vt 0.000000 0.000000
vt 1.000000 0.000000
vt 1.000000 -1.000000
vt 0.000000 -1.000000
vt 0.000000 0.000000
vt 1.000000 0.000000
vt 1.000000 -1.000000
vt 0.000000 0.000000
vt 1.000000 -1.000000
vt 0.000000 0.000000
vt 1.000000 -1.000000
vt 0.000000 0.000000
vt 1.000000 -1.000000
vt 1.000000 0.000000
vt 1.000000 -1.000000
vt 0.000000 -1.000000
vt 1.000000 0.000000
vt 1.000000 -1.000000
vt 0.000000 -1.000000
vt 1.000000 0.000000
vt 1.000000 -1.000000
vt 0.000000 -1.000000
vt 1.000000 0.000000
vt 1.000000 -1.000000
vt 0.000000 -1.000000
vt 0.000000 0.000000
vt 1.000000 0.000000
vt 1.000000 -1.000000
vt 0.000000 -1.000000
vt 0.000000 0.000000
vt 1.000000 -1.000000
vt 0.000000 -1.000000
vt 0.000000 0.000000
vt 1.000000 0.000000
vt 1.000000 -1.000000
vt 0.000000 -1.000000
vt 0.000000 0.000000
vt 1.000000 -1.000000
vt 0.000000 0.000000
vt 1.000000 0.000000
vt 0.000000 -1.000000
vt 0.000000 0.000000
vt 1.000000 -1.000000
vt 0.000000 -1.000000
vt 0.000000 0.000000
vt 1.000000 -1.000000
vt 0.000000 0.000000
vt 1.000000 0.000000
vt 0.000000 -1.000000
vt 0.000000 0.000000
vt 1.000000 0.000000
vt 1.000000 -1.000000
vt 0.000000 -1.000000
vt 0.000000 0.000000
vt 1.000000 0.000000
vt 1.000000 -1.000000
vt 0.000000 -1.000000
vt 0.000000 0.000000
vt 1.000000 0.000000
vt 1.000000 -1.000000
vt 0.000000 -1.000000
vt 0.000000 0.000000
vt 1.000000 0.000000
vt 1.000000 -1.000000
vt 0.000000 -1.000000
vt 0.000000 0.000000
vt 1.000000 0.000000
vt 1.000000 -1.000000
vt 0.000000 -1.000000
vt 0.000000 0.000000
vt 1.000000 0.000000
vt 1.000000 -1.000000
vt 0.000000 -1.000000
vt 1.000000 0.000000
vt 0.000000 0.000000
vt 1.000000 -1.000000
vt 0.000000 -1.000000
vt 0.000000 0.000000
vt 1.000000 0.000000
vt 0.000000 -1.000000
vt 0.000000 0.000000
vt 1.000000 0.000000
vt 1.000000 -1.000000
vt 0.000000 -1.000000
vt 1.000000 0.000000
vt 1.000000 -1.000000
vt 0.000000 -1.000000
vt 1.000000 0.000000
vt 1.000000 0.000000
vt 0.000000 0.000000
vt 1.000000 0.000000
vt 1.000000 -1.000000
vt 0.000000 -1.000000
vt 0.000000 0.000000
vt 1.000000 0.000000
vt 1.000000 -1.000000
vt 0.000000 -1.000000
vt 0.000000 0.000000
vt 1.000000 0.000000
vt 1.000000 -1.000000
vt 0.000000 -1.000000
vt 0.000000 0.000000
vt 1.000000 0.000000
vt 1.000000 -1.000000
vt 0.000000 -1.000000
vt 0.000000 0.000000
vt 1.000000 0.000000
vt 1.000000 -1.000000
vt 0.000000 -1.000000
vt 1.000000 0.000000
vt 0.000000 0.000000
vt 1.000000 0.000000
vt 1.000000 -1.000000
vt 0.000000 -1.000000
vt 0.000000 0.000000
vt 1.000000 0.000000
vt 1.000000 -1.000000
vt 0.000000 0.000000
vt 1.000000 -1.000000
vt 0.000000 0.000000
vt 1.000000 -1.000000
vt 0.000000 0.000000
vt 1.000000 -1.000000
vt 1.000000 0.000000
vt 1.000000 -1.000000
vt 0.000000 -1.000000
vt 1.000000 0.000000
vt 1.000000 -1.000000
vt 0.000000 -1.000000
vt 1.000000 0.000000
vt 1.000000 -1.000000
vt 0.000000 -1.000000
vt 1.000000 0.000000
vt 1.000000 -1.000000
vt 0.000000 -1.000000
vt 0.000000 0.000000
vt 1.000000 0.000000
vt 1.000000 -1.000000
vt 0.000000 0.000000
vt 1.000000 -1.000000
vt 0.000000 0.000000
vt 1.000000 -1.000000
vt 0.000000 0.000000
vt 1.000000 -1.000000
vt 1.000000 0.000000
vt 1.000000 -1.000000
vt 1.000000 0.000000
vt 1.000000 -1.000000
vt 0.000000 -1.000000
vt 1.000000 0.000000
vt 1.000000 -1.000000
vt 0.000000 -1.000000
vt 1.000000 0.000000
vt 1.000000 -1.000000
vt 0.000000 -1.000000
vt 0.000000 0.000000
vt 1.000000 0.000000
vt 1.000000 -1.000000
vt 0.000000 0.000000
vt 1.000000 -1.000000
vt 0.000000 0.000000
vt 1.000000 -1.000000
vt 0.000000 0.000000
vt 1.000000 -1.000000
vt 1.000000 0.000000
vt 1.000000 -1.000000
vt 0.000000 -1.000000
vt 1.000000 0.000000
vt 1.000000 -1.000000
vt 0.000000 -1.000000
vt 1.000000 0.000000
vt 1.000000 -1.000000
vt 0.000000 -1.000000
vt 1.000000 0.000000
vt 1.000000 -1.000000
vt 0.000000 -1.000000
vt 0.199200 1.424100
vt 0.258000 1.482400
vt 0.309400 1.348800
vt 0.343900 1.740100
vt 0.314100 1.049200
vt 0.114400 1.139400
vt 0.907900 1.391500
vt 0.824800 1.000000
vt 0.979000 1.018700
vt 1.000000 1.406500
vt 0.355500 1.749200
vt 0.000000 1.573900
vt 0.123700 1.515100
vt 0.447100 1.634300
vt 0.238700 1.090100
vt 0.666000 1.518500
vt 0.549800 1.040600
vt 0.843200 1.027000
vt 0.072000 1.492900
vt 0.065800 1.489900
vt 0.173700 1.442700
vt 0.016900 1.554600
vt 0.116100 1.512100
vt 0.249600 1.809500
vt 0.549800 1.041800
vt 0.824800 1.028800
vt 0.257000 1.086000
vt 0.575100 1.006500
vt 0.577900 1.003400
vt 0.325000 1.047200
vt 0.872900 1.738400
vt 0.781200 1.777700
vt 0.726900 1.894100
vt 0.791900 1.881200
vt 0.537100 1.852200
vt 0.580100 1.923900
vt 0.366500 1.885000
vt 0.458100 1.926900
vt 0.918100 1.428900
vt 0.708200 1.004600
vt 0.446000 1.023200
vt 0.147100 1.132300
vt 0.458100 -0.926900
vt 0.542400 -0.877000
vt 0.726700 -0.838200
vt 0.791900 -0.881200
vt 0.309400 -0.348800
vt 0.415600 -0.437100
vt 0.123700 -0.515100
vt 0.199200 -0.424100
vt 0.486300 -0.623200
vt 0.577900 -0.003400
vt 0.649100 -0.479100
vt 0.824800 0.000000
vt 0.907900 -0.391500
vt 0.314100 -0.049200
vt 0.781000 -0.730000
vt 1.000000 -0.406500
vt 0.355500 -0.749200
vt 0.519300 -0.801700
vt 0.872900 -0.738400
vt 0.366500 -0.885000
vt 0.249600 -0.809500
vt 0.000000 0.000000
vt 0.000000 0.000000
vt 0.000000 0.000000
vt 0.000000 0.000000
vn -0.7720 0.2749 0.5731
vn 0.3351 -0.6154 0.7134
vn 0.3127 -0.6266 0.7139
vn -0.8562 0.3358 0.3926
vn -0.1356 0.8167 -0.5609
vn 0.0645 0.7885 -0.6117
vn 0.9176 -0.0576 -0.3933
vn 0.9622 0.0117 -0.2720
vn -0.2545 -0.9633 -0.0858
vn -0.7470 -0.4920 -0.4472
vn -0.2916 0.0650 -0.9543
vn 0.3904 -0.7548 -0.5272
vn -0.9135 -0.2772 0.2977
vn -0.4772 -0.6408 -0.6014
vn 0.2068 -0.9462 0.2488
vn -0.5232 0.4184 -0.7425
vn 0.5220 -0.2582 -0.8129
vn -0.7925 0.3132 0.5233
vn 0.3942 -0.4018 0.8266
vn 0.1726 -0.9110 -0.3746
vn -0.4928 -0.8376 -0.2357
vn 0.4720 -0.8555 -0.2127
vn -0.8914 0.2854 0.3520
vn 0.2871 -0.1537 0.9455
vn 0.2507 -0.9614 0.1131
vn -0.3597 -0.9034 -0.2334
vn -0.1002 0.2296 -0.9681
vn 0.9632 -0.1629 -0.2139
vn 0.4057 -0.9139 0.0157
vn 0.0899 -0.0754 -0.9931
vn -0.3292 -0.9213 -0.2068
vn 0.9933 -0.0423 0.1072
vn 0.5233 -0.8254 0.2116
vn -0.5580 0.5713 0.6018
vn 0.3114 -0.5253 0.7919
vn -0.2729 0.5299 -0.8030
vn -0.3423 0.5068 -0.7912
vn 0.5646 -0.5373 -0.6265
vn 0.8596 -0.1981 -0.4710
vn 0.0568 -0.5133 -0.8563
vn 0.0440 -0.0997 0.9940
vn -0.8967 0.4395 0.0520
vn -0.1095 0.1912 -0.9754
vn 0.8555 -0.4580 -0.2416
vn -0.9756 0.2022 -0.0854
vn -0.0514 0.0590 0.9969
vn -0.0555 0.1799 0.9821
vn -0.9875 0.1458 -0.0593
vn 0.1514 0.0017 -0.9885
vn 0.9887 -0.1348 0.0649
vn -0.1194 -0.8300 0.5449
vn -0.7648 0.1914 0.6151
vn -0.9153 -0.4011 0.0365
vn -0.0991 -0.8470 0.5222
vn -0.7444 0.3516 -0.5676
vn -0.0657 -0.7099 -0.7012
vn -0.9416 -0.0555 0.3322
vn -0.6660 -0.7444 -0.0477
vn -0.0095 -0.7030 0.7111
vn -0.6149 -0.1453 -0.7751
vn 0.3795 -0.8350 -0.3984
vn -0.9523 -0.2897 0.0963
vn -0.4008 -0.9160 0.0152
vn -0.0028 -0.4678 0.8838
vn -0.2648 -0.4740 -0.8398
vn 0.7730 -0.6292 -0.0806
vn 0.0301 -0.7182 -0.6952
vn 0.3408 -0.0245 -0.9398
vn -0.3276 -0.7947 -0.5110
vn 0.6137 0.3766 -0.6940
vn 0.1351 -0.0250 -0.9905
vn -0.1131 -0.6377 -0.7619
vn -0.5385 -0.6047 -0.5868
vn -0.3629 0.0385 -0.9310
vn -0.3854 -0.7800 -0.4931
vn -0.8525 -0.1895 0.4872
vn -0.5240 -0.8325 0.1801
vn -0.4749 -0.7675 0.4307
vn -0.8524 -0.1896 0.4873
vn -0.3062 -0.0628 0.9499
vn 0.0121 0.0953 0.9954
vn -0.7762 0.5263 -0.3472
vn -0.5450 -0.2023 -0.8137
vn -0.6956 -0.5497 -0.4627
vn 0.7441 0.2255 -0.6288
vn 0.8280 0.3042 -0.4710
vn 0.3408 -0.0244 -0.9398
vn 0.4903 -0.3532 -0.7968
vn 0.8947 0.2700 -0.3558
vn 0.9419 0.2457 0.2291
vn 0.9658 0.1754 0.1911
vn 0.7509 0.0726 0.6564
vn 0.2220 -0.8956 -0.3855
vn 0.3169 -0.4725 -0.8224
vn 0.0301 -0.7182 -0.6951
vn -0.1118 -0.9447 -0.3082
vn 0.1094 -0.2490 -0.9623
vn -0.3624 -0.1077 -0.9258
vn -0.2725 -0.6312 -0.7261
vn -0.3537 -0.6635 -0.6593
vn -0.6956 -0.5497 -0.4626
vn -0.3624 -0.1076 -0.9258
vn -0.5675 -0.4401 -0.6959
vn -0.6608 -0.1961 -0.7245
vn 0.3170 -0.4725 -0.8224
vn -0.0699 -0.0949 -0.9930
vn 0.2440 0.6745 -0.6968
vn 0.7442 0.2254 -0.6288
vn -0.4193 -0.7280 -0.5424
vn -0.5955 -0.5993 -0.5349
vn 0.1352 -0.0250 -0.9905
vn -0.2400 -0.9149 0.3247
vn -0.0355 -0.9953 -0.0897
vn 0.0637 -0.9972 -0.0381
vn 0.3800 -0.9200 -0.0958
vn -0.0533 -0.9601 -0.2744
vn 0.0856 -0.9756 -0.2023
vn 0.0581 -0.9902 -0.1271
vn -0.5052 -0.8627 -0.0213
vn -0.2510 -0.8306 -0.4971
vn -0.1109 -0.9663 -0.2324
vn -0.0334 -0.9928 -0.1147
vn 0.1264 0.3772 0.9175
vn 0.7492 0.4401 0.4950
vn 0.7020 0.6530 0.2843
vn -0.3091 0.5810 0.7529
vn 0.7346 0.6507 -0.1924
vn 0.1576 0.9288 -0.3354
vn -0.1628 0.8632 -0.4778
vn 0.2374 0.9590 -0.1548
vn 0.6414 0.2083 0.7384
vn 0.5843 -0.7971 0.1522
vn 0.3144 -0.9348 0.1650
vn 0.5233 -0.8255 0.2116
vn 0.1691 -0.5213 0.8364
vn 0.5176 -0.7919 -0.3240
vn 0.3664 -0.9283 -0.0638
vn 0.4058 -0.9138 0.0157
vn 0.1727 -0.9705 0.1682
vn -0.2439 -0.9655 -0.0907
vn 0.6137 0.3765 -0.6940
vn 0.1186 -0.9444 -0.3066
vn -0.4193 -0.7280 -0.5423
vn 0.1223 -0.5429 -0.8308
vn 0.1187 -0.9444 -0.3065
vn 0.3734 -0.5649 -0.7358
vn 0.3192 -0.5865 -0.7444
vn 0.0657 -0.9440 -0.3233
vn -0.1636 -0.8628 -0.4784
vn 0.2908 0.6195 -0.7291
vn -0.5902 0.5774 -0.5642
vn -0.8049 0.4814 0.3470
vn -0.2884 0.7732 0.5647
vn -0.5930 -0.6917 -0.4122
vn -0.7562 -0.6405 0.1338
vn 0.0300 -0.7182 -0.6952
vn -0.9850 -0.0909 0.1464
vn -0.7157 -0.6342 -0.2924
vn -0.6307 -0.7742 -0.0538
vn -0.8473 -0.4562 0.2721
vn -0.9616 -0.2736 -0.0231
vn -0.9599 -0.1464 0.2392
vn -0.7157 -0.6342 -0.2923
vn -0.6306 -0.7742 -0.0538
vn -0.7618 0.1221 0.6362
vn 0.0121 0.0952 0.9954
vn -0.7762 0.5262 -0.3472
vn -0.6074 -0.7516 -0.2574
vn -0.8743 0.4837 -0.0412
vn -0.7256 0.1410 0.6736
vn -0.8743 0.4837 -0.0411
vn -0.1628 0.8633 -0.4778
vn -0.8783 0.1924 -0.4377
vn 0.0301 -0.7183 -0.6951
vn -0.3536 -0.6635 -0.6593
usemtl Tex_0008_0_png.008
s 1
f 1/1/1 2/2/2 3/3/3
f 1/1/1 3/3/3 4/4/4
f 5/5/5 1/6/1 4/7/4
f 5/5/5 4/7/4 6/8/6
f 7/9/7 5/10/5 6/11/6
f 7/9/7 6/11/6 8/12/8
f 2/13/2 7/14/7 8/15/8
f 2/13/2 8/15/8 3/16/3
f 4/17/4 3/18/3 9/19/9
f 4/17/4 9/19/9 10/20/10
f 4/17/4 10/21/10 11/22/11
f 4/17/4 11/22/11 6/8/6
f 8/23/8 6/24/6 11/22/11
f 8/23/8 11/22/11 12/25/12
f 3/26/3 8/27/8 12/28/12
f 3/26/3 12/28/12 9/29/9
f 13/30/13 14/31/14 15/32/15
f 16/33/16 14/31/14 13/34/13
f 17/35/17 14/31/14 16/36/16
f 15/37/15 14/31/14 17/38/17
f 13/30/13 15/39/15 2/40/2
f 13/30/13 2/40/2 1/41/1
f 16/33/16 13/42/13 1/43/1
f 16/33/16 1/43/1 5/44/5
f 17/35/17 16/45/16 5/46/5
f 17/35/17 5/46/5 7/47/7
f 15/37/15 17/48/17 7/49/7
f 15/37/15 7/49/7 2/50/2
f 18/51/18 19/52/19 20/53/20
f 18/51/18 20/53/20 21/54/21
f 19/55/19 22/56/22 20/57/20
f 23/58/23 24/59/24 25/60/25
f 23/58/23 25/60/25 26/61/26
f 27/62/27 26/63/26 20/57/20
f 28/64/28 27/65/27 20/53/20
f 28/64/28 20/53/20 29/66/29
f 24/67/24 29/68/29 25/69/25
f 30/70/30 31/71/31 25/69/25
f 32/72/32 30/73/30 25/60/25
f 32/72/32 25/60/25 33/74/33
f 34/75/34 35/76/35 19/77/19
f 34/75/34 19/77/19 18/78/18
f 36/79/36 34/80/34 18/81/18
f 36/79/36 18/81/18 37/82/37
f 38/83/38 36/84/36 37/85/37
f 38/83/38 37/85/37 39/86/39
f 35/87/35 38/88/38 39/89/39
f 35/87/35 39/89/39 19/90/19
f 37/91/37 18/92/18 21/93/21
f 37/91/37 21/93/21 40/94/40
f 39/95/39 37/96/37 40/97/40
f 39/95/39 40/97/40 22/98/22
f 19/55/19 39/99/39 22/56/22
f 41/100/41 24/59/24 23/101/23
f 41/100/41 23/101/23 42/102/42
f 43/103/43 42/104/42 23/101/23
f 43/103/43 23/101/23 27/105/27
f 44/106/44 43/107/43 27/108/27
f 44/106/44 27/108/27 28/109/28
f 41/100/41 44/110/44 28/111/28
f 41/100/41 28/111/28 24/112/24
f 27/62/27 23/113/23 26/63/26
f 24/67/24 28/114/28 29/68/29
f 45/115/45 46/116/46 47/117/47
f 45/115/45 47/117/47 48/118/48
f 49/119/49 45/120/45 48/121/48
f 49/119/49 48/121/48 30/122/30
f 50/123/50 49/124/49 30/125/30
f 50/123/50 30/125/30 32/126/32
f 46/127/46 50/128/50 32/129/32
f 46/127/46 32/129/32 47/130/47
f 48/131/48 47/132/47 51/133/51
f 48/131/48 51/133/51 31/134/31
f 30/70/30 48/135/48 31/71/31
f 47/136/47 32/137/32 33/138/33
f 47/136/47 33/138/33 51/139/51
f 52/140/52 53/141/53 54/142/54
f 55/143/55 53/141/53 52/144/52
f 56/145/56 53/141/53 55/146/55
f 54/147/54 53/141/53 56/148/56
f 52/140/52 54/149/54 35/150/35
f 52/140/52 35/150/35 34/151/34
f 55/143/55 52/152/52 34/153/34
f 55/143/55 34/153/34 36/154/36
f 56/145/56 55/155/55 36/156/36
f 56/145/56 36/156/36 38/157/38
f 54/147/54 56/158/56 38/159/38
f 54/147/54 38/159/38 35/160/35
f 57/161/57 58/162/58 59/163/59
f 60/164/60 58/162/58 57/165/57
f 61/166/61 58/162/58 60/167/60
f 59/168/59 58/162/58 61/169/61
f 57/161/57 59/170/59 41/171/41
f 57/161/57 41/171/41 42/102/42
f 60/164/60 57/172/57 42/173/42
f 60/164/60 42/173/42 43/174/43
f 61/166/61 60/175/60 43/176/43
f 61/166/61 43/176/43 44/177/44
f 59/168/59 61/178/61 44/179/44
f 59/168/59 44/179/44 41/180/41
f 62/181/62 63/182/63 64/183/64
f 65/184/65 63/182/63 62/185/62
f 66/186/66 63/182/63 65/187/65
f 64/188/64 63/182/63 66/189/66
f 62/181/62 64/190/64 46/191/46
f 62/181/62 46/191/46 45/192/45
f 65/184/65 62/193/62 45/194/45
f 65/184/65 45/194/45 49/195/49
f 66/186/66 65/196/65 49/197/49
f 66/186/66 49/197/49 50/198/50
f 64/188/64 66/199/66 50/200/50
f 64/188/64 50/200/50 46/201/46
usemtl Tex_0015_0_png.001
f 67/202/67 68/203/68 69/204/69
f 70/205/70 68/203/71 67/202/72
f 71/206/73 68/203/74 72/207/75
f 73/208/76 74/209/77 75/210/78
f 73/208/79 75/210/80 76/211/81
f 77/212/82 78/213/83 79/214/84
f 70/205/85 80/215/86 68/203/87
f 72/207/88 68/203/87 80/215/86
f 81/216/89 82/217/90 83/218/91
f 84/219/92 83/218/91 82/217/90
f 85/220/93 86/221/94 67/202/95
f 85/220/93 67/202/95 87/222/96
f 88/223/97 78/213/98 86/221/94
f 88/223/99 86/221/94 85/220/93
f 89/224/100 79/214/101 78/213/102
f 89/224/103 78/213/83 88/223/104
f 86/221/105 78/213/106 90/225/107
f 86/221/105 90/225/107 70/205/108
f 77/212/82 90/225/107 78/213/102
f 71/206/109 69/204/110 68/203/111
f 91/226/112 84/219/113 92/227/114
f 93/228/115 81/216/116 83/218/117
f 94/229/118 95/230/119 71/206/120
f 94/229/121 71/206/109 96/231/122
f 97/232/123 98/233/124 99/234/125
f 97/232/123 99/234/125 100/235/126
f 98/233/124 101/236/127 102/237/128
f 98/233/124 102/237/128 99/234/125
f 101/236/127 103/238/129 104/239/130
f 101/236/127 104/239/130 102/237/128
f 84/219/92 82/217/90 105/240/131
f 106/241/132 91/226/133 92/227/134
f 76/211/81 75/210/135 84/219/92
f 76/211/81 84/219/92 105/240/131
f 81/216/89 80/215/86 82/217/90
f 72/207/88 80/215/86 81/216/89
f 107/242/136 93/228/137 91/226/138
f 107/242/139 94/229/140 96/231/122
f 82/217/90 101/236/127 98/233/124
f 98/233/124 105/240/131 82/217/90
f 90/225/107 103/238/129 101/236/127
f 90/225/107 101/236/127 70/205/141
f 96/231/142 71/206/143 72/207/144
f 96/231/145 72/207/146 108/243/147
f 97/232/123 76/211/81 105/240/131
f 97/232/123 105/240/131 98/233/124
f 108/243/148 72/207/149 81/216/116
f 108/243/148 81/216/116 93/228/115
f 70/205/85 101/236/127 80/215/86
f 82/217/90 80/215/86 101/236/127
f 99/234/125 102/237/128 104/239/130 109/244/150 110/245/151 111/246/152 112/247/153 100/235/126
usemtl Tex_0016_0_png.001
f 113/248/154 114/249/155 115/250/101
f 113/248/154 115/250/101 116/251/156
f 114/249/155 117/252/157 115/250/101
f 113/248/158 118/253/159 119/254/160
f 118/253/161 120/255/162 121/256/79
f 118/253/159 121/256/79 119/254/160
f 113/248/163 122/257/143 118/253/164
f 123/258/165 121/256/79 124/259/166
f 125/260/167 115/250/101 117/252/157
f 119/254/160 117/252/157 114/249/155
f 119/254/160 114/249/155 113/248/168
f 119/254/160 121/256/79 123/258/165
f 126/261/169 123/258/165 111/246/170
f 126/261/171 111/246/152 110/245/151
f 123/258/165 127/262/123 112/247/153
f 123/258/165 112/247/153 111/246/152
f 128/263/172 126/261/169 110/245/173
f 128/263/172 110/245/151 109/244/150
f 125/260/167 128/263/172 129/264/107
f 117/252/157 126/261/169 125/260/167
f 117/252/157 119/254/160 123/258/165
f 117/252/157 123/258/165 126/261/169
f 123/258/165 124/259/166 127/262/123
f 125/260/167 126/261/169 128/263/172
usemtl setka_png.001
f 130/265/96 131/266/174 132/267/101
f 130/265/96 132/267/101 133/268/175
