# Blender v2.82 (sub 7) OBJ File: ''
# www.blender.org
mtllib PiernaIzq.mtl
o PiernaIzq
v -1.394201 -0.730000 1.704306
v -1.163001 0.155800 1.792806
v -1.692001 0.692200 -0.199495
v -1.909701 -0.562800 -0.375194
v 0.012999 -1.076400 2.187006
v 0.232399 -0.271400 2.242605
v 1.559499 -1.341001 0.051506
v 2.051699 -0.277401 0.323106
v -1.585001 -2.074800 2.174306
v -2.386201 -2.146501 0.043307
v -2.743101 -4.265700 0.287007
v -1.884601 -4.354499 2.650107
v -0.337601 -4.510399 3.197407
v -0.176001 -2.339700 2.668307
v 1.615799 -4.709301 0.924807
v 1.610299 -2.407400 0.562406
v 2.051699 -0.277401 0.323106
v 0.906999 0.275599 -2.044295
v -0.553501 0.689899 -1.985195
v -1.692001 0.692200 -0.199495
v 0.638199 -0.957901 -2.341094
v 1.559499 -1.341001 0.051506
v 1.610299 -2.407400 0.562406
v 0.313299 -2.214701 -2.125894
v -1.154201 -1.965801 -2.006694
v -0.826001 -0.626401 -2.251894
v -2.386201 -2.146501 0.043307
v -1.909701 -0.562800 -0.375194
v -1.574201 -4.385101 -2.037693
v -2.743101 -4.265700 0.287007
v 1.615799 -4.709301 0.924807
v 0.145399 -4.558301 -2.160693
v -1.850501 -6.750701 -2.080792
v -1.219301 -6.067601 1.443407
v -3.131501 -6.640000 0.481608
v -2.210901 -6.719900 3.103708
v -0.404701 -6.185999 1.636408
v -0.522101 -6.868999 3.699408
v 1.620799 -7.055400 1.271208
v -0.291301 -5.993701 -0.628293
v -0.092201 -6.907402 -2.229792
v -1.501601 -5.957300 0.074708
v 0.474999 -6.164501 0.412708
v 1.615799 -4.709301 0.924807
v 1.882099 -4.847601 1.007207
v 0.215099 -4.676102 -2.493193
v 0.145399 -4.558301 -2.160693
v -0.337601 -4.510399 3.197407
v -0.329101 -4.622600 3.575907
v -1.884601 -4.354499 2.650107
v -2.072001 -4.446499 2.946807
v -2.743101 -4.265700 0.287007
v -3.044401 -4.346300 0.276207
v -1.574201 -4.385101 -2.037693
v -1.717601 -4.481502 -2.353693
v -0.092201 -6.907402 -2.229792
v -1.850501 -6.750701 -2.080792
v 1.620799 -7.055400 1.271208
v -0.522101 -6.868999 3.699408
v -2.210901 -6.719900 3.103708
v -3.131501 -6.640000 0.481608
v -0.013001 -8.382601 0.745808
v -0.404701 -6.185999 1.636408
v -0.439101 -8.384701 1.427508
v -0.291301 -5.993701 -0.628293
v 0.474999 -6.164501 0.412708
v -0.583201 -8.360201 -0.011192
v -1.501601 -5.957300 0.074708
v -1.436801 -8.351801 0.527708
v -1.219301 -6.067601 1.443407
v -1.065401 -8.372701 1.434008
v -3.368401 -12.794400 1.453610
v -3.424001 -13.803500 1.477311
v -1.544201 -13.847999 3.644310
v -1.488601 -12.838999 3.620610
v 0.451099 -12.951899 3.363110
v 0.395499 -13.960898 3.386810
v 1.191599 -14.071800 0.878710
v -0.165901 -10.382801 -1.121891
v 0.807999 -11.891101 0.740410
v -0.191801 -12.052700 -2.286291
v -2.992001 -11.676101 1.331409
v -2.159201 -10.381201 1.075409
v -2.092001 -10.066801 -0.679191
v -3.380101 -10.760000 -2.299691
v -1.334301 -10.846903 -3.025691
v -1.032101 -10.162201 -1.239391
v -1.894902 -9.985103 -6.189691
v -4.194401 -9.848503 -5.765791
v 1.227499 -13.052700 0.890010
v 0.203599 -13.040401 -1.757290
v 0.058599 -13.008401 -1.848690
v 1.027999 -13.004801 0.580310
v -0.002702 -13.134603 -6.243990
v -0.135102 -13.098303 -6.123691
v -6.543201 -12.759203 -5.597289
v -4.933601 -12.753201 -1.577289
v -4.805201 -12.736401 -1.678290
v -3.316301 -12.752200 1.143710
v -1.547701 -12.793698 3.179210
v 0.277899 -12.899999 2.936910
v -1.397801 -11.703499 3.035909
v -4.747101 -11.682301 -1.703091
v -0.059402 -11.723203 -6.156190
v -6.252701 -11.367403 -5.528290
v -6.328402 -12.742502 -5.495890
v 0.429099 -10.326800 0.734109
v -4.993201 -13.819201 -1.551989
v 0.145199 -14.106501 -1.731990
v -1.595501 -8.354101 -0.047891
v -0.881001 -8.298401 -0.417392
v -0.263901 -8.325001 -0.153292
v -0.061202 -14.200703 -6.219490
v -6.623702 -13.793303 -5.584389
v -0.677902 -12.357804 -8.991791
v -2.808002 -13.065905 -10.991191
v -2.817902 -12.130605 -11.082391
v -6.690002 -12.025703 -8.358890
v -6.612402 -12.796402 -8.444890
v -5.107202 -11.991904 -10.544789
v -5.224502 -12.920404 -10.461390
v 0.003199 -10.296600 2.380709
v -1.231101 -10.221500 2.711409
v 0.209799 -11.797300 2.815009
v -5.396902 -12.972704 -10.858890
v -6.871102 -12.841103 -8.722790
v -6.926602 -13.850102 -8.698990
v -0.807002 -14.202504 -9.353089
v -2.884902 -14.136304 -11.397889
v -5.452402 -13.981705 -10.835090
v -0.755502 -11.587105 -8.905790
v -2.827802 -11.195204 -10.679391
v -2.455802 -10.108005 -9.244691
v -6.516502 -11.255003 -8.272989
v -4.675002 -9.976604 -8.853890
v -4.989802 -11.063305 -10.133890
v -0.751402 -13.193404 -9.376890
v -0.077701 -8.402901 1.608808
v -1.085201 -8.388201 1.843408
v -1.855201 -8.351400 1.013108
v 0.245199 -8.386400 0.800608
v -2.829402 -13.127304 -11.421690
v -0.851502 -13.128505 -9.077790
vt 0.747000 1.385300
vt 0.713300 1.441900
vt 0.823700 1.476300
vt 0.874200 1.396000
vt 0.542100 1.363100
vt 0.510100 1.414600
vt 0.316900 1.346200
vt 0.245200 1.414200
vt 0.774800 1.299200
vt 0.926900 1.294600
vt 0.993500 1.159000
vt 0.818400 1.153300
vt 0.593200 1.143400
vt 0.569600 1.282300
vt 0.308700 1.130600
vt 0.309500 1.277900
vt 0.748400 1.318800
vt 0.569800 1.360000
vt 0.341800 1.390800
vt 0.164100 1.391000
vt 0.527800 1.268200
vt 0.671600 1.239700
vt 0.679500 1.160300
vt 0.477100 1.174700
vt 0.248000 1.193200
vt 0.299300 1.292900
vt 0.055700 1.179700
vt 0.130100 1.297600
vt 0.182500 1.024100
vt 0.000000 1.033000
vt 0.680400 1.000000
vt 0.450900 1.011200
vt 0.000000 1.984900
vt 1.000000 1.020200
vt 1.000000 1.984900
vt 0.000000 1.983900
vt 1.000000 1.984900
vt 0.000000 1.984900
vt 0.000000 1.020200
vt 1.000000 1.020200
vt 1.000000 1.984900
vt 0.000000 1.984900
vt 1.000000 1.020200
vt 1.000000 1.984900
vt 0.000000 1.984900
vt 1.000000 1.020200
vt 1.000000 1.984900
vt 0.000000 1.984900
vt 0.000000 1.020200
vt 1.000000 1.020200
vt 1.000000 1.984900
vt 0.000000 2.000000
vt 0.000000 1.850000
vt 1.000000 1.850000
vt 1.000000 2.000000
vt 0.000000 2.000000
vt 0.000000 1.850000
vt 1.000000 1.850000
vt 1.000000 2.000000
vt 0.000000 2.000000
vt 0.000000 1.850000
vt 1.000000 1.850000
vt 1.000000 2.000000
vt 0.000000 2.000000
vt 0.000000 1.850000
vt 1.000000 1.850000
vt 1.000000 2.000000
vt 0.000000 2.000000
vt 0.000000 1.850000
vt 1.000000 1.850000
vt 1.000000 2.000000
vt 0.000000 1.850000
vt 0.000000 1.000000
vt 1.000000 1.000000
vt 1.000000 1.850000
vt 0.000000 1.000000
vt 1.000000 1.000000
vt 0.000000 1.000000
vt 1.000000 1.000000
vt 0.000000 1.000000
vt 1.000000 1.000000
vt 0.000000 1.000000
vt 1.000000 1.000000
vt 0.000000 1.000000
vt 1.000000 1.000000
vt 0.880700 1.021400
vt 0.555000 1.992000
vt 0.665100 1.021400
vt 0.612300 1.992000
vt 1.000000 1.992000
vt 0.592200 1.021400
vt -0.000000 1.992000
vt 0.160400 1.021400
vt 0.142800 1.992000
vt 0.348300 1.021400
vt 0.745600 1.421100
vt 0.745600 1.009300
vt 0.505500 1.009300
vt 0.505500 1.421100
vt 0.745600 1.421100
vt 0.745600 1.009300
vt 0.505500 1.009300
vt 0.879100 1.523000
vt 0.936800 1.537200
vt 0.829800 1.583900
vt 0.966700 1.618200
vt 0.622300 1.658400
vt 0.628400 1.640500
vt 0.618500 1.638500
vt 0.630300 1.643000
vt 0.629500 1.658400
vt 0.623700 1.662200
vt 0.618500 1.653900
vt 0.052900 1.599600
vt 0.199200 1.599600
vt 0.199200 1.753700
vt 0.052900 1.753700
vt 0.616100 1.652900
vt 0.621900 1.661000
vt 0.346900 1.586400
vt 0.405500 1.586400
vt 0.405500 1.900700
vt 0.346900 1.880400
vt 0.246900 1.420200
vt 0.005100 1.420200
vt 0.005100 1.493700
vt 0.246900 1.493700
vt 0.745600 1.421100
vt 0.505500 1.421100
vt 0.505500 1.493800
vt 0.745600 1.493800
vt 0.745600 1.421100
vt 0.505500 1.421100
vt 0.505500 1.493800
vt 0.246900 1.420200
vt 0.005100 1.420200
vt 0.005100 1.493700
vt 0.246900 1.493700
vt 0.505500 1.493800
vt 0.745600 1.493800
vt 0.505500 1.421100
vt 0.505500 1.493800
vt 0.745600 1.493800
vt 0.755800 1.497100
vt 0.997400 1.006000
vt 0.755800 1.006000
vt 0.997400 1.497100
vt 0.997400 1.006000
vt 0.755800 1.006000
vt 0.755800 1.497100
vt 0.755800 1.497100
vt 0.997400 1.497100
vt 0.997400 1.006000
vt 0.755800 1.006000
vt 0.997400 1.497100
vt 0.997400 1.006000
vt 0.755800 1.006000
vt 0.755800 1.497100
vt 0.755800 1.497100
vt 0.997400 1.497100
vt 0.997400 1.006000
vt 0.755800 1.006000
vt 0.755800 1.006000
vt 0.755800 1.497100
vt 0.997400 1.497100
vt 0.997400 1.006000
vt 0.635800 1.642700
vt 0.628300 1.659100
vt 0.505500 1.009300
vt 0.246900 1.004200
vt 0.005100 1.004200
vt 0.620400 1.642900
vt 0.246900 1.004200
vt 0.005100 1.004200
vt 0.288400 1.889400
vt 0.288400 1.586400
vt 0.246900 1.420200
vt 0.246900 1.004200
vt 0.005100 1.004200
vt 0.005100 1.420200
vt 0.199200 1.907700
vt 0.052900 1.907700
vt 0.625500 1.682900
vt 0.465700 1.889400
vt 0.465700 1.586400
vt 0.625800 1.682500
vt 0.624600 1.683200
vt 0.745600 1.009300
vt 0.505500 1.009300
vt 0.745600 1.009300
vt 0.829900 1.668500
vt 0.977700 1.720700
vt 0.785600 1.797800
vt 0.974700 1.860500
vt 0.997400 1.251500
vt 0.755800 1.006000
vt 0.755800 1.251500
vt 0.755800 1.006000
vt 0.997400 1.251500
vt 0.997400 1.006000
vt 0.755800 1.251500
vt 0.997400 1.251500
vt 0.997400 1.006000
vt 0.755800 1.006000
vt 0.253600 1.487800
vt 0.492400 1.487800
vt 0.492400 1.196400
vt 0.253600 1.196400
vt 0.633700 1.659400
vt 0.635100 1.641600
vt 0.745600 1.421100
vt 0.505500 1.493800
vt 0.745600 1.493800
vt 0.634800 1.660300
vt 0.246900 1.420200
vt 0.005100 1.420200
vt 0.005100 1.493700
vt 0.246900 1.493700
vt 0.246900 1.004200
vt 0.005100 1.004200
vt 0.772400 1.894100
vt 0.948600 1.951500
vt 0.808300 1.974600
vt 0.887000 1.987200
vt 0.005100 1.493700
vt 0.596900 1.644100
vt 0.591200 1.648700
vt 0.595800 1.661700
vt 0.599000 1.648000
vt 0.597100 1.663200
vt 0.592900 1.650300
vt 0.504600 1.984900
vt 0.504600 1.733900
vt 0.419700 1.733900
vt 0.419700 1.984900
vt 0.246900 1.493700
vt 0.246900 1.420200
vt 0.246900 1.004200
vt 0.005100 1.004200
vt 0.005100 1.420200
vt 0.492400 1.006800
vt 0.253600 1.006800
vt 0.253600 1.493700
vt 0.492400 1.196400
vt 0.253600 1.196400
vt 0.256300 1.487800
vt 0.495500 1.487800
vt 0.632000 1.682100
vt 0.629300 1.682600
vt 0.492400 1.493700
vt 0.628600 1.682200
vt 0.631200 1.682000
vt 0.997400 1.497100
vt 0.337200 1.984900
vt 0.254800 1.984900
vt 0.337200 1.733900
vt 0.254800 1.733900
vt 0.745600 1.421100
vt 0.745600 1.009300
vt 0.505500 1.009300
vt 0.505500 1.421100
vt 0.997400 1.006000
vt 0.755800 1.251500
vt 0.755800 1.497100
vt 0.997400 1.497100
vt 0.638600 1.758100
vt 0.638600 1.741900
vt 0.644000 1.741900
vt 0.644000 1.758100
vt 0.644000 1.758100
vt 0.638600 1.758100
vt 0.638600 1.741900
vt 0.644000 1.741900
vt 0.755800 1.497100
vt 0.997400 1.497100
vt 0.745600 1.009300
vt 0.505500 1.009300
vt 0.505500 1.421100
vt 0.005100 1.493700
vt 0.246900 1.493700
vt 0.505500 1.493800
vt 0.745600 1.493800
vt 0.755800 1.006000
vt 0.997400 1.006000
vt 0.755800 1.006000
vt 0.997400 1.251500
vt 0.997400 1.006000
vt 0.246900 1.420200
vt 0.005100 1.004200
vt 0.005100 1.420200
vt 0.644000 1.741900
vt 0.644000 1.758100
vt 0.638600 1.758100
vt 0.638600 1.741900
vt 0.005100 1.493700
vt 0.246900 1.493700
vt 0.246900 1.004200
vt 0.755800 1.251500
vn -0.6924 0.2450 0.6786
vn -0.4265 0.6449 0.6342
vn -0.2407 0.9593 -0.1476
vn -0.9733 0.2266 -0.0377
vn 0.3052 0.1155 0.9453
vn 0.3718 0.3613 0.8551
vn 0.9511 -0.2029 0.2330
vn 0.6749 0.4360 0.5953
vn -0.6669 0.2971 0.6834
vn -0.9760 0.1964 -0.0941
vn -0.7155 0.6899 -0.1103
vn -0.5002 0.7219 0.4782
vn 0.1978 0.6961 0.6901
vn 0.3019 0.2576 0.9179
vn 0.8042 0.5749 0.1510
vn 0.9997 -0.0045 0.0239
vn 0.4948 0.6705 0.5529
vn 0.5704 0.5949 -0.5664
vn -0.1302 0.8804 -0.4559
vn -0.4282 0.8709 -0.2412
vn 0.5803 -0.1543 -0.7997
vn 0.3610 -0.1078 -0.9263
vn -0.5437 0.0170 -0.8391
vn -0.5642 0.1643 -0.8091
vn -0.3161 0.6641 -0.6775
vn -0.7155 0.6898 -0.1103
vn 0.8041 0.5750 0.1510
vn 0.5319 0.5907 -0.6068
vn 0.5280 -0.8372 0.1429
vn 0.3762 -0.8310 0.4096
vn 0.2857 -0.9583 -0.0025
vn 0.2875 -0.9578 -0.0016
vn 0.4758 -0.8599 -0.1851
vn 0.1147 -0.9502 -0.2898
vn 0.1147 -0.9502 -0.2897
vn -0.1554 -0.9856 -0.0665
vn -0.1438 -0.9284 -0.3427
vn -0.2756 -0.9071 -0.3181
vn -0.6623 -0.7317 0.1615
vn -0.5978 -0.7876 0.1494
vn -0.1685 -0.8902 0.4233
vn -0.5950 -0.6258 0.5043
vn 0.0816 -0.9637 0.2543
vn -0.2992 -0.9118 -0.2814
vn 0.8041 0.5749 0.1510
vn 0.8573 0.5144 0.0210
vn 0.9326 0.2108 -0.2929
vn 0.8389 0.5189 -0.1641
vn 0.1978 0.6961 0.6902
vn 0.3461 0.6357 0.6900
vn -0.4532 0.6652 0.5934
vn -0.7619 0.6477 0.0014
vn -0.7072 0.6826 -0.1843
vn -0.8760 0.3624 -0.3183
vn 0.4198 0.5296 -0.7371
vn 0.6598 -0.1707 -0.7318
vn -0.0361 -0.0467 -0.9983
vn -0.1735 -0.1777 -0.9687
vn -0.0359 -0.0469 -0.9983
vn 0.0129 -0.1948 -0.9808
vn 0.9361 -0.0770 0.3431
vn 0.7245 -0.4682 -0.5059
vn 0.0362 0.0538 0.9979
vn -0.8029 0.0843 0.5902
vn -0.9790 0.0207 -0.2027
vn -0.4022 -0.0825 -0.9118
vn 0.9789 -0.2027 -0.0241
vn 0.5605 -0.0961 0.8226
vn 0.2388 -0.0601 0.9692
vn 0.5181 -0.5950 -0.6144
vn 0.3261 -0.9042 -0.2759
vn 0.9789 -0.2028 -0.0241
vn -0.1087 -0.2461 -0.9631
vn -0.9295 -0.1115 -0.3515
vn -0.1665 -0.8098 -0.5626
vn -0.9515 -0.0819 -0.2967
vn -0.3613 -0.4075 0.8387
vn 0.2389 -0.0602 0.9692
vn -0.3612 -0.4075 0.8387
vn -0.7683 -0.0092 0.6400
vn -0.5161 -0.4446 0.7321
vn -0.8944 -0.3856 -0.2265
vn -0.9515 -0.0818 -0.2967
vn 0.9762 -0.2166 -0.0123
vn -0.5949 0.6668 0.4488
vn -0.8475 0.0594 0.5274
vn -0.5123 0.0484 0.8575
vn -0.1075 0.7174 0.6883
vn 0.6010 0.6843 0.4130
vn 0.4698 -0.0052 0.8828
vn 0.9959 -0.0389 0.0820
vn -0.0545 -0.9982 0.0268
vn -0.0542 -0.9981 0.0294
vn -0.0544 -0.9980 0.0315
vn 0.7018 0.4239 -0.5725
vn 0.9805 0.1954 -0.0192
vn 0.8955 0.3951 -0.2050
vn -0.7536 0.4715 0.4579
vn -0.8940 0.3211 0.3126
vn -0.6016 0.7231 -0.3394
vn -0.2573 0.9504 0.1748
vn 0.3197 0.9143 -0.2489
vn -0.0007 0.7264 -0.6872
vn 0.4598 0.8869 0.0437
vn -0.2919 0.9471 0.1334
vn 0.8136 0.5606 -0.1541
vn 0.7957 0.5909 -0.1331
vn 0.7816 0.6079 -0.1399
vn 0.7528 0.6488 -0.1111
vn 0.7984 0.5833 -0.1493
vn 0.8497 0.5060 -0.1484
vn -0.7531 0.6297 0.1907
vn -0.6607 0.6790 0.3199
vn -0.6638 0.6880 0.2934
vn -0.6009 0.6943 0.3960
vn -0.2569 0.6713 0.6952
vn 0.5395 0.7432 0.3957
vn -0.3217 0.2902 0.9013
vn -0.7572 0.5120 0.4056
vn 0.9348 0.3496 -0.0627
vn -0.8805 0.3916 0.2671
vn -0.7895 0.5973 0.1411
vn 0.9821 0.1795 -0.0565
vn -0.9133 0.0660 0.4018
vn 0.9638 -0.0485 -0.2621
vn -0.5933 0.7798 -0.1999
vn -0.2762 0.3770 -0.8841
vn 0.4858 0.7146 -0.5033
vn 0.9926 -0.0569 -0.1073
vn -0.9787 0.0713 0.1923
vn -0.0544 -0.9981 0.0305
vn -0.0566 -0.9981 0.0250
vn -0.0587 -0.9981 0.0184
vn -0.0583 -0.9981 0.0196
vn 0.8478 -0.0134 -0.5301
vn 0.3686 0.6399 -0.6743
vn 0.2710 0.1202 -0.9550
vn -0.9451 0.2782 0.1717
vn -0.9464 0.0775 -0.3135
vn -0.8970 0.3872 -0.2130
vn -0.5331 0.2494 -0.8085
vn -0.4213 0.5740 -0.7022
vn -0.5846 0.7892 -0.1882
vn 0.6704 0.2525 0.6977
vn -0.2396 0.3558 0.9033
vn 0.6495 0.2063 0.7319
vn -0.4474 0.6936 -0.5646
vn -0.3433 0.9085 -0.2384
vn -0.6984 0.7070 -0.1114
vn -0.4241 0.7356 -0.5283
vn -0.9291 0.0424 -0.3673
vn -0.0568 -0.9982 0.0207
vn -0.0550 -0.9982 0.0236
vn -0.0550 -0.9982 0.0235
vn -0.0549 -0.9982 0.0236
vn 0.8199 0.3932 -0.4161
vn 0.1285 0.5985 -0.7908
vn 0.2895 0.9041 -0.3144
vn -0.8417 0.5070 -0.1856
vn -0.2795 0.8905 -0.3590
vn -0.4432 0.5923 -0.6729
vn 0.9121 -0.0597 -0.4056
vn 0.6674 0.5944 -0.4486
vn 0.4323 0.6045 0.6691
vn -0.3525 0.7532 0.5554
vn -0.5807 0.7972 0.1652
vn 0.5386 0.8408 0.0543
vn 0.4418 -0.0453 -0.8960
vn 0.1181 0.6753 -0.7280
vn -0.4444 0.0032 -0.8958
vn 0.6315 0.6998 -0.3340
vn 0.4662 0.7350 -0.4924
vn 0.4119 0.2584 -0.8738
usemtl Tex_0000_0_png.002
s 1
f 1/1/1 2/2/2 3/3/3
f 1/1/1 3/3/3 4/4/4
f 5/5/5 6/6/6 2/2/2
f 5/5/5 2/2/2 1/1/1
f 7/7/7 8/8/8 6/6/6
f 7/7/7 6/6/6 5/5/5
f 9/9/9 1/1/1 4/4/4
f 9/9/9 4/4/4 10/10/10
f 10/10/10 11/11/11 12/12/12
f 10/10/10 12/12/12 9/9/9
f 9/9/9 12/12/12 13/13/13
f 9/9/9 13/13/13 14/14/14
f 14/14/14 13/13/13 15/15/15
f 14/14/14 15/15/15 16/16/16
f 16/16/16 7/7/7 5/5/5
f 16/16/16 5/5/5 14/14/14
f 14/14/14 5/5/5 1/1/1
f 14/14/14 1/1/1 9/9/9
f 2/2/2 6/6/6 8/8/8 17/17/17 18/18/18 19/19/19 20/20/20 3/3/3
usemtl Tex_0001_0_png.002
f 21/21/21 22/22/7 23/23/16
f 21/21/21 23/23/16 24/24/22
f 21/21/21 24/24/22 25/25/23
f 21/21/21 25/25/23 26/26/24
f 21/21/21 17/17/17 22/22/7
f 26/26/24 25/25/23 27/27/10
f 26/26/24 27/27/10 28/28/4
f 20/20/20 19/19/19 26/26/24
f 20/20/20 26/26/24 28/28/4
f 25/25/23 29/29/25 30/30/26
f 25/25/23 30/30/26 27/27/10
f 23/23/16 31/31/27 32/32/28
f 23/23/16 32/32/28 24/24/22
f 24/24/22 32/32/28 29/29/25
f 24/24/22 29/29/25 25/25/23
f 26/26/24 19/19/19 18/18/18
f 26/26/24 18/18/18 21/21/21
f 21/21/21 18/18/18 17/17/17
usemtl Tex_0002_0_png.002
f 33/33/29 34/34/30 35/35/31
f 35/36/32 34/34/33 36/37/34
f 36/38/35 34/39/36 37/40/37
f 36/38/35 37/40/37 38/41/38
f 39/42/39 40/43/40 41/44/41
f 41/45/41 42/46/42 33/47/43
f 38/48/38 37/49/37 43/50/44
f 38/48/38 43/50/44 39/51/39
usemtl Tex_0003_0_png.002
f 44/52/45 45/53/46 46/54/47
f 44/52/45 46/54/47 47/55/48
f 48/56/49 49/57/50 45/58/46
f 48/56/49 45/58/46 44/59/45
f 50/60/12 51/61/51 49/62/50
f 50/60/12 49/62/50 48/63/49
f 52/64/26 53/65/52 51/66/51
f 52/64/26 51/66/51 50/67/12
f 54/68/53 55/69/54 53/70/52
f 54/68/53 53/70/52 52/71/26
f 46/72/55 56/73/56 57/74/57
f 46/72/58 57/74/59 55/75/60
f 45/53/46 58/76/61 56/77/62
f 45/53/46 56/77/62 46/54/47
f 49/57/50 59/78/63 58/79/61
f 49/57/50 58/79/61 45/58/46
f 51/61/51 60/80/64 59/81/63
f 51/61/51 59/81/63 49/62/50
f 53/65/52 61/82/65 60/83/64
f 53/65/52 60/83/64 51/66/51
f 55/69/54 57/84/66 61/85/65
f 55/69/54 61/85/65 53/70/52
usemtl Tex_0004_0_png.002
f 62/86/67 63/87/68 64/88/69
f 65/89/70 66/90/71 62/86/72
f 65/89/70 62/86/72 67/91/73
f 68/92/74 65/89/75 67/91/73
f 68/92/74 67/91/73 69/93/76
f 64/88/69 63/87/68 70/94/77
f 64/88/78 70/94/79 71/95/80
f 71/95/80 70/94/81 68/92/82
f 71/95/80 68/92/82 69/93/83
f 62/86/67 66/90/84 63/87/68
usemtl Tex_0005_0_png.002
f 72/96/85 73/97/86 74/98/87
f 72/96/85 74/98/87 75/99/88
f 76/100/89 77/101/90 78/102/91
f 77/103/92 74/104/92 78/105/93
f 78/105/93 74/104/92 73/106/94
f 79/107/95 80/108/96 81/109/97
f 82/110/98 83/111/99 84/112/100
f 82/110/98 84/112/100 85/113/101
f 86/114/102 85/115/101 84/116/100
f 86/114/102 84/116/100 87/117/103
f 86/118/102 87/119/103 79/107/95
f 86/118/102 79/107/95 81/109/97
f 88/120/104 89/121/105 85/122/101
f 88/120/104 85/122/101 86/123/102
f 90/124/106 91/125/107 92/126/108
f 90/124/106 92/126/108 93/127/109
f 91/128/107 94/129/110 95/130/111
f 91/128/107 95/130/111 92/131/108
f 96/132/112 97/133/113 98/134/114
f 97/135/113 72/136/85 99/137/115
f 97/135/113 99/137/115 98/138/114
f 72/96/85 75/99/88 100/139/116
f 72/96/85 100/139/116 99/140/115
f 76/100/89 90/141/106 93/142/109
f 76/100/89 93/142/109 101/143/117
f 80/144/96 101/145/117 93/146/109
f 82/147/98 99/148/115 100/149/116
f 82/147/98 100/149/116 102/150/118
f 81/151/97 80/152/96 93/153/109
f 81/151/97 93/153/109 92/154/108
f 103/155/119 98/156/114 99/157/115
f 103/155/119 99/157/115 82/158/98
f 104/159/120 81/160/97 92/161/108
f 104/159/120 92/161/108 95/162/111
f 98/163/114 103/164/119 105/165/121
f 98/163/114 105/165/121 106/166/122
f 83/111/99 82/110/98 102/167/118
f 79/107/95 107/168/123 80/108/96
f 96/132/112 108/169/124 97/133/113
f 97/135/113 108/170/124 73/171/86
f 97/135/113 73/171/86 72/136/85
f 82/110/98 85/113/101 103/172/119
f 90/124/106 78/173/91 109/174/125
f 90/124/106 109/174/125 91/125/107
f 81/175/97 104/176/120 88/120/104
f 81/175/97 88/120/104 86/123/102
f 75/177/88 74/178/87 77/179/90
f 75/177/88 77/179/90 76/180/89
f 84/116/100 110/181/126 111/182/127
f 84/116/100 111/182/127 87/117/103
f 107/168/123 79/107/95 112/183/128
f 103/184/119 85/122/101 89/121/105
f 103/184/119 89/121/105 105/185/121
f 83/111/99 110/186/126 84/112/100
f 111/187/127 112/183/128 79/107/95
f 111/187/127 79/107/95 87/119/103
f 91/128/107 109/188/125 113/189/129
f 76/100/89 78/102/91 90/141/106
f 91/128/107 113/189/129 94/129/110
f 96/132/112 114/190/130 108/169/124
f 78/105/93 73/106/94 109/191/131
f 109/191/131 73/106/94 108/192/132
f 109/191/131 108/192/132 113/193/133
f 113/193/133 108/192/132 114/194/134
f 115/195/135 116/196/136 117/197/137
f 106/198/138 118/199/139 119/200/140
f 118/201/139 120/202/141 121/203/142
f 118/201/139 121/203/142 119/204/143
f 122/205/144 123/206/145 102/207/118
f 122/205/144 102/207/118 124/208/146
f 107/168/123 122/209/144 124/210/146
f 107/168/123 124/210/146 80/108/96
f 125/211/147 119/212/148 121/213/142
f 83/111/99 102/167/118 123/214/145
f 126/215/149 96/216/112 106/217/150
f 126/215/149 106/217/122 119/218/143
f 126/215/149 127/219/151 114/220/130
f 126/215/149 114/220/130 96/216/112
f 113/193/133 114/194/134 128/221/152
f 128/221/152 114/194/134 127/222/153
f 128/221/152 127/222/153 129/223/154
f 127/222/153 130/224/155 129/223/154
f 75/177/88 76/180/89 101/225/117
f 131/226/156 132/227/157 133/228/158
f 134/229/159 135/230/160 136/231/161
f 134/232/159 105/233/121 89/234/105
f 134/232/159 89/234/105 135/235/160
f 75/177/88 101/225/117 100/236/116
f 94/237/110 113/238/129 128/239/162
f 94/237/110 128/239/162 137/240/163
f 100/241/116 101/242/117 124/243/146
f 123/244/145 122/245/144 138/246/164
f 123/244/145 138/246/164 139/247/165
f 83/111/99 123/214/145 139/248/165
f 83/111/99 139/248/165 140/249/166
f 100/241/116 124/243/146 102/250/118
f 107/168/123 112/183/128 141/251/167
f 122/209/144 107/168/123 141/251/167
f 122/209/144 141/251/167 138/252/164
f 80/144/96 124/253/146 101/145/117
f 133/254/158 135/235/160 89/234/105
f 131/255/156 133/254/158 88/256/104
f 131/255/156 88/256/104 104/257/120
f 83/111/99 140/249/166 110/186/126
f 133/254/158 89/234/105 88/256/104
f 137/258/163 128/259/162 129/260/168
f 137/258/163 129/260/168 142/261/169
f 141/251/167 110/186/126 140/249/166
f 141/251/167 140/249/166 139/248/165
f 112/183/128 110/186/126 141/251/167
f 141/251/167 139/248/165 138/252/164
f 95/262/111 115/263/135 131/264/156
f 95/262/111 131/264/156 104/265/120
f 131/266/156 115/267/135 117/268/137
f 131/266/156 117/268/137 132/269/157
f 134/270/159 136/271/161 120/272/141
f 134/270/159 120/272/141 118/273/139
f 106/198/122 105/274/121 134/275/159
f 106/198/122 134/275/159 118/199/139
f 125/211/147 130/276/170 127/277/151
f 125/211/147 127/277/151 126/278/149
f 94/237/110 137/240/163 143/279/171
f 94/237/110 143/279/171 95/280/111
f 137/258/163 142/261/169 116/281/172
f 137/258/163 116/281/172 143/282/171
f 125/211/147 126/278/149 119/212/148
f 95/262/111 143/283/171 115/263/135
f 115/195/135 143/284/171 116/196/136
f 121/285/142 117/286/137 116/287/173
f 142/288/169 130/289/170 125/290/147
f 135/230/160 133/228/158 132/227/157
f 135/230/160 132/227/157 136/231/161
f 120/291/141 136/292/161 132/293/157
f 120/291/141 132/293/157 117/294/137
f 142/288/169 125/290/147 121/295/142
f 142/288/169 121/295/142 116/296/136
f 142/288/169 129/297/168 130/289/170
f 121/285/142 120/298/141 117/286/137
