# Blender v2.82 (sub 7) OBJ File: ''
# www.blender.org
mtllib RodillaDere.mtl
o RodillaDere
v 0.583419 -1.263498 2.064996
v -1.852381 -2.221197 0.339197
v -0.241881 -5.906898 0.423097
v 1.577419 -5.900898 2.342597
v 2.972819 -5.473697 1.892897
v 3.501819 -4.937298 -0.099504
v 1.336219 1.680601 -0.272305
v 0.942119 1.306002 1.338095
v -0.241881 -5.906898 0.423097
v 0.902819 -5.353899 -1.944303
v 2.363319 -4.939600 -1.885203
v 3.501819 -4.937298 -0.099504
v -1.852381 -2.221197 0.339197
v -0.743681 -0.160899 -1.809105
v 0.586719 1.351902 -1.826905
v 1.336219 1.680601 -0.272305
v 2.073719 -13.954498 -0.053500
v 3.405319 -13.983599 0.051900
v 2.690819 -13.927898 -0.317500
vt 0.365400 1.711400
vt 0.016000 1.650100
vt 0.245200 1.414200
vt 0.510100 1.414600
vt 0.619500 1.441900
vt 0.832100 1.476300
vt 0.523000 1.912000
vt 0.433000 1.886200
vt 0.748400 1.318800
vt 0.569800 1.360000
vt 0.341800 1.390800
vt 0.164100 1.391000
vt 0.999000 1.593100
vt 0.826800 1.746400
vt 0.619100 1.859000
vt 0.502100 1.897600
vt 0.625500 1.682900
vt 0.625800 1.682500
vt 0.624600 1.683200
vn -0.0074 -0.4420 0.8970
vn -0.2347 -0.7318 0.6398
vn -0.3742 -0.7824 0.4978
vn 0.0195 -0.6868 0.7266
vn 0.7128 -0.4616 0.5281
vn 0.6594 -0.7054 -0.2599
vn 0.4947 0.2726 0.8252
vn 0.1311 -0.1120 0.9850
vn 0.1461 -0.4162 0.8975
vn -0.2535 -0.9186 0.3032
vn -0.1861 -0.6296 -0.7543
vn 0.3721 -0.5063 -0.7779
vn 0.7039 -0.5479 -0.4521
vn 0.0460 0.2621 0.9639
vn -0.1280 0.3664 0.9216
vn -0.5266 -0.3058 0.7932
vn -0.5557 -0.2937 0.7778
vn -0.7326 -0.5307 0.4263
vn 0.2083 -0.1060 0.9723
vn -0.2842 -0.0969 -0.9539
vn 0.6021 0.1126 -0.7905
vn 0.7453 0.6569 -0.1140
vn -0.4569 -0.8877 -0.0566
vn -0.4678 -0.6259 -0.6240
vn 0.0776 0.9882 0.1320
vn -0.1268 0.9859 0.1088
vn -0.1629 0.9534 0.2541
usemtl Tex_0000_0_png.003
s 1
f 1/1/1 2/2/2 3/3/3
f 1/1/1 3/3/3 4/4/4
f 5/5/5 6/6/6 7/7/7
f 5/5/5 7/7/7 8/8/8
f 4/4/4 5/5/5 8/8/8
f 4/4/4 8/8/8 1/1/9
f 5/5/5 4/4/4 3/3/3 9/9/10 10/10/11 11/11/12 12/12/13 6/6/6
f 1/1/14 8/8/8 7/7/7 13/13/15 14/14/16 15/15/17 16/16/18 2/2/19
usemtl Tex_0001_0_png.003
f 11/11/12 10/10/11 14/14/20
f 11/11/12 14/14/20 15/15/21
f 12/12/13 11/11/12 15/15/21
f 12/12/13 15/15/21 16/16/22
f 10/10/11 9/9/10 13/13/23
f 10/10/11 13/13/24 14/14/20
usemtl Tex_0005_0_png.003
f 17/17/25 18/18/26 19/19/27
