# Blender v2.82 (sub 7) OBJ File: 'Brick.blend'
# www.blender.org
mtllib Brick.mtl
o Mesh_0417.rip_Mesh_04
v 0.026000 0.000000 0.099000
v 0.026000 0.000000 -0.099000
v 0.026000 0.102000 0.099000
v -0.026000 0.102000 -0.099000
v -0.026000 0.102000 0.099000
v 0.031000 0.097000 -0.104000
v -0.031000 0.097000 -0.104000
v 0.026000 0.102000 -0.099000
v -0.031000 0.097000 0.104000
v 0.031000 0.097000 0.104000
v -0.031000 0.005000 0.104000
v -0.026000 0.000000 0.099000
v -0.031000 0.005000 -0.104000
v -0.026000 0.000000 -0.099000
v 0.031000 0.005000 -0.104000
v 0.031000 0.005000 0.104000
vt 0.024079 0.080072
vt 0.975921 0.919928
vt 0.975921 0.080072
vt 0.024079 0.919928
vt 0.975921 0.919928
vt 0.975921 0.080072
vt 0.024079 0.919928
vt 0.024079 0.080072
vt 0.995890 0.869404
vt 0.995890 0.130596
vt -0.004110 0.869404
vt -0.004110 0.130596
vt 0.642036 0.855062
vt 0.642036 0.144938
vt 0.029195 0.855062
vt 0.029195 0.144938
vt 0.907335 0.884813
vt 0.907335 0.115187
vt 0.100884 0.884813
vt 0.100884 0.115187
vt 0.705097 0.866609
vt 0.705097 0.133391
vt 0.029422 0.866609
vt 0.029422 0.133391
vt 0.019969 0.016667
vt 0.971811 0.016667
vt 0.078266 0.000000
vt 0.592965 0.000000
vt 0.120302 0.009307
vt 0.887917 0.009307
vt 0.083525 0.000000
vt 0.650995 0.000000
vt 0.650995 1.000000
vt 0.083525 1.000000
vt 0.887917 0.990693
vt 0.120302 0.990693
vt 0.592965 1.000000
vt 0.078266 1.000000
vt 0.971811 0.983333
vt 0.019969 0.983333
vn -0.3002 -0.9054 -0.3002
vn 0.3002 -0.9054 0.3002
vn -0.3002 -0.9054 0.3002
vn 0.3002 -0.9054 -0.3002
vn 0.3002 0.9054 -0.3002
vn -0.3002 0.9054 -0.3002
vn 0.3002 0.9054 0.3002
vn -0.3002 0.9054 0.3002
vn 0.6507 -0.3913 -0.6507
vn 0.6507 0.3913 -0.6507
vn 0.6507 -0.3913 0.6507
vn 0.6507 0.3913 0.6507
vn -0.6507 -0.3913 -0.6507
vn -0.6507 0.3913 -0.6507
vn -0.6507 -0.3913 0.6507
vn -0.6507 0.3913 0.6507
usemtl Mesh_0417.rip
s 1
f 14/1/1 1/2/2 12/3/3
f 1/2/2 14/1/1 2/4/4
f 8/5/5 4/6/6 3/7/7
f 3/7/7 4/6/6 5/8/8
f 15/9/9 6/10/10 16/11/11
f 16/11/11 6/10/10 10/12/12
f 13/13/13 7/14/14 15/15/9
f 15/15/9 7/14/14 6/16/10
f 11/17/15 9/18/16 13/19/13
f 13/19/13 9/18/16 7/20/14
f 16/21/11 10/22/12 11/23/15
f 11/23/15 10/22/12 9/24/16
f 10/12/12 6/10/10 3/25/7
f 3/25/7 6/10/10 8/26/5
f 6/16/10 7/14/14 8/27/5
f 8/27/5 7/14/14 4/28/6
f 7/20/14 9/18/16 4/29/6
f 4/29/6 9/18/16 5/30/8
f 9/24/16 10/22/12 5/31/8
f 5/31/8 10/22/12 3/32/7
f 11/23/15 1/33/2 16/21/11
f 1/33/2 11/23/15 12/34/3
f 11/17/15 13/19/13 12/35/3
f 12/35/3 13/19/13 14/36/1
f 13/13/13 15/15/9 14/37/1
f 14/37/1 15/15/9 2/38/4
f 15/9/9 16/11/11 2/39/4
f 16/11/11 1/40/2 2/39/4
l 1 2
l 3 5
l 3 4
l 4 5
l 9 10
l 12 14
l 12 13
l 13 14
l 15 16
l 2 16
l 1 16
l 2 15
l 14 15
l 2 14
l 13 15
l 11 13
l 11 12
l 1 11
l 1 12
l 11 16
l 5 10
l 3 10
l 5 9
l 4 9
l 7 9
l 4 7
l 7 8
l 4 8
l 6 7
l 6 8
l 3 6
l 3 8
l 6 10
l 10 11
l 9 11
l 10 16
l 7 13
l 9 13
l 7 15
l 6 15
l 6 16
l 1 14
